{
	"patcher" : 	{
		"fileversion" : 1,
		"appversion" : 		{
			"major" : 7,
			"minor" : 2,
			"revision" : 5,
			"architecture" : "x64",
			"modernui" : 1
		}
,
		"rect" : [ 100.0, 100.0, 1148.0, 766.0 ],
		"bglocked" : 0,
		"openinpresentation" : 0,
		"default_fontsize" : 12.0,
		"default_fontface" : 0,
		"default_fontname" : "Arial",
		"gridonopen" : 1,
		"gridsize" : [ 15.0, 15.0 ],
		"gridsnaponopen" : 1,
		"objectsnaponopen" : 1,
		"statusbarvisible" : 2,
		"toolbarvisible" : 1,
		"lefttoolbarpinned" : 0,
		"toptoolbarpinned" : 0,
		"righttoolbarpinned" : 0,
		"bottomtoolbarpinned" : 0,
		"toolbars_unpinned_last_save" : 7,
		"tallnewobj" : 0,
		"boxanimatetime" : 200,
		"enablehscroll" : 1,
		"enablevscroll" : 1,
		"devicewidth" : 0.0,
		"description" : "",
		"digest" : "",
		"tags" : "",
		"style" : "",
		"subpatcher_template" : "no-menus",
		"showrootpatcherontab" : 0,
		"showontab" : 0,
		"boxes" : [ 			{
				"box" : 				{
					"id" : "obj-2",
					"maxclass" : "newobj",
					"numinlets" : 0,
					"numoutlets" : 0,
					"patcher" : 					{
						"fileversion" : 1,
						"appversion" : 						{
							"major" : 7,
							"minor" : 2,
							"revision" : 5,
							"architecture" : "x64",
							"modernui" : 1
						}
,
						"rect" : [ 0.0, 26.0, 1148.0, 740.0 ],
						"bglocked" : 0,
						"openinpresentation" : 0,
						"default_fontsize" : 12.0,
						"default_fontface" : 0,
						"default_fontname" : "Arial",
						"gridonopen" : 1,
						"gridsize" : [ 15.0, 15.0 ],
						"gridsnaponopen" : 1,
						"objectsnaponopen" : 1,
						"statusbarvisible" : 2,
						"toolbarvisible" : 1,
						"lefttoolbarpinned" : 0,
						"toptoolbarpinned" : 0,
						"righttoolbarpinned" : 0,
						"bottomtoolbarpinned" : 0,
						"toolbars_unpinned_last_save" : 0,
						"tallnewobj" : 0,
						"boxanimatetime" : 200,
						"enablehscroll" : 1,
						"enablevscroll" : 1,
						"devicewidth" : 0.0,
						"description" : "",
						"digest" : "",
						"tags" : "",
						"style" : "",
						"subpatcher_template" : "no-menus",
						"showontab" : 1,
						"boxes" : [ 							{
								"box" : 								{
									"id" : "obj-11",
									"maxclass" : "newobj",
									"numinlets" : 2,
									"numoutlets" : 1,
									"outlettype" : [ "signal" ],
									"patching_rect" : [ 140.0, 331.223022, 44.0, 22.0 ],
									"style" : "",
									"text" : "/~ 127"
								}

							}
, 							{
								"box" : 								{
									"id" : "obj-4",
									"maxclass" : "comment",
									"numinlets" : 1,
									"numoutlets" : 0,
									"patching_rect" : [ 240.5, 364.223022, 85.0, 20.0 ],
									"style" : "",
									"text" : "relative phase"
								}

							}
, 							{
								"box" : 								{
									"id" : "obj-5",
									"maxclass" : "comment",
									"numinlets" : 1,
									"numoutlets" : 0,
									"patching_rect" : [ 120.5, 498.136719, 19.0, 20.0 ],
									"style" : "",
									"text" : "y"
								}

							}
, 							{
								"box" : 								{
									"fgcolor" : [ 0.702269, 0.811747, 0.303388, 1.0 ],
									"id" : "obj-7",
									"maxclass" : "scope~",
									"numinlets" : 2,
									"numoutlets" : 0,
									"patching_rect" : [ 140.0, 481.223022, 190.0, 64.913704 ],
									"range" : [ 0.0, 1.0 ],
									"style" : ""
								}

							}
, 							{
								"box" : 								{
									"fgcolor" : [ 0.702269, 0.811747, 0.303388, 1.0 ],
									"id" : "obj-9",
									"maxclass" : "scope~",
									"numinlets" : 2,
									"numoutlets" : 0,
									"patching_rect" : [ 207.5, 386.223022, 190.0, 64.913704 ],
									"range" : [ 0.0, 1.0 ],
									"style" : ""
								}

							}
, 							{
								"box" : 								{
									"color" : [ 0.702269, 0.811747, 0.303388, 1.0 ],
									"id" : "obj-1",
									"linecount" : 2,
									"maxclass" : "newobj",
									"numinlets" : 3,
									"numoutlets" : 6,
									"outlettype" : [ "signal", "signal", "signal", "signal", "signal", "" ],
									"patching_rect" : [ 140.0, 275.5, 154.0, 35.0 ],
									"style" : "",
									"text" : "m158.o.points.phase~ /seq @step 1 @beats 1"
								}

							}
, 							{
								"box" : 								{
									"id" : "obj-25",
									"maxclass" : "comment",
									"numinlets" : 1,
									"numoutlets" : 0,
									"patching_rect" : [ 709.0, 382.223022, 306.0, 20.0 ],
									"style" : "",
									"text" : "see the m158.o.gui.table help patch for a fuller example"
								}

							}
, 							{
								"box" : 								{
									"id" : "obj-20",
									"linecount" : 7,
									"maxclass" : "comment",
									"numinlets" : 1,
									"numoutlets" : 0,
									"patching_rect" : [ 648.0, 249.5, 336.0, 100.0 ],
									"style" : "",
									"text" : "With @step 1, m158.o.points.phase~ is non-interpolating, and instead holds its value for the duration of the index in the sequence.\n\nIn @beat 0 mode, m158.o.points.phase~ repeated notes are joined together in order to creates a relative phase that goes from 0 to 1 over the course of the held event."
								}

							}
, 							{
								"box" : 								{
									"id" : "obj-19",
									"maxclass" : "comment",
									"numinlets" : 1,
									"numoutlets" : 0,
									"patching_rect" : [ 140.0, 41.723022, 135.0, 20.0 ],
									"style" : "",
									"text" : "itable with range of 128"
								}

							}
, 							{
								"box" : 								{
									"fontface" : 0,
									"fontname" : "Arial",
									"fontsize" : 12.0,
									"id" : "obj-17",
									"maxclass" : "number~",
									"mode" : 2,
									"numinlets" : 2,
									"numoutlets" : 2,
									"outlettype" : [ "signal", "float" ],
									"patching_rect" : [ 374.0, 348.0, 56.0, 22.0 ],
									"sig" : 0.0,
									"style" : ""
								}

							}
, 							{
								"box" : 								{
									"id" : "obj-15",
									"maxclass" : "newobj",
									"numinlets" : 2,
									"numoutlets" : 1,
									"outlettype" : [ "signal" ],
									"patching_rect" : [ 437.0, 365.223022, 44.0, 22.0 ],
									"style" : "",
									"text" : "/~ 127"
								}

							}
, 							{
								"box" : 								{
									"color" : [ 0.702269, 0.811747, 0.303388, 1.0 ],
									"id" : "obj-86",
									"linecount" : 2,
									"maxclass" : "newobj",
									"numinlets" : 3,
									"numoutlets" : 6,
									"outlettype" : [ "signal", "signal", "signal", "signal", "signal", "" ],
									"patching_rect" : [ 437.0, 275.5, 157.0, 35.0 ],
									"style" : "",
									"text" : "m158.o.points.phase~ /seq @step 1 @beats 0"
								}

							}
, 							{
								"box" : 								{
									"hint" : "",
									"id" : "obj-13",
									"maxclass" : "itable",
									"name" : "",
									"notename" : 1,
									"numinlets" : 2,
									"numoutlets" : 2,
									"outlettype" : [ "int", "bang" ],
									"parameter_enable" : 0,
									"patching_rect" : [ 45.5, 69.223022, 270.0, 93.0 ],
									"range" : 128,
									"size" : 128,
									"style" : "",
									"table_data" : [ 0, 0, 0, 41, 41, 41, 41, 41, 41, 41, 41, 41, 41, 41, 41, 41, 41, 41, 41, 41, 0, 0, 0, 0, 0, 85, 85, 85, 85, 85, 85, 85, 85, 85, 85, 85, 85, 85, 85, 85, 85, 85, 85, 85, 85, 85, 85, 85, 85, 85, 85, 85, 85, 85, 0, 0, 0, 0, 0, 0, 0, 0, 0, 0, 36, 36, 36, 36, 36, 36, 36, 36, 36, 36, 36, 36, 36, 36, 37, 37, 0, 0, 103, 103, 103, 103, 103, 103, 103, 103, 103, 104, 104, 104, 104, 104, 104, 104, 104, 104, 104, 51, 0, 0, 0, 0, 0, 0, 0, 0, 0, 0, 0, 0, 0, 0, 0, 0, 0, 0, 0, 0, 0, 0, 59, 0, 0, 0, 0 ],
									"varname" : "itable"
								}

							}
, 							{
								"box" : 								{
									"id" : "obj-16",
									"maxclass" : "message",
									"numinlets" : 2,
									"numoutlets" : 1,
									"outlettype" : [ "" ],
									"patching_rect" : [ 457.0, 41.723022, 33.0, 22.0 ],
									"style" : "",
									"text" : "stop"
								}

							}
, 							{
								"box" : 								{
									"id" : "obj-14",
									"maxclass" : "message",
									"numinlets" : 2,
									"numoutlets" : 1,
									"outlettype" : [ "" ],
									"patching_rect" : [ 377.0, 41.723022, 74.0, 22.0 ],
									"style" : "",
									"text" : "startwindow"
								}

							}
, 							{
								"box" : 								{
									"id" : "obj-2",
									"maxclass" : "newobj",
									"numinlets" : 2,
									"numoutlets" : 0,
									"patching_rect" : [ 377.0, 83.723022, 37.0, 22.0 ],
									"style" : "",
									"text" : "dac~"
								}

							}
, 							{
								"box" : 								{
									"id" : "obj-10",
									"maxclass" : "comment",
									"numinlets" : 1,
									"numoutlets" : 0,
									"patching_rect" : [ 468.0, 176.223022, 79.0, 20.0 ],
									"style" : "",
									"text" : "global phase"
								}

							}
, 							{
								"box" : 								{
									"id" : "obj-8",
									"maxclass" : "comment",
									"numinlets" : 1,
									"numoutlets" : 0,
									"patching_rect" : [ 539.0, 343.223022, 85.0, 20.0 ],
									"style" : "",
									"text" : "relative phase"
								}

							}
, 							{
								"box" : 								{
									"id" : "obj-6",
									"maxclass" : "comment",
									"numinlets" : 1,
									"numoutlets" : 0,
									"patching_rect" : [ 486.5, 481.223022, 19.0, 20.0 ],
									"style" : "",
									"text" : "y"
								}

							}
, 							{
								"box" : 								{
									"fgcolor" : [ 0.702269, 0.811747, 0.303388, 1.0 ],
									"id" : "obj-3",
									"maxclass" : "scope~",
									"numinlets" : 2,
									"numoutlets" : 0,
									"patching_rect" : [ 506.0, 464.309326, 190.0, 64.913704 ],
									"range" : [ 0.0, 1.0 ],
									"style" : ""
								}

							}
, 							{
								"box" : 								{
									"fgcolor" : [ 0.702269, 0.811747, 0.303388, 1.0 ],
									"id" : "obj-88",
									"maxclass" : "scope~",
									"numinlets" : 2,
									"numoutlets" : 0,
									"patching_rect" : [ 506.0, 365.223022, 190.0, 64.913704 ],
									"range" : [ 0.0, 1.0 ],
									"style" : ""
								}

							}
, 							{
								"box" : 								{
									"format" : 6,
									"id" : "obj-52",
									"maxclass" : "flonum",
									"numinlets" : 1,
									"numoutlets" : 2,
									"outlettype" : [ "", "bang" ],
									"parameter_enable" : 0,
									"patching_rect" : [ 437.0, 140.223022, 50.0, 22.0 ],
									"style" : ""
								}

							}
, 							{
								"box" : 								{
									"id" : "obj-51",
									"maxclass" : "newobj",
									"numinlets" : 2,
									"numoutlets" : 1,
									"outlettype" : [ "signal" ],
									"patching_rect" : [ 437.0, 206.223022, 64.0, 22.0 ],
									"style" : "",
									"text" : "phasor~ 1"
								}

							}
, 							{
								"box" : 								{
									"id" : "obj-30",
									"maxclass" : "newobj",
									"numinlets" : 1,
									"numoutlets" : 2,
									"outlettype" : [ "", "" ],
									"patching_rect" : [ 575.0, 206.223022, 125.0, 22.0 ],
									"style" : "",
									"text" : "m158.o.gui.table /seq"
								}

							}
, 							{
								"box" : 								{
									"id" : "obj-21",
									"maxclass" : "newobj",
									"numinlets" : 1,
									"numoutlets" : 3,
									"outlettype" : [ "", "", "" ],
									"patching_rect" : [ 24.5, 33.223022, 61.0, 22.0 ],
									"restore" : [ 0, 0, 41, 41, 41, 41, 41, 41, 41, 41, 41, 41, 41, 41, 41, 41, 41, 41, 41, 0, 0, 0, 0, 0, 85, 85, 85, 85, 85, 85, 85, 85, 85, 85, 85, 85, 85, 85, 85, 85, 85, 85, 85, 85, 85, 85, 85, 85, 85, 85, 85, 85, 85, 0, 0, 0, 0, 0, 0, 0, 0, 0, 0, 36, 36, 36, 36, 36, 36, 36, 36, 36, 36, 36, 36, 36, 36, 37, 37, 0, 0, 103, 103, 103, 103, 103, 103, 103, 103, 103, 104, 104, 104, 104, 104, 104, 104, 104, 104, 104, 51, 0, 0, 0, 0, 0, 0, 0, 0, 0, 0, 0, 0, 0, 0, 0, 0, 0, 0, 0, 0, 0, 0, 59, 0, 0, 0, 0 ],
									"saved_object_attributes" : 									{
										"parameter_enable" : 0
									}
,
									"style" : "",
									"text" : "pattr /seq",
									"varname" : "/seq"
								}

							}
, 							{
								"box" : 								{
									"id" : "obj-24",
									"maxclass" : "button",
									"numinlets" : 1,
									"numoutlets" : 1,
									"outlettype" : [ "bang" ],
									"patching_rect" : [ 575.0, 110.223022, 24.0, 24.0 ],
									"style" : ""
								}

							}
, 							{
								"box" : 								{
									"id" : "obj-22",
									"linecount" : 3,
									"maxclass" : "newobj",
									"numinlets" : 1,
									"numoutlets" : 1,
									"outlettype" : [ "" ],
									"patching_rect" : [ 657.0, 134.723022, 100.0, 49.0 ],
									"saved_object_attributes" : 									{
										"client_rect" : [ 1057, 45, 1440, 407 ],
										"parameter_enable" : 0,
										"storage_rect" : [ 583, 69, 1034, 197 ]
									}
,
									"style" : "",
									"text" : "pattrstorage @outputmode 1 @notifymode 1",
									"varname" : "u775000511"
								}

							}
, 							{
								"box" : 								{
									"id" : "obj-23",
									"maxclass" : "newobj",
									"numinlets" : 2,
									"numoutlets" : 2,
									"outlettype" : [ "FullPacket", "dump" ],
									"patching_rect" : [ 575.0, 148.223022, 70.0, 22.0 ],
									"style" : "",
									"text" : "m158.o.gui"
								}

							}
 ],
						"lines" : [ 							{
								"patchline" : 								{
									"destination" : [ "obj-11", 0 ],
									"disabled" : 0,
									"hidden" : 0,
									"source" : [ "obj-1", 0 ]
								}

							}
, 							{
								"patchline" : 								{
									"destination" : [ "obj-9", 0 ],
									"disabled" : 0,
									"hidden" : 0,
									"source" : [ "obj-1", 1 ]
								}

							}
, 							{
								"patchline" : 								{
									"destination" : [ "obj-7", 0 ],
									"disabled" : 0,
									"hidden" : 0,
									"source" : [ "obj-11", 0 ]
								}

							}
, 							{
								"patchline" : 								{
									"destination" : [ "obj-2", 0 ],
									"disabled" : 0,
									"hidden" : 0,
									"source" : [ "obj-14", 0 ]
								}

							}
, 							{
								"patchline" : 								{
									"destination" : [ "obj-3", 0 ],
									"disabled" : 0,
									"hidden" : 0,
									"source" : [ "obj-15", 0 ]
								}

							}
, 							{
								"patchline" : 								{
									"destination" : [ "obj-2", 0 ],
									"disabled" : 0,
									"hidden" : 0,
									"source" : [ "obj-16", 0 ]
								}

							}
, 							{
								"patchline" : 								{
									"destination" : [ "obj-13", 0 ],
									"disabled" : 0,
									"hidden" : 0,
									"source" : [ "obj-21", 1 ]
								}

							}
, 							{
								"patchline" : 								{
									"destination" : [ "obj-23", 1 ],
									"disabled" : 0,
									"hidden" : 0,
									"source" : [ "obj-22", 0 ]
								}

							}
, 							{
								"patchline" : 								{
									"destination" : [ "obj-22", 0 ],
									"disabled" : 0,
									"hidden" : 0,
									"source" : [ "obj-23", 1 ]
								}

							}
, 							{
								"patchline" : 								{
									"destination" : [ "obj-30", 0 ],
									"disabled" : 0,
									"hidden" : 0,
									"source" : [ "obj-23", 0 ]
								}

							}
, 							{
								"patchline" : 								{
									"destination" : [ "obj-23", 0 ],
									"disabled" : 0,
									"hidden" : 0,
									"source" : [ "obj-24", 0 ]
								}

							}
, 							{
								"patchline" : 								{
									"destination" : [ "obj-1", 1 ],
									"disabled" : 0,
									"hidden" : 0,
									"source" : [ "obj-30", 0 ]
								}

							}
, 							{
								"patchline" : 								{
									"destination" : [ "obj-86", 1 ],
									"disabled" : 0,
									"hidden" : 0,
									"source" : [ "obj-30", 0 ]
								}

							}
, 							{
								"patchline" : 								{
									"destination" : [ "obj-1", 0 ],
									"disabled" : 0,
									"hidden" : 0,
									"source" : [ "obj-51", 0 ]
								}

							}
, 							{
								"patchline" : 								{
									"destination" : [ "obj-86", 0 ],
									"disabled" : 0,
									"hidden" : 0,
									"source" : [ "obj-51", 0 ]
								}

							}
, 							{
								"patchline" : 								{
									"destination" : [ "obj-51", 0 ],
									"disabled" : 0,
									"hidden" : 0,
									"source" : [ "obj-52", 0 ]
								}

							}
, 							{
								"patchline" : 								{
									"destination" : [ "obj-15", 0 ],
									"disabled" : 0,
									"hidden" : 0,
									"source" : [ "obj-86", 0 ]
								}

							}
, 							{
								"patchline" : 								{
									"destination" : [ "obj-17", 0 ],
									"disabled" : 0,
									"hidden" : 0,
									"source" : [ "obj-86", 0 ]
								}

							}
, 							{
								"patchline" : 								{
									"destination" : [ "obj-88", 0 ],
									"disabled" : 0,
									"hidden" : 0,
									"source" : [ "obj-86", 1 ]
								}

							}
 ]
					}
,
					"patching_rect" : [ 323.0, 185.776978, 152.0, 22.0 ],
					"saved_object_attributes" : 					{
						"description" : "",
						"digest" : "",
						"globalpatchername" : "",
						"style" : "",
						"tags" : ""
					}
,
					"style" : "",
					"text" : "p \"@step + @beat modes\"",
					"varname" : "patcher[1]"
				}

			}
, 			{
				"box" : 				{
					"id" : "obj-1",
					"maxclass" : "newobj",
					"numinlets" : 0,
					"numoutlets" : 0,
					"patcher" : 					{
						"fileversion" : 1,
						"appversion" : 						{
							"major" : 7,
							"minor" : 2,
							"revision" : 5,
							"architecture" : "x64",
							"modernui" : 1
						}
,
						"rect" : [ 100.0, 126.0, 1148.0, 740.0 ],
						"bglocked" : 0,
						"openinpresentation" : 0,
						"default_fontsize" : 12.0,
						"default_fontface" : 0,
						"default_fontname" : "Arial",
						"gridonopen" : 1,
						"gridsize" : [ 15.0, 15.0 ],
						"gridsnaponopen" : 1,
						"objectsnaponopen" : 1,
						"statusbarvisible" : 2,
						"toolbarvisible" : 1,
						"lefttoolbarpinned" : 0,
						"toptoolbarpinned" : 0,
						"righttoolbarpinned" : 0,
						"bottomtoolbarpinned" : 0,
						"toolbars_unpinned_last_save" : 0,
						"tallnewobj" : 0,
						"boxanimatetime" : 200,
						"enablehscroll" : 1,
						"enablevscroll" : 1,
						"devicewidth" : 0.0,
						"description" : "",
						"digest" : "",
						"tags" : "",
						"style" : "",
						"subpatcher_template" : "no-menus",
						"showontab" : 1,
						"boxes" : [ 							{
								"box" : 								{
									"id" : "obj-40",
									"maxclass" : "comment",
									"numinlets" : 1,
									"numoutlets" : 0,
									"patching_rect" : [ 166.0, 351.5, 39.0, 20.0 ],
									"style" : "",
									"text" : "index"
								}

							}
, 							{
								"box" : 								{
									"id" : "obj-39",
									"maxclass" : "comment",
									"numinlets" : 1,
									"numoutlets" : 0,
									"patching_rect" : [ 66.0, 351.5, 43.0, 20.0 ],
									"style" : "",
									"text" : "phase"
								}

							}
, 							{
								"box" : 								{
									"id" : "obj-38",
									"maxclass" : "comment",
									"numinlets" : 1,
									"numoutlets" : 0,
									"patching_rect" : [ 68.199997, 618.223022, 79.0, 20.0 ],
									"style" : "",
									"text" : "global phase"
								}

							}
, 							{
								"box" : 								{
									"fgcolor" : [ 0.960784, 0.827451, 0.156863, 1.0 ],
									"id" : "obj-37",
									"maxclass" : "scope~",
									"numinlets" : 2,
									"numoutlets" : 0,
									"patching_rect" : [ 148.699997, 589.809326, 190.0, 64.913704 ],
									"range" : [ 0.0, 1.0 ],
									"style" : ""
								}

							}
, 							{
								"box" : 								{
									"id" : "obj-36",
									"maxclass" : "newobj",
									"numinlets" : 1,
									"numoutlets" : 2,
									"outlettype" : [ "", "FullPacket" ],
									"patching_rect" : [ 111.0, 88.5, 71.0, 22.0 ],
									"style" : "",
									"text" : "o.route /gui"
								}

							}
, 							{
								"box" : 								{
									"id" : "obj-32",
									"maxclass" : "newobj",
									"numinlets" : 1,
									"numoutlets" : 2,
									"outlettype" : [ "", "" ],
									"patching_rect" : [ 111.0, 118.5, 149.0, 22.0 ],
									"style" : "",
									"text" : "m158.o.gui.function /func"
								}

							}
, 							{
								"box" : 								{
									"color" : [ 0.960784, 0.827451, 0.156863, 1.0 ],
									"id" : "obj-26",
									"maxclass" : "newobj",
									"numinlets" : 1,
									"numoutlets" : 3,
									"outlettype" : [ "", "", "" ],
									"patching_rect" : [ 449.0, 49.723022, 114.0, 22.0 ],
									"restore" : [ 1799.0 ],
									"saved_object_attributes" : 									{
										"parameter_enable" : 0
									}
,
									"style" : "",
									"text" : "pattr /phrase/length",
									"varname" : "/phrase/length"
								}

							}
, 							{
								"box" : 								{
									"fontface" : 0,
									"fontname" : "Arial",
									"fontsize" : 12.0,
									"id" : "obj-20",
									"maxclass" : "number~",
									"mode" : 1,
									"numinlets" : 2,
									"numoutlets" : 2,
									"outlettype" : [ "signal", "float" ],
									"patching_rect" : [ 221.0, 351.5, 56.0, 22.0 ],
									"sig" : 1.0,
									"style" : ""
								}

							}
, 							{
								"box" : 								{
									"color" : [ 0.960784, 0.827451, 0.156863, 1.0 ],
									"id" : "obj-19",
									"maxclass" : "newobj",
									"numinlets" : 1,
									"numoutlets" : 3,
									"outlettype" : [ "signal", "bang", "" ],
									"patching_rect" : [ 111.0, 177.723007, 207.5, 22.0 ],
									"style" : "",
									"text" : "m158.o.num~ /phrase/length"
								}

							}
, 							{
								"box" : 								{
									"color" : [ 0.960784, 0.827451, 0.156863, 1.0 ],
									"id" : "obj-18",
									"maxclass" : "newobj",
									"numinlets" : 2,
									"numoutlets" : 4,
									"outlettype" : [ "signal", "signal", "signal", "" ],
									"patching_rect" : [ 111.0, 220.223007, 84.0, 22.0 ],
									"style" : "",
									"text" : "m158.phase~"
								}

							}
, 							{
								"box" : 								{
									"id" : "obj-17",
									"maxclass" : "newobj",
									"numinlets" : 4,
									"numoutlets" : 4,
									"outlettype" : [ "signal", "signal", "signal", "" ],
									"patching_rect" : [ 128.5, 305.723022, 190.0, 22.0 ],
									"style" : "",
									"text" : "m158.o.click.counter~ /func/count"
								}

							}
, 							{
								"box" : 								{
									"id" : "obj-13",
									"maxclass" : "newobj",
									"numinlets" : 1,
									"numoutlets" : 1,
									"outlettype" : [ "signal" ],
									"patching_rect" : [ 128.5, 274.5, 110.0, 22.0 ],
									"style" : "",
									"text" : "m158.phase.click~"
								}

							}
, 							{
								"box" : 								{
									"id" : "obj-3",
									"maxclass" : "message",
									"numinlets" : 2,
									"numoutlets" : 1,
									"outlettype" : [ "" ],
									"patching_rect" : [ 546.0, 572.723022, 33.0, 22.0 ],
									"style" : "",
									"text" : "stop"
								}

							}
, 							{
								"box" : 								{
									"id" : "obj-4",
									"maxclass" : "message",
									"numinlets" : 2,
									"numoutlets" : 1,
									"outlettype" : [ "" ],
									"patching_rect" : [ 466.0, 572.723022, 74.0, 22.0 ],
									"style" : "",
									"text" : "startwindow"
								}

							}
, 							{
								"box" : 								{
									"id" : "obj-6",
									"maxclass" : "newobj",
									"numinlets" : 2,
									"numoutlets" : 0,
									"patching_rect" : [ 466.0, 614.723022, 37.0, 22.0 ],
									"style" : "",
									"text" : "dac~"
								}

							}
, 							{
								"box" : 								{
									"id" : "obj-12",
									"maxclass" : "comment",
									"numinlets" : 1,
									"numoutlets" : 0,
									"patching_rect" : [ 193.0, 415.545349, 85.0, 20.0 ],
									"style" : "",
									"text" : "relative phase"
								}

							}
, 							{
								"box" : 								{
									"id" : "obj-10",
									"maxclass" : "comment",
									"numinlets" : 1,
									"numoutlets" : 0,
									"patching_rect" : [ 28.0, 220.223007, 79.0, 20.0 ],
									"style" : "",
									"text" : "global phase"
								}

							}
, 							{
								"box" : 								{
									"id" : "obj-9",
									"maxclass" : "comment",
									"numinlets" : 1,
									"numoutlets" : 0,
									"patching_rect" : [ 38.450001, 535.266174, 123.0, 20.0 ],
									"style" : "",
									"text" : "interpolated y output "
								}

							}
, 							{
								"box" : 								{
									"fgcolor" : [ 0.92549, 0.364706, 0.341176, 1.0 ],
									"id" : "obj-8",
									"maxclass" : "scope~",
									"numinlets" : 2,
									"numoutlets" : 0,
									"patching_rect" : [ 148.699997, 512.809326, 190.0, 64.913704 ],
									"range" : [ 0.0, 1.0 ],
									"style" : ""
								}

							}
, 							{
								"box" : 								{
									"fgcolor" : [ 0.541176, 0.815686, 0.913725, 1.0 ],
									"id" : "obj-96",
									"maxclass" : "scope~",
									"numinlets" : 2,
									"numoutlets" : 0,
									"patching_rect" : [ 148.699997, 437.545349, 190.0, 64.913704 ],
									"range" : [ 0.0, 1.0 ],
									"style" : ""
								}

							}
, 							{
								"box" : 								{
									"color" : [ 0.541176, 0.815686, 0.913725, 1.0 ],
									"id" : "obj-95",
									"maxclass" : "newobj",
									"numinlets" : 3,
									"numoutlets" : 6,
									"outlettype" : [ "signal", "signal", "signal", "signal", "signal", "" ],
									"patching_rect" : [ 111.0, 383.5, 207.5, 22.0 ],
									"style" : "",
									"text" : "m158.o.points.phase~ /func"
								}

							}
, 							{
								"box" : 								{
									"id" : "obj-90",
									"maxclass" : "newobj",
									"numinlets" : 1,
									"numoutlets" : 3,
									"outlettype" : [ "", "", "" ],
									"patching_rect" : [ 400.0, 128.5, 74.0, 22.0 ],
									"restore" : [ 1000.0, 0.0, 1.0, 0.0, 0.0, 0, 0.0, 143.61702, 0.92, 0, 0.45, 143.61702, 0.0, 0, 0.0, 292.553192, 0.493333, 0, 0.0, 351.063843, 0.013333, 0, 0.0, 409.574463, 1.0, 0, 0.995, 595.74469, 0.253333, 0, 0.9, 819.148926, 1.0, 0, -0.8, 867.021301, 0.32, 0, 0.0, 1000.0, 0.0, 0, 0.745, "curve" ],
									"saved_object_attributes" : 									{
										"parameter_enable" : 0
									}
,
									"style" : "",
									"text" : "pattr /func/0",
									"varname" : "/func/0"
								}

							}
, 							{
								"box" : 								{
									"addpoints_with_curve" : [ 0.0, 0.0, 0, 0.0, 143.61702, 0.92, 0, 0.45, 143.61702, 0.0, 0, 0.0, 292.553192, 0.493333, 0, 0.0, 351.063843, 0.013333, 0, 0.0, 409.574463, 1.0, 0, 0.995, 595.74469, 0.253333, 0, 0.9, 819.148926, 1.0, 0, -0.8, 867.021301, 0.32, 0, 0.0, 1000.0, 0.0, 0, 0.745 ],
									"id" : "obj-91",
									"linecolor" : [ 0.92549, 0.364706, 0.341176, 1.0 ],
									"maxclass" : "function",
									"mode" : 1,
									"numinlets" : 1,
									"numoutlets" : 4,
									"outlettype" : [ "float", "", "", "bang" ],
									"parameter_enable" : 0,
									"patching_rect" : [ 427.5, 163.5, 200.0, 100.0 ],
									"style" : "",
									"varname" : "function[1]"
								}

							}
, 							{
								"box" : 								{
									"attr" : "mode",
									"id" : "obj-92",
									"maxclass" : "attrui",
									"numinlets" : 1,
									"numoutlets" : 1,
									"outlettype" : [ "" ],
									"patching_rect" : [ 477.5, 128.5, 150.0, 22.0 ],
									"style" : "",
									"text_width" : 68.0
								}

							}
, 							{
								"box" : 								{
									"format" : 6,
									"id" : "obj-52",
									"maxclass" : "flonum",
									"numinlets" : 1,
									"numoutlets" : 2,
									"outlettype" : [ "", "bang" ],
									"parameter_enable" : 0,
									"patching_rect" : [ 496.5, 82.446045, 50.0, 22.0 ],
									"style" : "",
									"varname" : "number"
								}

							}
, 							{
								"box" : 								{
									"id" : "obj-21",
									"maxclass" : "newobj",
									"numinlets" : 1,
									"numoutlets" : 3,
									"outlettype" : [ "", "", "" ],
									"patching_rect" : [ 400.0, 294.5, 74.0, 22.0 ],
									"restore" : [ 1000.0, 0.0, 1.0, 0.0, 0.0, 0, 0.0, 111.702126, 0.76, 0, 0.995, 180.851059, 0.0, 0, 0.0, 260.638306, 0.626667, 0, 0.0, 398.936157, 0.173333, 0, -0.995, 398.936157, 0.92, 0, 0.0, 510.638306, 0.653333, 0, -0.995, 510.638306, 0.0, 0, 0.0, 632.978699, 0.0, 0, 0.0, 712.76593, 0.413333, 0, 0.0, 845.74469, 0.0, 0, 0.0, 893.617004, 0.96, 0, 0.0, 1000.0, 0.0, 0, -0.905, "curve" ],
									"saved_object_attributes" : 									{
										"parameter_enable" : 0
									}
,
									"style" : "",
									"text" : "pattr /func/1",
									"varname" : "/func/1"
								}

							}
, 							{
								"box" : 								{
									"id" : "obj-24",
									"maxclass" : "button",
									"numinlets" : 1,
									"numoutlets" : 1,
									"outlettype" : [ "bang" ],
									"patching_rect" : [ 111.0, 12.723022, 24.0, 24.0 ],
									"style" : ""
								}

							}
, 							{
								"box" : 								{
									"id" : "obj-22",
									"linecount" : 3,
									"maxclass" : "newobj",
									"numinlets" : 1,
									"numoutlets" : 1,
									"outlettype" : [ "" ],
									"patching_rect" : [ 193.0, 37.223022, 100.0, 49.0 ],
									"saved_object_attributes" : 									{
										"client_rect" : [ 1057, 45, 1440, 407 ],
										"parameter_enable" : 0,
										"storage_rect" : [ 583, 69, 1034, 197 ]
									}
,
									"style" : "",
									"text" : "pattrstorage @outputmode 1 @notifymode 1",
									"varname" : "u133002564"
								}

							}
, 							{
								"box" : 								{
									"id" : "obj-23",
									"maxclass" : "newobj",
									"numinlets" : 2,
									"numoutlets" : 2,
									"outlettype" : [ "FullPacket", "dump" ],
									"patching_rect" : [ 111.0, 50.723022, 70.0, 22.0 ],
									"style" : "",
									"text" : "m158.o.gui"
								}

							}
, 							{
								"box" : 								{
									"addpoints_with_curve" : [ 0.0, 0.0, 0, 0.0, 111.702126, 0.76, 0, 0.995, 180.851059, 0.0, 0, 0.0, 260.638306, 0.626667, 0, 0.0, 398.936157, 0.173333, 0, -0.995, 398.936157, 0.92, 0, 0.0, 510.638306, 0.653333, 0, -0.995, 510.638306, 0.0, 0, 0.0, 632.978699, 0.0, 0, 0.0, 712.76593, 0.413333, 0, 0.0, 845.74469, 0.0, 0, 0.0, 893.617004, 0.96, 0, 0.0, 1000.0, 0.0, 0, -0.905 ],
									"id" : "obj-25",
									"linecolor" : [ 0.92549, 0.364706, 0.341176, 1.0 ],
									"maxclass" : "function",
									"mode" : 1,
									"numinlets" : 1,
									"numoutlets" : 4,
									"outlettype" : [ "float", "", "", "bang" ],
									"parameter_enable" : 0,
									"patching_rect" : [ 427.5, 329.5, 200.0, 100.0 ],
									"style" : "",
									"varname" : "function"
								}

							}
, 							{
								"box" : 								{
									"attr" : "mode",
									"id" : "obj-46",
									"maxclass" : "attrui",
									"numinlets" : 1,
									"numoutlets" : 1,
									"outlettype" : [ "" ],
									"patching_rect" : [ 485.5, 294.5, 150.0, 22.0 ],
									"style" : "",
									"text_width" : 68.0
								}

							}
, 							{
								"box" : 								{
									"id" : "obj-11",
									"linecount" : 9,
									"maxclass" : "comment",
									"numinlets" : 1,
									"numoutlets" : 0,
									"patching_rect" : [ 667.5, 431.223022, 402.0, 127.0 ],
									"style" : "",
									"text" : "left inlet: signal rate phase value 0-1\nright inlet: OSC\n\nleft outlet: signal rate Y value with or without interpolation\nmiddle outlet: signal rate relative phase\nright outlet: OSC\n\nnote: m158.o.points.phase~ is the same as m158.o.phase.points~ except that the left and middle outlets are switched."
								}

							}
, 							{
								"box" : 								{
									"id" : "obj-7",
									"linecount" : 21,
									"maxclass" : "comment",
									"numinlets" : 1,
									"numoutlets" : 0,
									"patching_rect" : [ 667.5, 122.223022, 420.0, 288.0 ],
									"style" : "",
									"text" : "Required argument: the base address name for lookup, where /x, and /y will be found as sub-addresses (typically generated with the m158.o.gui.function utility).\n\nA basename of /foo indicates that /foo/x and /foo/y should be found in the bundle. If a sub-address /curve is found, curved interpolation will be used (using the same algorithm as curve~).\n\nOptional attribute:\n\n@step -- if set to 1 the y point values will be held until the next point is reached in time, useful for discrete sequencing (internally, an end point is created for the final step).\n\n@beats -- if @step is 1, @beats 0 specifies that repeated y values should be interpreted as one note of a longer value.  @beats 1 (default) indicates that each step is an individual event.\n\n@normal_x -- if set to 1, the x point values are normalized to be 0-1 to work with m158.phase~ (default 1). If set to 0, x points remain at their original values."
								}

							}
, 							{
								"box" : 								{
									"id" : "obj-5",
									"linecount" : 4,
									"maxclass" : "comment",
									"numinlets" : 1,
									"numoutlets" : 0,
									"patching_rect" : [ 667.5, 55.5, 283.0, 60.0 ],
									"style" : "",
									"text" : "phase based lookup for an array of points, with optional linear and curve interpolation (like curve~) and stepped non-interpolating lookup for integer based arrays."
								}

							}
, 							{
								"box" : 								{
									"fontname" : "Arial Bold",
									"fontsize" : 18.0,
									"id" : "obj-1",
									"maxclass" : "comment",
									"numinlets" : 1,
									"numoutlets" : 0,
									"patching_rect" : [ 667.5, 26.5, 199.0, 27.0 ],
									"style" : "",
									"text" : "m158.o.points.phase~"
								}

							}
 ],
						"lines" : [ 							{
								"patchline" : 								{
									"destination" : [ "obj-17", 0 ],
									"disabled" : 0,
									"hidden" : 0,
									"source" : [ "obj-13", 0 ]
								}

							}
, 							{
								"patchline" : 								{
									"destination" : [ "obj-20", 0 ],
									"disabled" : 0,
									"hidden" : 0,
									"midpoints" : [ 138.0, 339.111511, 230.5, 339.111511 ],
									"source" : [ "obj-17", 0 ]
								}

							}
, 							{
								"patchline" : 								{
									"destination" : [ "obj-95", 2 ],
									"disabled" : 0,
									"hidden" : 0,
									"source" : [ "obj-17", 3 ]
								}

							}
, 							{
								"patchline" : 								{
									"destination" : [ "obj-95", 1 ],
									"disabled" : 0,
									"hidden" : 0,
									"midpoints" : [ 138.0, 339.111511, 214.75, 339.111511 ],
									"source" : [ "obj-17", 0 ]
								}

							}
, 							{
								"patchline" : 								{
									"destination" : [ "obj-13", 0 ],
									"disabled" : 0,
									"hidden" : 0,
									"source" : [ "obj-18", 0 ]
								}

							}
, 							{
								"patchline" : 								{
									"destination" : [ "obj-37", 0 ],
									"disabled" : 0,
									"hidden" : 0,
									"midpoints" : [ 120.5, 260.0, 27.0, 260.0, 27.0, 581.0, 158.199997, 581.0 ],
									"source" : [ "obj-18", 0 ]
								}

							}
, 							{
								"patchline" : 								{
									"destination" : [ "obj-95", 0 ],
									"disabled" : 0,
									"hidden" : 0,
									"source" : [ "obj-18", 0 ]
								}

							}
, 							{
								"patchline" : 								{
									"destination" : [ "obj-17", 3 ],
									"disabled" : 0,
									"hidden" : 0,
									"source" : [ "obj-19", 2 ]
								}

							}
, 							{
								"patchline" : 								{
									"destination" : [ "obj-18", 0 ],
									"disabled" : 0,
									"hidden" : 0,
									"source" : [ "obj-19", 0 ]
								}

							}
, 							{
								"patchline" : 								{
									"destination" : [ "obj-25", 0 ],
									"disabled" : 0,
									"hidden" : 0,
									"source" : [ "obj-21", 1 ]
								}

							}
, 							{
								"patchline" : 								{
									"destination" : [ "obj-23", 1 ],
									"disabled" : 0,
									"hidden" : 0,
									"source" : [ "obj-22", 0 ]
								}

							}
, 							{
								"patchline" : 								{
									"destination" : [ "obj-22", 0 ],
									"disabled" : 0,
									"hidden" : 0,
									"source" : [ "obj-23", 1 ]
								}

							}
, 							{
								"patchline" : 								{
									"destination" : [ "obj-36", 0 ],
									"disabled" : 0,
									"hidden" : 0,
									"source" : [ "obj-23", 0 ]
								}

							}
, 							{
								"patchline" : 								{
									"destination" : [ "obj-23", 0 ],
									"disabled" : 0,
									"hidden" : 0,
									"source" : [ "obj-24", 0 ]
								}

							}
, 							{
								"patchline" : 								{
									"destination" : [ "obj-52", 0 ],
									"disabled" : 0,
									"hidden" : 0,
									"source" : [ "obj-26", 1 ]
								}

							}
, 							{
								"patchline" : 								{
									"destination" : [ "obj-6", 0 ],
									"disabled" : 0,
									"hidden" : 0,
									"source" : [ "obj-3", 0 ]
								}

							}
, 							{
								"patchline" : 								{
									"destination" : [ "obj-19", 0 ],
									"disabled" : 0,
									"hidden" : 0,
									"source" : [ "obj-32", 0 ]
								}

							}
, 							{
								"patchline" : 								{
									"destination" : [ "obj-32", 0 ],
									"disabled" : 0,
									"hidden" : 0,
									"source" : [ "obj-36", 0 ]
								}

							}
, 							{
								"patchline" : 								{
									"destination" : [ "obj-6", 0 ],
									"disabled" : 0,
									"hidden" : 0,
									"source" : [ "obj-4", 0 ]
								}

							}
, 							{
								"patchline" : 								{
									"destination" : [ "obj-25", 0 ],
									"disabled" : 0,
									"hidden" : 0,
									"source" : [ "obj-46", 0 ]
								}

							}
, 							{
								"patchline" : 								{
									"destination" : [ "obj-91", 0 ],
									"disabled" : 0,
									"hidden" : 0,
									"source" : [ "obj-90", 1 ]
								}

							}
, 							{
								"patchline" : 								{
									"destination" : [ "obj-91", 0 ],
									"disabled" : 0,
									"hidden" : 0,
									"source" : [ "obj-92", 0 ]
								}

							}
, 							{
								"patchline" : 								{
									"destination" : [ "obj-8", 0 ],
									"disabled" : 0,
									"hidden" : 0,
									"midpoints" : [ 120.5, 506.611512, 158.199997, 506.611512 ],
									"source" : [ "obj-95", 0 ]
								}

							}
, 							{
								"patchline" : 								{
									"destination" : [ "obj-96", 0 ],
									"disabled" : 0,
									"hidden" : 0,
									"source" : [ "obj-95", 1 ]
								}

							}
 ]
					}
,
					"patching_rect" : [ 302.0, 153.776978, 49.0, 22.0 ],
					"saved_object_attributes" : 					{
						"description" : "",
						"digest" : "",
						"globalpatchername" : "",
						"style" : "",
						"tags" : ""
					}
,
					"style" : "",
					"text" : "p basic",
					"varname" : "basic"
				}

			}
 ],
		"lines" : [  ],
		"dependency_cache" : [ 			{
				"name" : "m158.o.gui.maxpat",
				"bootpath" : "~/Documents/Max 7/Packages/CNMAT-M158/patchers/gui",
				"type" : "JSON",
				"implicit" : 1
			}
, 			{
				"name" : "m158.loadbang.maxpat",
				"bootpath" : "~/Documents/Max 7/Packages/CNMAT-M158/patchers/internal",
				"type" : "JSON",
				"implicit" : 1
			}
, 			{
				"name" : "m158.o.points.phase~.maxpat",
				"bootpath" : "~/Documents/Max 7/Packages/CNMAT-M158/patchers/signal",
				"type" : "JSON",
				"implicit" : 1
			}
, 			{
				"name" : "phase.points.gendsp",
				"bootpath" : "~/Documents/Max 7/Packages/CNMAT-M158/code",
				"type" : "gDSP",
				"implicit" : 1
			}
, 			{
				"name" : "o.doc.handler.maxpat",
				"bootpath" : "~/Documents/Max 7/Packages/CNMAT-M158/patchers/internal",
				"type" : "JSON",
				"implicit" : 1
			}
, 			{
				"name" : "m158.phase.click~.maxpat",
				"bootpath" : "~/Documents/Max 7/Packages/CNMAT-M158/patchers/signal",
				"type" : "JSON",
				"implicit" : 1
			}
, 			{
				"name" : "delta.click2.gendsp",
				"bootpath" : "~/Documents/Max 7/Packages/CNMAT-M158/code",
				"type" : "gDSP",
				"implicit" : 1
			}
, 			{
				"name" : "m158.o.click.counter~.maxpat",
				"bootpath" : "~/Documents/Max 7/Packages/CNMAT-M158/patchers/signal",
				"type" : "JSON",
				"implicit" : 1
			}
, 			{
				"name" : "m158.o.num~.maxpat",
				"bootpath" : "~/Documents/Max 7/Packages/CNMAT-M158/patchers/signal",
				"type" : "JSON",
				"implicit" : 1
			}
, 			{
				"name" : "m158.o.click~.maxpat",
				"bootpath" : "~/Documents/Max 7/Packages/CNMAT-M158/patchers/signal",
				"type" : "JSON",
				"implicit" : 1
			}
, 			{
				"name" : "m158.phase~.maxpat",
				"bootpath" : "~/Documents/Max 7/Packages/CNMAT-M158/patchers/signal",
				"type" : "JSON",
				"implicit" : 1
			}
, 			{
				"name" : "shot-ms-phasor.gendsp",
				"bootpath" : "~/Documents/Max 7/Packages/CNMAT-M158/code",
				"type" : "gDSP",
				"implicit" : 1
			}
, 			{
				"name" : "m158.o.gui.function.maxpat",
				"bootpath" : "~/Documents/Max 7/Packages/CNMAT-M158/patchers/gui",
				"type" : "JSON",
				"implicit" : 1
			}
, 			{
				"name" : "o.gather.select.maxpat",
				"bootpath" : "~/Documents/Max 7/Packages/CNMAT-M158/patchers/gatherers",
				"type" : "JSON",
				"implicit" : 1
			}
, 			{
				"name" : "m158.o.gui.table.maxpat",
				"bootpath" : "~/Documents/Max 7/Packages/CNMAT-M158/patchers/gui",
				"type" : "JSON",
				"implicit" : 1
			}
, 			{
				"name" : "o.collect.mxo",
				"type" : "iLaX"
			}
, 			{
				"name" : "o.atomize.mxo",
				"type" : "iLaX"
			}
, 			{
				"name" : "o.prepend.mxo",
				"type" : "iLaX"
			}
, 			{
				"name" : "o.route.mxo",
				"type" : "iLaX"
			}
, 			{
				"name" : "o.union.mxo",
				"type" : "iLaX"
			}
, 			{
				"name" : "o.pack.mxo",
				"type" : "iLaX"
			}
, 			{
				"name" : "o.var.mxo",
				"type" : "iLaX"
			}
, 			{
				"name" : "o.change.mxo",
				"type" : "iLaX"
			}
, 			{
				"name" : "o.timetag.mxo",
				"type" : "iLaX"
			}
, 			{
				"name" : "o.expr.codebox.mxo",
				"type" : "iLaX"
			}
, 			{
				"name" : "o.if.mxo",
				"type" : "iLaX"
			}
, 			{
				"name" : "o.cond.mxo",
				"type" : "iLaX"
			}
, 			{
				"name" : "o.select.mxo",
				"type" : "iLaX"
			}
, 			{
				"name" : "o.compose.mxo",
				"type" : "iLaX"
			}
 ],
		"autosave" : 0,
		"bgfillcolor_type" : "gradient",
		"bgfillcolor_color1" : [ 0.376471, 0.384314, 0.4, 1.0 ],
		"bgfillcolor_color2" : [ 0.290196, 0.309804, 0.301961, 1.0 ],
		"bgfillcolor_color" : [ 0.290196, 0.309804, 0.301961, 1.0 ],
		"bgfillcolor_angle" : 270.0,
		"bgfillcolor_proportion" : 0.39
	}

}
