{
	"patcher" : 	{
		"fileversion" : 1,
		"appversion" : 		{
			"major" : 7,
			"minor" : 2,
			"revision" : 0,
			"architecture" : "x64",
			"modernui" : 1
		}
,
		"rect" : [ 173.0, 45.0, 1160.0, 838.0 ],
		"bglocked" : 0,
		"openinpresentation" : 0,
		"default_fontsize" : 12.0,
		"default_fontface" : 0,
		"default_fontname" : "Arial",
		"gridonopen" : 1,
		"gridsize" : [ 15.0, 15.0 ],
		"gridsnaponopen" : 1,
		"objectsnaponopen" : 1,
		"statusbarvisible" : 2,
		"toolbarvisible" : 1,
		"lefttoolbarpinned" : 0,
		"toptoolbarpinned" : 0,
		"righttoolbarpinned" : 0,
		"bottomtoolbarpinned" : 0,
		"toolbars_unpinned_last_save" : 15,
		"tallnewobj" : 0,
		"boxanimatetime" : 200,
		"enablehscroll" : 1,
		"enablevscroll" : 1,
		"devicewidth" : 0.0,
		"description" : "",
		"digest" : "",
		"tags" : "",
		"style" : "",
		"subpatcher_template" : "no-menus",
		"boxes" : [ 			{
				"box" : 				{
					"id" : "obj-15",
					"maxclass" : "newobj",
					"numinlets" : 1,
					"numoutlets" : 1,
					"outlettype" : [ "" ],
					"patching_rect" : [ 49.0, 780.0, 55.0, 22.0 ],
					"style" : "",
					"text" : "o.collect"
				}

			}
, 			{
				"box" : 				{
					"id" : "obj-13",
					"maxclass" : "newobj",
					"numinlets" : 1,
					"numoutlets" : 3,
					"outlettype" : [ "bang", "", "" ],
					"patching_rect" : [ 49.0, 52.0, 50.0, 22.0 ],
					"style" : "",
					"text" : "t b l l"
				}

			}
, 			{
				"box" : 				{
					"comment" : "",
					"id" : "obj-1",
					"maxclass" : "inlet",
					"numinlets" : 0,
					"numoutlets" : 1,
					"outlettype" : [ "" ],
					"patching_rect" : [ 49.0, 15.0, 30.0, 30.0 ],
					"style" : ""
				}

			}
, 			{
				"box" : 				{
					"comment" : "",
					"id" : "obj-3",
					"maxclass" : "outlet",
					"numinlets" : 1,
					"numoutlets" : 0,
					"patching_rect" : [ 49.0, 812.0, 30.0, 30.0 ],
					"style" : ""
				}

			}
, 			{
				"box" : 				{
					"id" : "obj-18",
					"maxclass" : "newobj",
					"numinlets" : 1,
					"numoutlets" : 2,
					"outlettype" : [ "", "FullPacket" ],
					"patching_rect" : [ 107.0, 85.0, 100.0, 22.0 ],
					"style" : "",
					"text" : "o.select /notes"
				}

			}
, 			{
				"box" : 				{
					"id" : "obj-14",
					"maxclass" : "newobj",
					"numinlets" : 1,
					"numoutlets" : 2,
					"outlettype" : [ "", "FullPacket" ],
					"patching_rect" : [ 107.0, 743.0, 81.0, 22.0 ],
					"style" : "",
					"text" : "o.select /midi"
				}

			}
, 			{
				"box" : 				{
					"fontface" : 0,
					"fontsize" : 11.0,
					"id" : "obj-2",
					"linecount" : 48,
					"maxclass" : "o.expr.codebox",
					"numinlets" : 1,
					"numoutlets" : 2,
					"outlettype" : [ "FullPacket", "FullPacket" ],
					"patching_rect" : [ 107.0, 115.0, 765.0, 616.0 ],
					"text" : "/names/lower = [\"c\", \"c#\", \"db\", \"d\", \"d#\", \"eb\", \"e\", \"f\", \"f#\", \"gb\", \"g\", \"g#\", \"ab\", \"a\", \"a#\", \"bb\", \"b\" ],\t\n/names/upper = [\"C\", \"C#\", \"Db\", \"D\", \"D#\", \"Eb\", \"E\", \"F\", \"F#\", \"Gb\", \"G\", \"G#\", \"Ab\", \"A\", \"A#\", \"Bb\", \"B\" ],\t\n/names/step = [0, 1, 1, 2, 3, 3, 4, 5, 6, 6, 7, 8, 8, 9, 10, 10, 11],\n/n = aseq(1, length(/names/step)),\n\n/midi = map(\n  lambda(n, \n    /tok = split(\":\", n ),\n    /letter = /tok[[0]],\n\n    /lower/test = /letter == /names/lower,\n    if( sum(/lower/test) > 0,\n      /step = /names/step[[ sum( /lower/test * /n ) - 1 ]],\n      progn(\n        /upper/test = /letter == /names/upper,\n        if( sum(/upper/test) > 0,\n          /step = /names/step[[ sum( /upper/test * /n ) - 1 ]]\n        )\n      )\n    ),\n\n    if( length(/tok) == 2,\n      progn(\n        /minus = split(\"-\", /tok[[1]]),\n        if( length(/minus) == 2,\n          progn( \n            /oct = float32(/minus[[0]]), \n            /cents = float32(\"-\"+/minus[[1]])\n          ),\n          progn(\n            /plus = split(\"+\", /tok[[1]]),\n            if( length(/plus) == 2,\n              progn( \n                /oct = float32(/plus[[0]]), \n                /cents = float32(/plus[[1]])\n              ),\n              progn( \n                /oct = float32(/tok[[1]]),\n                /cents = 0\n              )\n            )\n          )\n        )\n      )\n    ),\n    assign(\"/list/\"+i, [/step + (12*(/oct+1)) + (/cents * 0.01) ] ) \n  ), /notes\n)",
					"textcolor" : [ 0.0, 0.0, 0.0, 1.0 ]
				}

			}
 ],
		"lines" : [ 			{
				"patchline" : 				{
					"destination" : [ "obj-13", 0 ],
					"disabled" : 0,
					"hidden" : 0,
					"source" : [ "obj-1", 0 ]
				}

			}
, 			{
				"patchline" : 				{
					"destination" : [ "obj-15", 0 ],
					"disabled" : 0,
					"hidden" : 0,
					"source" : [ "obj-13", 2 ]
				}

			}
, 			{
				"patchline" : 				{
					"destination" : [ "obj-15", 0 ],
					"disabled" : 0,
					"hidden" : 0,
					"source" : [ "obj-13", 0 ]
				}

			}
, 			{
				"patchline" : 				{
					"destination" : [ "obj-18", 0 ],
					"disabled" : 0,
					"hidden" : 0,
					"source" : [ "obj-13", 1 ]
				}

			}
, 			{
				"patchline" : 				{
					"destination" : [ "obj-15", 0 ],
					"disabled" : 0,
					"hidden" : 0,
					"source" : [ "obj-14", 0 ]
				}

			}
, 			{
				"patchline" : 				{
					"destination" : [ "obj-3", 0 ],
					"disabled" : 0,
					"hidden" : 0,
					"source" : [ "obj-15", 0 ]
				}

			}
, 			{
				"patchline" : 				{
					"destination" : [ "obj-2", 0 ],
					"disabled" : 0,
					"hidden" : 0,
					"source" : [ "obj-18", 0 ]
				}

			}
, 			{
				"patchline" : 				{
					"destination" : [ "obj-14", 0 ],
					"disabled" : 0,
					"hidden" : 0,
					"source" : [ "obj-2", 0 ]
				}

			}
 ]
	}

}
