{
	"patcher" : 	{
		"fileversion" : 1,
		"appversion" : 		{
			"major" : 7,
			"minor" : 2,
			"revision" : 0,
			"architecture" : "x64",
			"modernui" : 1
		}
,
		"rect" : [ 188.0, 45.0, 1083.0, 855.0 ],
		"bglocked" : 0,
		"openinpresentation" : 0,
		"default_fontsize" : 12.0,
		"default_fontface" : 0,
		"default_fontname" : "Arial",
		"gridonopen" : 1,
		"gridsize" : [ 15.0, 15.0 ],
		"gridsnaponopen" : 1,
		"objectsnaponopen" : 1,
		"statusbarvisible" : 2,
		"toolbarvisible" : 1,
		"lefttoolbarpinned" : 0,
		"toptoolbarpinned" : 0,
		"righttoolbarpinned" : 0,
		"bottomtoolbarpinned" : 0,
		"toolbars_unpinned_last_save" : 15,
		"tallnewobj" : 0,
		"boxanimatetime" : 200,
		"enablehscroll" : 1,
		"enablevscroll" : 1,
		"devicewidth" : 0.0,
		"description" : "",
		"digest" : "",
		"tags" : "",
		"style" : "",
		"subpatcher_template" : "no-menus",
		"boxes" : [ 			{
				"box" : 				{
					"fontface" : 0,
					"fontsize" : 12.0,
					"id" : "obj-24",
					"linecount" : 2,
					"maxclass" : "o.compose",
					"numinlets" : 2,
					"numoutlets" : 1,
					"outlettype" : [ "" ],
					"patching_rect" : [ 199.5, 294.5, 303.0, 38.0 ],
					"presentation_rect" : [ 68.5, 290.0, 0.0, 0.0 ],
					"saved_bundle_data" : [ 35, 98, 117, 110, 100, 108, 101, 0, 0, 0, 0, 0, 0, 0, 0, 0, 0, 0, 0, 40, 47, 110, 111, 116, 101, 115, 0, 0, 44, 115, 115, 115, 0, 0, 0, 0, 99, 35, 58, 52, 0, 0, 0, 0, 101, 58, 52, 45, 49, 52, 0, 0, 103, 98, 58, 52, 43, 50, 0, 0, 0, 0, 0, 40, 47, 109, 105, 100, 105, 0, 0, 0, 44, 100, 100, 100, 0, 0, 0, 0, 64, 78, -128, 0, 0, 0, 0, 0, 64, 79, -18, 20, 122, -31, 71, -82, 64, 80, -127, 71, -82, 20, 122, -31 ],
					"saved_bundle_length" : 104,
					"text" : "/notes : [\"c#:4\", \"e:4-14\", \"gb:4+2\"],\n/midi : [61., 63.86, 66.02]",
					"textcolor" : [ 0.188, 0.188, 0.188, 1.0 ]
				}

			}
, 			{
				"box" : 				{
					"fontface" : 0,
					"fontsize" : 12.0,
					"id" : "obj-23",
					"linecount" : 2,
					"maxclass" : "o.display",
					"numinlets" : 1,
					"numoutlets" : 1,
					"outlettype" : [ "" ],
					"patching_rect" : [ 158.5, 447.0, 401.0, 48.0 ],
					"presentation_rect" : [ 146.5, 388.0, 0.0, 0.0 ],
					"text" : "/notes : [\"c#:4\", \"e:4-14\", \"f#:4+2\"],\n/midi : [61., 63.86, 66.02]",
					"textcolor" : [ 1.0, 1.0, 1.0, 1.0 ]
				}

			}
, 			{
				"box" : 				{
					"id" : "obj-22",
					"maxclass" : "newobj",
					"numinlets" : 1,
					"numoutlets" : 1,
					"outlettype" : [ "" ],
					"patching_rect" : [ 158.5, 385.0, 91.0, 22.0 ],
					"style" : "",
					"text" : "m158.o.mton"
				}

			}
, 			{
				"box" : 				{
					"id" : "obj-21",
					"maxclass" : "newobj",
					"numinlets" : 1,
					"numoutlets" : 1,
					"outlettype" : [ "" ],
					"patching_rect" : [ 158.5, 216.0, 91.0, 22.0 ],
					"style" : "",
					"text" : "m158.o.ntom"
				}

			}
, 			{
				"box" : 				{
					"id" : "obj-12",
					"maxclass" : "number",
					"numinlets" : 1,
					"numoutlets" : 2,
					"outlettype" : [ "", "bang" ],
					"parameter_enable" : 0,
					"patching_rect" : [ 655.0, 167.0, 50.0, 22.0 ],
					"style" : ""
				}

			}
, 			{
				"box" : 				{
					"format" : 5,
					"id" : "obj-10",
					"maxclass" : "number",
					"numinlets" : 1,
					"numoutlets" : 2,
					"outlettype" : [ "", "bang" ],
					"parameter_enable" : 0,
					"patching_rect" : [ 650.0, 127.0, 50.0, 22.0 ],
					"style" : ""
				}

			}
, 			{
				"box" : 				{
					"fontface" : 0,
					"fontsize" : 12.0,
					"id" : "obj-4",
					"linecount" : 2,
					"maxclass" : "o.compose",
					"numinlets" : 2,
					"numoutlets" : 1,
					"outlettype" : [ "" ],
					"patching_rect" : [ 318.5, 131.0, 282.0, 38.0 ],
					"presentation_rect" : [ 490.0, 31.0, 0.0, 0.0 ],
					"saved_bundle_data" : [ 35, 98, 117, 110, 100, 108, 101, 0, 0, 0, 0, 0, 0, 0, 0, 0, 0, 0, 0, 40, 47, 110, 111, 116, 101, 115, 0, 0, 44, 115, 115, 115, 0, 0, 0, 0, 99, 35, 58, 52, 0, 0, 0, 0, 101, 58, 52, 45, 49, 52, 0, 0, 103, 98, 58, 52, 43, 50, 0, 0 ],
					"saved_bundle_length" : 60,
					"text" : "/notes : [\"c#:4\", \"e:4-14\", \"gb:4+2\"]",
					"textcolor" : [ 0.188, 0.188, 0.188, 1.0 ]
				}

			}
, 			{
				"box" : 				{
					"fontface" : 0,
					"fontsize" : 12.0,
					"id" : "obj-1",
					"linecount" : 2,
					"maxclass" : "o.compose",
					"numinlets" : 2,
					"numoutlets" : 1,
					"outlettype" : [ "" ],
					"patching_rect" : [ 158.5, 127.0, 131.0, 38.0 ],
					"saved_bundle_data" : [ 35, 98, 117, 110, 100, 108, 101, 0, 0, 0, 0, 0, 0, 0, 0, 0, 0, 0, 0, 20, 47, 110, 111, 116, 101, 115, 0, 0, 44, 115, 0, 0, 98, 58, 51, 43, 49, 53, 0, 0 ],
					"saved_bundle_length" : 40,
					"text" : "/notes : \"b:3+15\"",
					"textcolor" : [ 0.188, 0.188, 0.188, 1.0 ]
				}

			}
 ],
		"lines" : [ 			{
				"patchline" : 				{
					"destination" : [ "obj-21", 0 ],
					"disabled" : 0,
					"hidden" : 0,
					"source" : [ "obj-1", 0 ]
				}

			}
, 			{
				"patchline" : 				{
					"destination" : [ "obj-12", 0 ],
					"disabled" : 0,
					"hidden" : 0,
					"source" : [ "obj-10", 0 ]
				}

			}
, 			{
				"patchline" : 				{
					"destination" : [ "obj-22", 0 ],
					"disabled" : 0,
					"hidden" : 0,
					"source" : [ "obj-21", 0 ]
				}

			}
, 			{
				"patchline" : 				{
					"destination" : [ "obj-24", 1 ],
					"disabled" : 0,
					"hidden" : 0,
					"source" : [ "obj-21", 0 ]
				}

			}
, 			{
				"patchline" : 				{
					"destination" : [ "obj-23", 0 ],
					"disabled" : 0,
					"hidden" : 0,
					"source" : [ "obj-22", 0 ]
				}

			}
, 			{
				"patchline" : 				{
					"destination" : [ "obj-22", 0 ],
					"disabled" : 0,
					"hidden" : 0,
					"source" : [ "obj-24", 0 ]
				}

			}
, 			{
				"patchline" : 				{
					"destination" : [ "obj-21", 0 ],
					"disabled" : 0,
					"hidden" : 0,
					"source" : [ "obj-4", 0 ]
				}

			}
 ],
		"dependency_cache" : [ 			{
				"name" : "m158.o.ntom.maxpat",
				"bootpath" : "~/Documents/dev-lib/CNMAT-Pedagogy/Music-158B-Spring2016/158b-spring16-o.wrappers/notes",
				"type" : "JSON",
				"implicit" : 1
			}
, 			{
				"name" : "m158.o.mton.maxpat",
				"bootpath" : "~/Documents/dev-lib/CNMAT-Pedagogy/Music-158B-Spring2016/158b-spring16-o.wrappers/notes",
				"type" : "JSON",
				"implicit" : 1
			}
, 			{
				"name" : "o.compose.mxo",
				"type" : "iLaX"
			}
, 			{
				"name" : "o.expr.codebox.mxo",
				"type" : "iLaX"
			}
, 			{
				"name" : "o.select.mxo",
				"type" : "iLaX"
			}
, 			{
				"name" : "o.collect.mxo",
				"type" : "iLaX"
			}
, 			{
				"name" : "o.display.mxo",
				"type" : "iLaX"
			}
 ],
		"autosave" : 0,
		"bgfillcolor_type" : "gradient",
		"bgfillcolor_color1" : [ 0.376471, 0.384314, 0.4, 1.0 ],
		"bgfillcolor_color2" : [ 0.290196, 0.309804, 0.301961, 1.0 ],
		"bgfillcolor_color" : [ 0.290196, 0.309804, 0.301961, 1.0 ],
		"bgfillcolor_angle" : 270.0,
		"bgfillcolor_proportion" : 0.39
	}

}
