{
	"patcher" : 	{
		"fileversion" : 1,
		"appversion" : 		{
			"major" : 7,
			"minor" : 3,
			"revision" : 3,
			"architecture" : "x64",
			"modernui" : 1
		}
,
		"rect" : [ 512.0, 45.0, 877.0, 802.0 ],
		"editing_bgcolor" : [ 0.9, 0.9, 0.9, 1.0 ],
		"bglocked" : 0,
		"openinpresentation" : 0,
		"default_fontsize" : 10.0,
		"default_fontface" : 0,
		"default_fontname" : "Arial",
		"gridonopen" : 1,
		"gridsize" : [ 15.0, 15.0 ],
		"gridsnaponopen" : 1,
		"objectsnaponopen" : 1,
		"statusbarvisible" : 2,
		"toolbarvisible" : 1,
		"lefttoolbarpinned" : 0,
		"toptoolbarpinned" : 0,
		"righttoolbarpinned" : 0,
		"bottomtoolbarpinned" : 0,
		"toolbars_unpinned_last_save" : 3,
		"tallnewobj" : 0,
		"boxanimatetime" : 200,
		"enablehscroll" : 1,
		"enablevscroll" : 1,
		"devicewidth" : 0.0,
		"description" : "",
		"digest" : "",
		"tags" : "",
		"style" : "",
		"subpatcher_template" : "",
		"boxes" : [ 			{
				"box" : 				{
					"id" : "obj-8",
					"maxclass" : "newobj",
					"numinlets" : 1,
					"numoutlets" : 0,
					"patching_rect" : [ 669.0, 749.0, 37.0, 20.0 ],
					"style" : "",
					"text" : "out 5"
				}

			}
, 			{
				"box" : 				{
					"id" : "obj-7",
					"maxclass" : "newobj",
					"numinlets" : 1,
					"numoutlets" : 0,
					"patching_rect" : [ 536.0, 749.0, 37.0, 20.0 ],
					"style" : "",
					"text" : "out 4"
				}

			}
, 			{
				"box" : 				{
					"id" : "obj-6",
					"maxclass" : "newobj",
					"numinlets" : 1,
					"numoutlets" : 0,
					"patching_rect" : [ 403.0, 749.0, 37.0, 20.0 ],
					"style" : "",
					"text" : "out 3"
				}

			}
, 			{
				"box" : 				{
					"id" : "obj-5",
					"maxclass" : "newobj",
					"numinlets" : 0,
					"numoutlets" : 1,
					"outlettype" : [ "" ],
					"patching_rect" : [ 582.0, 18.0, 34.0, 20.0 ],
					"style" : "",
					"text" : "in 2"
				}

			}
, 			{
				"box" : 				{
					"id" : "obj-2",
					"maxclass" : "newobj",
					"numinlets" : 1,
					"numoutlets" : 0,
					"patching_rect" : [ 206.0, 749.0, 37.0, 20.0 ],
					"style" : "",
					"text" : "out 2"
				}

			}
, 			{
				"box" : 				{
					"id" : "obj-1",
					"maxclass" : "newobj",
					"numinlets" : 0,
					"numoutlets" : 1,
					"outlettype" : [ "" ],
					"patching_rect" : [ 50.0, 14.0, 34.0, 20.0 ],
					"style" : "",
					"text" : "in 1"
				}

			}
, 			{
				"box" : 				{
					"code" : "expA(x0) // approx exp(x) (more accurate than 'fastexp()') from sm_filter_pack\n{\n\tx = 0.999996 + (0.031261316 + (0.00048274797 + 0.000006 * x0) * x0) * x0;\n\tx *= x; x *= x; x *= x; x *= x; x *= x;\n\treturn x;\n}\r\n\r\nHistory y_val, idx, phase, delta, points_len;\r\nBuffer xbuf(\"#0-x0\");\r\nBuffer ybuf(\"#0-y0\");\r\nBuffer cbuf(\"#0-c0\");\r\nParam interp(1);\r\nParam dspstate(0);\r\nParam updated(-1);\r\n\r\nnchannels = channels(xbuf);\r\n\r\nin_phase = in1;\r\nchannel = clip(in2, 0, nchannels-1);\r\n\r\n// if x position changes, check position and adjust index if necessary\r\nif( change(in_phase) || change(dspstate) || change(channel) || change(updated) ) \r\n{\r\n\tpoints_len = peek(xbuf, 0, channel, channels=1);\r\n\tmax_idx0 = points_len-1;\r\n\tmax_idx1 = points_len;\r\n\t\r\n\tx0 = peek(xbuf, clip(idx, 1, max_idx0), channel, channels=1);\r\n\tx1 = peek(xbuf, clip(idx+1, 1, max_idx1), channel, channels=1);\r\n\r\n\tif( in_phase < x0 ){\r\n\t\twhile( in_phase < x0 && idx > 1 ){\r\n\t\t\tidx -= 1;\r\n\t\t\tx0 = peek(xbuf, clip(idx, 1, max_idx0), channel, channels=1);\r\n\t\t}\r\n\t\t\r\n\t\tif( in_phase < x0 && idx <= 1 )\r\n\t\t\tx1 = x0;\r\n\t\telse\r\n\t\t\tx1 = peek(xbuf, clip(idx+1, 1, max_idx1), channel, channels=1);\r\n\r\n\t} else if( in_phase >= x1 )\t{\r\n\t\twhile( in_phase >= x1 && idx < points_len ){\r\n\t\t\tidx += 1;\r\n\t\t\tx1 = peek(xbuf, clip(idx+1, 1, max_idx1), channel, channels=1);\r\n\t\t}\r\n\t\t\r\n\t\tif( in_phase > x1 && idx >= points_len ) \r\n\t\t\tx0 = x1;\r\n\t\telse\r\n\t\t\tx0 = peek(xbuf, clip(idx, 1, max_idx0), channel, channels=1);\r\n\t}\r\n\t\r\n\tif( idx >= max_idx1 && x0 == x1 )\r\n\t{\r\n\t\tphase = 1;\r\n\t}\r\n\telse\r\n\t{\r\n\t\tphase = scale(in_phase, x0, x1, 0, 1);\r\n\t}\r\n\r\n\tidx = clip(idx, 1, max_idx0);\r\n\tdelta = x1 - x0;\r\n\r\n\tif( interp == 0 )\r\n\t{\r\n\t\ty_val = peek(ybuf, clip(idx, 1, max_idx0), channel, channels=1);\r\n\t}\r\n\telse\r\n\t{\r\n\t\t// get y positions and interpolate a la curve~ \r\n\t\ty0 = peek(ybuf, clip(idx, 1, max_idx0), channel, channels=1);\r\n\t\ty1 = peek(ybuf, clip(idx+1, 1, max_idx1), channel, channels=1);\r\n\t\trange = y1-y0;\r\n\t\t\r\n\t\tfp = peek(cbuf, clip(idx+1, 1, max_idx1), channel, channels=1);\r\n\t\r\n\t\tif( fp == 0 )\r\n\t\t\ty_val = y0 + phase*range;\r\n\t\telse {\r\n\t\t\tgp = (exp(fp * phase) - 1.) / (exp(fp) - 1.) ;\r\n\t\t\ty_val = y0 + gp*range;\r\n\t\t}\r\n\t}\r\n}\r\nout1 = y_val;\r\nout2 = phase;\r\nout3 = idx - 1;\r\nout4 = delta;\r\nout5 = points_len;",
					"fontface" : 0,
					"fontname" : "Arial",
					"fontsize" : 12.0,
					"id" : "obj-3",
					"maxclass" : "codebox",
					"numinlets" : 2,
					"numoutlets" : 5,
					"outlettype" : [ "", "", "", "", "" ],
					"patching_rect" : [ 50.0, 50.0, 712.0, 671.0 ],
					"style" : ""
				}

			}
, 			{
				"box" : 				{
					"hint" : "phase",
					"id" : "obj-4",
					"maxclass" : "newobj",
					"numinlets" : 1,
					"numoutlets" : 0,
					"patching_rect" : [ 50.0, 749.0, 37.0, 20.0 ],
					"style" : "",
					"text" : "out 1"
				}

			}
 ],
		"lines" : [ 			{
				"patchline" : 				{
					"destination" : [ "obj-3", 0 ],
					"disabled" : 0,
					"hidden" : 0,
					"source" : [ "obj-1", 0 ]
				}

			}
, 			{
				"patchline" : 				{
					"destination" : [ "obj-2", 0 ],
					"disabled" : 0,
					"hidden" : 0,
					"source" : [ "obj-3", 1 ]
				}

			}
, 			{
				"patchline" : 				{
					"destination" : [ "obj-4", 0 ],
					"disabled" : 0,
					"hidden" : 0,
					"source" : [ "obj-3", 0 ]
				}

			}
, 			{
				"patchline" : 				{
					"destination" : [ "obj-6", 0 ],
					"disabled" : 0,
					"hidden" : 0,
					"source" : [ "obj-3", 2 ]
				}

			}
, 			{
				"patchline" : 				{
					"destination" : [ "obj-7", 0 ],
					"disabled" : 0,
					"hidden" : 0,
					"source" : [ "obj-3", 3 ]
				}

			}
, 			{
				"patchline" : 				{
					"destination" : [ "obj-8", 0 ],
					"disabled" : 0,
					"hidden" : 0,
					"source" : [ "obj-3", 4 ]
				}

			}
, 			{
				"patchline" : 				{
					"destination" : [ "obj-3", 1 ],
					"disabled" : 0,
					"hidden" : 0,
					"source" : [ "obj-5", 0 ]
				}

			}
 ],
		"autosave" : 0
	}

}
