{
	"patcher" : 	{
		"fileversion" : 1,
		"appversion" : 		{
			"major" : 7,
			"minor" : 2,
			"revision" : 5,
			"architecture" : "x64",
			"modernui" : 1
		}
,
		"rect" : [ 456.0, 45.0, 678.0, 787.0 ],
		"editing_bgcolor" : [ 0.9, 0.9, 0.9, 1.0 ],
		"bglocked" : 0,
		"openinpresentation" : 0,
		"default_fontsize" : 10.0,
		"default_fontface" : 0,
		"default_fontname" : "Arial",
		"gridonopen" : 1,
		"gridsize" : [ 15.0, 15.0 ],
		"gridsnaponopen" : 1,
		"objectsnaponopen" : 1,
		"statusbarvisible" : 2,
		"toolbarvisible" : 1,
		"lefttoolbarpinned" : 0,
		"toptoolbarpinned" : 0,
		"righttoolbarpinned" : 0,
		"bottomtoolbarpinned" : 0,
		"toolbars_unpinned_last_save" : 3,
		"tallnewobj" : 0,
		"boxanimatetime" : 200,
		"enablehscroll" : 1,
		"enablevscroll" : 1,
		"devicewidth" : 0.0,
		"description" : "",
		"digest" : "",
		"tags" : "",
		"style" : "",
		"subpatcher_template" : "",
		"boxes" : [ 			{
				"box" : 				{
					"id" : "obj-2",
					"maxclass" : "newobj",
					"numinlets" : 1,
					"numoutlets" : 0,
					"patching_rect" : [ 582.0, 743.0, 37.0, 20.0 ],
					"style" : "",
					"text" : "out 2"
				}

			}
, 			{
				"box" : 				{
					"id" : "obj-1",
					"maxclass" : "newobj",
					"numinlets" : 0,
					"numoutlets" : 1,
					"outlettype" : [ "" ],
					"patching_rect" : [ 50.0, 14.0, 34.0, 20.0 ],
					"style" : "",
					"text" : "in 1"
				}

			}
, 			{
				"box" : 				{
					"code" : "History idx, phase;\r\nBuffer points(\"#0-xyc0\");\r\nParam dspstate(0);\r\npoints_len = dim(points);\r\nmax_idx0 = points_len-2;\r\nmax_idx1 = points_len-1;\r\n\r\n// if x position changes, check position and adjust index if necessary\r\nif( change(in1) || change(dspstate) ) {\r\n\tx0 = peek(points, clip(idx, 0, max_idx0), 0, channels=1);\r\n\tx1 = peek(points, clip(idx+1, 0, max_idx1), 0, channels=1);\r\n\r\n\tif( in1 < x0 ){\r\n\t\twhile( in1 < x0 && idx > 0 ){\r\n\t\t\tidx -= 1;\r\n\t\t\tx0 = peek(points, clip(idx, 0, max_idx0), 0, channels=1);\r\n\t\t}\r\n\t\t\r\n\t\tif( in1 < x0 && idx <= 0 )\r\n\t\t\tx1 = x0;\r\n\t\telse\r\n\t\t\tx1 = peek(points, clip(idx+1, 0, max_idx1), 0, channels=1);\r\n\r\n\t} else if( in1 >= x1 )\t{\r\n\t\twhile( in1 >= x1 && idx < points_len ){\r\n\t\t\tidx += 1;\r\n\t\t\tx1 = peek(points, clip(idx+1, 0, max_idx1), 0, channels=1);\r\n\t\t}\r\n\t\t\r\n\t\tif( in1 > x1 && idx >= points_len ) \r\n\t\t\tx0 = x1;\r\n\t\telse\r\n\t\t\tx0 = peek(points, clip(idx, 0, max_idx0), 0, channels=1);\r\n\t}\r\n\t\r\n\tif( idx >= max_idx1 && x0 == x1 )\r\n\t{\r\n\t\tphase = 1;\r\n\t}\r\n\telse\r\n\t{\r\n\t\tphase = scale(in1, x0, x1, 0, 1);\r\n\t}\r\n\r\n\tidx = clip(idx, 0, max_idx0);\r\n\r\n}\r\nout1 = phase;\r\nout2 = idx;",
					"fontface" : 0,
					"fontname" : "Arial",
					"fontsize" : 12.0,
					"id" : "obj-3",
					"maxclass" : "codebox",
					"numinlets" : 1,
					"numoutlets" : 2,
					"outlettype" : [ "", "" ],
					"patching_rect" : [ 50.0, 44.0, 551.0, 685.0 ],
					"style" : ""
				}

			}
, 			{
				"box" : 				{
					"hint" : "phase",
					"id" : "obj-4",
					"maxclass" : "newobj",
					"numinlets" : 1,
					"numoutlets" : 0,
					"patching_rect" : [ 50.0, 743.0, 37.0, 20.0 ],
					"style" : "",
					"text" : "out 1"
				}

			}
 ],
		"lines" : [ 			{
				"patchline" : 				{
					"destination" : [ "obj-3", 0 ],
					"disabled" : 0,
					"hidden" : 0,
					"source" : [ "obj-1", 0 ]
				}

			}
, 			{
				"patchline" : 				{
					"destination" : [ "obj-2", 0 ],
					"disabled" : 0,
					"hidden" : 0,
					"source" : [ "obj-3", 1 ]
				}

			}
, 			{
				"patchline" : 				{
					"destination" : [ "obj-4", 0 ],
					"disabled" : 0,
					"hidden" : 0,
					"source" : [ "obj-3", 0 ]
				}

			}
 ]
	}

}
