{
	"patcher" : 	{
		"fileversion" : 1,
		"appversion" : 		{
			"major" : 7,
			"minor" : 2,
			"revision" : 5,
			"architecture" : "x86",
			"modernui" : 1
		}
,
		"rect" : [ 51.0, 85.0, 595.0, 371.0 ],
		"bglocked" : 0,
		"openinpresentation" : 0,
		"default_fontsize" : 12.0,
		"default_fontface" : 0,
		"default_fontname" : "Arial",
		"gridonopen" : 1,
		"gridsize" : [ 15.0, 15.0 ],
		"gridsnaponopen" : 1,
		"objectsnaponopen" : 1,
		"statusbarvisible" : 2,
		"toolbarvisible" : 1,
		"lefttoolbarpinned" : 0,
		"toptoolbarpinned" : 0,
		"righttoolbarpinned" : 0,
		"bottomtoolbarpinned" : 0,
		"toolbars_unpinned_last_save" : 0,
		"tallnewobj" : 0,
		"boxanimatetime" : 200,
		"enablehscroll" : 1,
		"enablevscroll" : 1,
		"devicewidth" : 0.0,
		"description" : "",
		"digest" : "",
		"tags" : "",
		"style" : "",
		"subpatcher_template" : "Default Max 7",
		"boxes" : [ 			{
				"box" : 				{
					"fontface" : 1,
					"id" : "obj-8",
					"maxclass" : "comment",
					"numinlets" : 1,
					"numoutlets" : 0,
					"patching_rect" : [ 285.0, 32.0, 51.0, 20.0 ],
					"style" : "",
					"text" : "if()"
				}

			}
, 			{
				"box" : 				{
					"id" : "obj-1",
					"linecount" : 14,
					"maxclass" : "comment",
					"numinlets" : 1,
					"numoutlets" : 0,
					"patching_rect" : [ 285.0, 67.0, 283.0, 194.0 ],
					"style" : "",
					"text" : "conditionally execute < arg2 > or optional <arg 3> based on the result of < arg1 >.\nin other words, branch a program's execution based on the logical evaluation of the first argument.\n\narguments:\n\n1. if\n2. then\n3. (optional) else\n\nnote:  function can be used inline or can be assigned to a variable."
				}

			}
, 			{
				"box" : 				{
					"fontsize" : 11.0,
					"format" : 6,
					"id" : "obj-6",
					"maxclass" : "flonum",
					"maximum" : 1.0,
					"minimum" : 0.0,
					"numinlets" : 1,
					"numoutlets" : 2,
					"outlettype" : [ "", "bang" ],
					"parameter_enable" : 0,
					"patching_rect" : [ 32.0, 32.0, 73.0, 21.0 ],
					"style" : ""
				}

			}
, 			{
				"box" : 				{
					"fontsize" : 11.0,
					"id" : "obj-2",
					"maxclass" : "newobj",
					"numinlets" : 1,
					"numoutlets" : 1,
					"outlettype" : [ "FullPacket" ],
					"patching_rect" : [ 32.0, 66.0, 73.0, 21.0 ],
					"style" : "",
					"text" : "o.pack /input"
				}

			}
, 			{
				"box" : 				{
					"fontface" : 0,
					"fontsize" : 11.0,
					"id" : "obj-5",
					"linecount" : 3,
					"maxclass" : "o.display",
					"numinlets" : 1,
					"numoutlets" : 1,
					"outlettype" : [ "" ],
					"patching_rect" : [ 32.0, 270.0, 204.0, 58.0 ],
					"text" : "/input : 1.,\n/threshold/exceeded : false,\n/result : false",
					"textcolor" : [ 1.0, 1.0, 1.0, 1.0 ]
				}

			}
, 			{
				"box" : 				{
					"fontface" : 0,
					"fontsize" : 11.0,
					"id" : "obj-3",
					"linecount" : 11,
					"maxclass" : "o.expr.codebox",
					"numinlets" : 1,
					"numoutlets" : 2,
					"outlettype" : [ "FullPacket", "FullPacket" ],
					"patching_rect" : [ 32.0, 101.0, 217.0, 156.0 ],
					"text" : "if(\n  /input > 0.5, \n  /threshold/exceeded = true, \n  /threshold/exceeded = false\n),\n\n/result = if(\n  /input < 0.5, \n  /threshold/exceeded = true, \n  /threshold/exceeded = false\n)",
					"textcolor" : [ 0.0, 0.0, 0.0, 1.0 ]
				}

			}
 ],
		"lines" : [ 			{
				"patchline" : 				{
					"destination" : [ "obj-3", 0 ],
					"disabled" : 0,
					"hidden" : 0,
					"source" : [ "obj-2", 0 ]
				}

			}
, 			{
				"patchline" : 				{
					"destination" : [ "obj-5", 0 ],
					"disabled" : 0,
					"hidden" : 0,
					"source" : [ "obj-3", 0 ]
				}

			}
, 			{
				"patchline" : 				{
					"destination" : [ "obj-2", 0 ],
					"disabled" : 0,
					"hidden" : 0,
					"source" : [ "obj-6", 0 ]
				}

			}
 ],
		"dependency_cache" : [ 			{
				"name" : "o.expr.codebox.mxo",
				"type" : "iLaX"
			}
, 			{
				"name" : "o.display.mxo",
				"type" : "iLaX"
			}
, 			{
				"name" : "o.pack.mxo",
				"type" : "iLaX"
			}
 ],
		"autosave" : 0,
		"bgfillcolor_type" : "gradient",
		"bgfillcolor_color1" : [ 0.376471, 0.384314, 0.4, 1.0 ],
		"bgfillcolor_color2" : [ 0.290196, 0.309804, 0.301961, 1.0 ],
		"bgfillcolor_color" : [ 0.290196, 0.309804, 0.301961, 1.0 ],
		"bgfillcolor_angle" : 270.0,
		"bgfillcolor_proportion" : 0.39
	}

}
