{
	"patcher" : 	{
		"fileversion" : 1,
		"appversion" : 		{
			"major" : 7,
			"minor" : 3,
			"revision" : 4,
			"architecture" : "x64",
			"modernui" : 1
		}
,
		"rect" : [ 100.0, 170.0, 680.0, 605.0 ],
		"bglocked" : 0,
		"openinpresentation" : 0,
		"default_fontsize" : 12.0,
		"default_fontface" : 0,
		"default_fontname" : "Arial",
		"gridonopen" : 1,
		"gridsize" : [ 15.0, 15.0 ],
		"gridsnaponopen" : 1,
		"objectsnaponopen" : 1,
		"statusbarvisible" : 2,
		"toolbarvisible" : 1,
		"lefttoolbarpinned" : 0,
		"toptoolbarpinned" : 0,
		"righttoolbarpinned" : 0,
		"bottomtoolbarpinned" : 0,
		"toolbars_unpinned_last_save" : 0,
		"tallnewobj" : 0,
		"boxanimatetime" : 200,
		"enablehscroll" : 1,
		"enablevscroll" : 1,
		"devicewidth" : 0.0,
		"description" : "",
		"digest" : "",
		"tags" : "",
		"style" : "",
		"subpatcher_template" : "",
		"boxes" : [ 			{
				"box" : 				{
					"id" : "obj-22",
					"maxclass" : "comment",
					"numinlets" : 1,
					"numoutlets" : 0,
					"patching_rect" : [ 225.0, 59.666656, 73.0, 20.0 ],
					"style" : "",
					"text" : "introduction"
				}

			}
, 			{
				"box" : 				{
					"id" : "obj-20",
					"linecount" : 10,
					"maxclass" : "comment",
					"numinlets" : 1,
					"numoutlets" : 0,
					"patching_rect" : [ 41.666656, 383.766693, 269.0, 141.0 ],
					"style" : "",
					"text" : "On the left, you see the result. On the right, you can see \"relative phase,\" which are phase ramps generated for the duration of each point.\n\nIn practice, we can use the relative phase to drive the timing of each individual event. We can use o.phase.click~ to generate clicks once each event completes. We can also use the phase to drive other things: sub-sequences, timbre shapes, etc."
				}

			}
, 			{
				"box" : 				{
					"fontface" : 0,
					"fontsize" : 12.0,
					"id" : "obj-19",
					"linecount" : 2,
					"maxclass" : "o.compose",
					"numinlets" : 2,
					"numoutlets" : 1,
					"outlettype" : [ "" ],
					"patching_rect" : [ 436.666656, 153.0, 217.0, 38.0 ],
					"saved_bundle_data" : [ 35, 98, 117, 110, 100, 108, 101, 0, 0, 0, 0, 0, 0, 0, 0, 0, 0, 0, 0, 36, 47, 109, 121, 47, 97, 100, 100, 114, 101, 115, 115, 47, 120, 0, 0, 0, 44, 105, 105, 105, 0, 0, 0, 0, 0, 0, 0, 0, 0, 0, 0, 4, 0, 0, 0, 5, 0, 0, 0, 40, 47, 109, 121, 47, 97, 100, 100, 114, 101, 115, 115, 47, 121, 0, 0, 0, 44, 105, 105, 100, 0, 0, 0, 0, 0, 0, 0, 0, 0, 0, 0, 1, 63, -32, 0, 0, 0, 0, 0, 0 ],
					"saved_bundle_length" : 100,
					"text" : "/my/address/x : [0, 4, 5],\n/my/address/y : [0, 1, 0.5]",
					"textcolor" : [ 0.188, 0.188, 0.188, 1.0 ]
				}

			}
, 			{
				"box" : 				{
					"id" : "obj-17",
					"linecount" : 10,
					"maxclass" : "comment",
					"numinlets" : 1,
					"numoutlets" : 0,
					"patching_rect" : [ 322.0, 427.766693, 330.0, 141.0 ],
					"style" : "",
					"text" : "Those points may be written by hand (see above).\n\nThose points may be given to us by o.gui.* objects:\n\n* cnmat.o.gui.function\n* cnmat.o.gui.live.grid\n* cnmat.o.gui.table\n\nRegardless of where the points come from, their final representation will always yield an /x & /y subaddresses.\n"
				}

			}
, 			{
				"box" : 				{
					"id" : "obj-15",
					"linecount" : 16,
					"maxclass" : "comment",
					"numinlets" : 1,
					"numoutlets" : 0,
					"patching_rect" : [ 322.0, 204.766693, 330.0, 221.0 ],
					"style" : "",
					"text" : "cnmat.o.phase.points~ is used to retrieve point values from collections of x & y points.\n\nThe collection /something is represented by two addresses:\n\n/something/x -- contains TIME values\n/something/y -- contains DATA values\n\nBy default, phase.points~ will smoothly change from one y-value to another y-value.\n\nThe x-values, by default, are converted to proportions of the total time. Above, /x : [0, 1, 2] means that 0, 1, and 0.5 will be equidistant from each other. On the other hand, /x : [0, 4, 5] means that the resulting ramp will take 4 times as long to get from 0 to 1 as it would to get from 1 to 0.5."
				}

			}
, 			{
				"box" : 				{
					"format" : 6,
					"id" : "obj-14",
					"maxclass" : "flonum",
					"numinlets" : 1,
					"numoutlets" : 2,
					"outlettype" : [ "", "bang" ],
					"parameter_enable" : 0,
					"patching_rect" : [ 41.666656, 80.0, 50.0, 22.0 ],
					"style" : ""
				}

			}
, 			{
				"box" : 				{
					"id" : "obj-12",
					"maxclass" : "scope~",
					"numinlets" : 2,
					"numoutlets" : 0,
					"patching_rect" : [ 177.666656, 245.0, 130.0, 130.0 ],
					"style" : ""
				}

			}
, 			{
				"box" : 				{
					"id" : "obj-11",
					"maxclass" : "scope~",
					"numinlets" : 2,
					"numoutlets" : 0,
					"patching_rect" : [ 41.666656, 245.0, 130.0, 130.0 ],
					"style" : ""
				}

			}
, 			{
				"box" : 				{
					"id" : "obj-10",
					"maxclass" : "comment",
					"numinlets" : 1,
					"numoutlets" : 0,
					"patching_rect" : [ 106.666656, 120.0, 65.0, 20.0 ],
					"style" : "",
					"text" : "2 seconds"
				}

			}
, 			{
				"box" : 				{
					"id" : "obj-8",
					"maxclass" : "newobj",
					"numinlets" : 1,
					"numoutlets" : 1,
					"outlettype" : [ "signal" ],
					"patching_rect" : [ 41.666656, 119.0, 63.0, 22.0 ],
					"style" : "",
					"text" : "sig~ 2000"
				}

			}
, 			{
				"box" : 				{
					"id" : "obj-6",
					"maxclass" : "newobj",
					"numinlets" : 2,
					"numoutlets" : 4,
					"outlettype" : [ "signal", "signal", "signal", "" ],
					"patching_rect" : [ 41.666656, 161.0, 84.0, 22.0 ],
					"style" : "",
					"text" : "cnmat.phase~"
				}

			}
, 			{
				"box" : 				{
					"id" : "obj-5",
					"maxclass" : "newobj",
					"numinlets" : 1,
					"numoutlets" : 1,
					"outlettype" : [ "bang" ],
					"patching_rect" : [ 217.666656, 119.0, 60.0, 22.0 ],
					"style" : "",
					"text" : "loadbang"
				}

			}
, 			{
				"box" : 				{
					"fontface" : 0,
					"fontsize" : 12.0,
					"id" : "obj-2",
					"linecount" : 2,
					"maxclass" : "o.compose",
					"numinlets" : 2,
					"numoutlets" : 1,
					"outlettype" : [ "" ],
					"patching_rect" : [ 217.666656, 153.0, 217.0, 38.0 ],
					"saved_bundle_data" : [ 35, 98, 117, 110, 100, 108, 101, 0, 0, 0, 0, 0, 0, 0, 0, 0, 0, 0, 0, 36, 47, 109, 121, 47, 97, 100, 100, 114, 101, 115, 115, 47, 120, 0, 0, 0, 44, 105, 105, 105, 0, 0, 0, 0, 0, 0, 0, 0, 0, 0, 0, 1, 0, 0, 0, 2, 0, 0, 0, 40, 47, 109, 121, 47, 97, 100, 100, 114, 101, 115, 115, 47, 121, 0, 0, 0, 44, 105, 105, 100, 0, 0, 0, 0, 0, 0, 0, 0, 0, 0, 0, 1, 63, -32, 0, 0, 0, 0, 0, 0 ],
					"saved_bundle_length" : 100,
					"text" : "/my/address/x : [0, 1, 2],\n/my/address/y : [0, 1, 0.5]",
					"textcolor" : [ 0.188, 0.188, 0.188, 1.0 ]
				}

			}
, 			{
				"box" : 				{
					"id" : "obj-7",
					"maxclass" : "newobj",
					"numinlets" : 3,
					"numoutlets" : 6,
					"outlettype" : [ "signal", "signal", "signal", "signal", "signal", "" ],
					"patching_rect" : [ 41.666656, 204.766693, 197.0, 22.0 ],
					"style" : "",
					"text" : "cnmat.o.phase.points~ /my/address"
				}

			}
, 			{
				"box" : 				{
					"fontname" : "Arial Bold Italic",
					"fontsize" : 18.0,
					"id" : "obj-18",
					"maxclass" : "comment",
					"numinlets" : 1,
					"numoutlets" : 0,
					"patching_rect" : [ 33.0, 30.666656, 265.0, 27.0 ],
					"style" : "",
					"text" : "Music-and-Computing review: o.phase.points~"
				}

			}
 ],
		"lines" : [ 			{
				"patchline" : 				{
					"destination" : [ "obj-8", 0 ],
					"source" : [ "obj-14", 0 ]
				}

			}
, 			{
				"patchline" : 				{
					"destination" : [ "obj-7", 2 ],
					"source" : [ "obj-19", 0 ]
				}

			}
, 			{
				"patchline" : 				{
					"destination" : [ "obj-7", 2 ],
					"source" : [ "obj-2", 0 ]
				}

			}
, 			{
				"patchline" : 				{
					"destination" : [ "obj-2", 0 ],
					"source" : [ "obj-5", 0 ]
				}

			}
, 			{
				"patchline" : 				{
					"destination" : [ "obj-7", 0 ],
					"source" : [ "obj-6", 0 ]
				}

			}
, 			{
				"patchline" : 				{
					"destination" : [ "obj-11", 0 ],
					"source" : [ "obj-7", 0 ]
				}

			}
, 			{
				"patchline" : 				{
					"destination" : [ "obj-12", 0 ],
					"source" : [ "obj-7", 1 ]
				}

			}
, 			{
				"patchline" : 				{
					"destination" : [ "obj-6", 0 ],
					"source" : [ "obj-8", 0 ]
				}

			}
 ],
		"dependency_cache" : [ 			{
				"name" : "cnmat.o.phase.points~.maxpat",
				"bootpath" : "~/Documents/Max 7/Packages/Music-and-Computing/patchers/signal",
				"patcherrelativepath" : "../../../patchers/signal",
				"type" : "JSON",
				"implicit" : 1
			}
, 			{
				"name" : "cnmat.loadbang.maxpat",
				"bootpath" : "~/Documents/Max 7/Packages/Music-and-Computing/patchers/internal",
				"patcherrelativepath" : "../../../patchers/internal",
				"type" : "JSON",
				"implicit" : 1
			}
, 			{
				"name" : "phase.points.gendsp",
				"bootpath" : "~/Documents/Max 7/Packages/Music-and-Computing/code",
				"patcherrelativepath" : "../../../code",
				"type" : "gDSP",
				"implicit" : 1
			}
, 			{
				"name" : "o.doc.handler.maxpat",
				"bootpath" : "~/Documents/Max 7/Packages/Music-and-Computing/patchers/internal",
				"patcherrelativepath" : "../../../patchers/internal",
				"type" : "JSON",
				"implicit" : 1
			}
, 			{
				"name" : "cnmat.phase~.maxpat",
				"bootpath" : "~/Documents/Max 7/Packages/Music-and-Computing/patchers/signal",
				"patcherrelativepath" : "../../../patchers/signal",
				"type" : "JSON",
				"implicit" : 1
			}
, 			{
				"name" : "shot-ms-phasor.gendsp",
				"bootpath" : "~/Documents/Max 7/Packages/Music-and-Computing/code",
				"patcherrelativepath" : "../../../code",
				"type" : "gDSP",
				"implicit" : 1
			}
, 			{
				"name" : "o.expr.codebox.mxo",
				"type" : "iLaX"
			}
, 			{
				"name" : "o.collect.mxo",
				"type" : "iLaX"
			}
, 			{
				"name" : "o.if.mxo",
				"type" : "iLaX"
			}
, 			{
				"name" : "o.route.mxo",
				"type" : "iLaX"
			}
, 			{
				"name" : "o.union.mxo",
				"type" : "iLaX"
			}
, 			{
				"name" : "o.select.mxo",
				"type" : "iLaX"
			}
, 			{
				"name" : "o.pack.mxo",
				"type" : "iLaX"
			}
, 			{
				"name" : "o.cond.mxo",
				"type" : "iLaX"
			}
, 			{
				"name" : "o.prepend.mxo",
				"type" : "iLaX"
			}
, 			{
				"name" : "o.compose.mxo",
				"type" : "iLaX"
			}
 ],
		"autosave" : 0
	}

}
