{
	"patcher" : 	{
		"fileversion" : 1,
		"appversion" : 		{
			"major" : 7,
			"minor" : 2,
			"revision" : 5,
			"architecture" : "x86",
			"modernui" : 1
		}
,
		"rect" : [ 81.0, 138.0, 1283.0, 686.0 ],
		"bglocked" : 0,
		"openinpresentation" : 0,
		"default_fontsize" : 12.0,
		"default_fontface" : 0,
		"default_fontname" : "Arial",
		"gridonopen" : 2,
		"gridsize" : [ 15.0, 15.0 ],
		"gridsnaponopen" : 2,
		"objectsnaponopen" : 1,
		"statusbarvisible" : 2,
		"toolbarvisible" : 1,
		"lefttoolbarpinned" : 0,
		"toptoolbarpinned" : 0,
		"righttoolbarpinned" : 0,
		"bottomtoolbarpinned" : 0,
		"toolbars_unpinned_last_save" : 0,
		"tallnewobj" : 0,
		"boxanimatetime" : 200,
		"enablehscroll" : 1,
		"enablevscroll" : 1,
		"devicewidth" : 0.0,
		"description" : "",
		"digest" : "",
		"tags" : "",
		"style" : "",
		"subpatcher_template" : "gridded",
		"showontab" : 1,
		"boxes" : [ 			{
				"box" : 				{
					"id" : "obj-47",
					"maxclass" : "newobj",
					"numinlets" : 0,
					"numoutlets" : 0,
					"patcher" : 					{
						"fileversion" : 1,
						"appversion" : 						{
							"major" : 7,
							"minor" : 2,
							"revision" : 5,
							"architecture" : "x86",
							"modernui" : 1
						}
,
						"rect" : [ 0.0, 26.0, 1283.0, 660.0 ],
						"bglocked" : 0,
						"openinpresentation" : 0,
						"default_fontsize" : 12.0,
						"default_fontface" : 0,
						"default_fontname" : "Arial",
						"gridonopen" : 1,
						"gridsize" : [ 15.0, 15.0 ],
						"gridsnaponopen" : 1,
						"objectsnaponopen" : 1,
						"statusbarvisible" : 2,
						"toolbarvisible" : 1,
						"lefttoolbarpinned" : 0,
						"toptoolbarpinned" : 0,
						"righttoolbarpinned" : 0,
						"bottomtoolbarpinned" : 0,
						"toolbars_unpinned_last_save" : 0,
						"tallnewobj" : 0,
						"boxanimatetime" : 200,
						"enablehscroll" : 1,
						"enablevscroll" : 1,
						"devicewidth" : 0.0,
						"description" : "",
						"digest" : "",
						"tags" : "",
						"style" : "",
						"subpatcher_template" : "gridded",
						"showontab" : 1,
						"boxes" : [ 							{
								"box" : 								{
									"fontname" : "Arial",
									"fontsize" : 12.0,
									"id" : "obj-450",
									"maxclass" : "message",
									"numinlets" : 2,
									"numoutlets" : 1,
									"outlettype" : [ "" ],
									"patching_rect" : [ 417.0, 168.0, 75.0, 22.0 ],
									"style" : "",
									"text" : "doc-func list",
									"varname" : "msgeval[1]"
								}

							}
, 							{
								"box" : 								{
									"fontface" : 0,
									"fontsize" : 12.0,
									"id" : "obj-3",
									"linecount" : 8,
									"maxclass" : "o.display",
									"numinlets" : 1,
									"numoutlets" : 1,
									"outlettype" : [ "" ],
									"patching_rect" : [ 417.0, 259.0, 553.0, 129.0 ],
									"text" : "/doc/function/name : \"list\",\n/doc/function/signature : \"/result = list($1, $2)\",\n/doc/function/docstring : \"Assemble the arguments into a list.\",\n/doc/function/num_required_args : 0,\n/doc/function/num_optional_args : -1,\n/doc/function/arg/optional/name/1 : \"elements to be gathered into a list\",\n/doc/function/arg/optional/types/1 : \"number, list, string, OSC address\",\n/doc/function/categories : \"/vector\"",
									"textcolor" : [ 1.0, 1.0, 1.0, 1.0 ]
								}

							}
, 							{
								"box" : 								{
									"fontface" : 0,
									"fontsize" : 12.0,
									"id" : "obj-1",
									"maxclass" : "o.expr.codebox",
									"numinlets" : 1,
									"numoutlets" : 2,
									"outlettype" : [ "FullPacket", "FullPacket" ],
									"patching_rect" : [ 417.0, 209.0, 150.0, 30.0 ],
									"textcolor" : [ 0.0, 0.0, 0.0, 1.0 ]
								}

							}
 ],
						"lines" : [ 							{
								"patchline" : 								{
									"destination" : [ "obj-3", 0 ],
									"disabled" : 0,
									"hidden" : 0,
									"source" : [ "obj-1", 0 ]
								}

							}
, 							{
								"patchline" : 								{
									"destination" : [ "obj-1", 0 ],
									"disabled" : 0,
									"hidden" : 0,
									"source" : [ "obj-450", 0 ]
								}

							}
 ]
					}
,
					"patching_rect" : [ 230.957153, 332.0, 35.0, 22.0 ],
					"presentation_rect" : [ 235.428589, 332.0, 0.0, 0.0 ],
					"saved_object_attributes" : 					{
						"description" : "",
						"digest" : "",
						"globalpatchername" : "",
						"style" : "",
						"tags" : ""
					}
,
					"style" : "",
					"text" : "p list"
				}

			}
, 			{
				"box" : 				{
					"id" : "obj-46",
					"maxclass" : "newobj",
					"numinlets" : 0,
					"numoutlets" : 0,
					"patcher" : 					{
						"fileversion" : 1,
						"appversion" : 						{
							"major" : 7,
							"minor" : 2,
							"revision" : 5,
							"architecture" : "x86",
							"modernui" : 1
						}
,
						"rect" : [ 0.0, 26.0, 1283.0, 660.0 ],
						"bglocked" : 0,
						"openinpresentation" : 0,
						"default_fontsize" : 12.0,
						"default_fontface" : 0,
						"default_fontname" : "Arial",
						"gridonopen" : 1,
						"gridsize" : [ 15.0, 15.0 ],
						"gridsnaponopen" : 1,
						"objectsnaponopen" : 1,
						"statusbarvisible" : 2,
						"toolbarvisible" : 1,
						"lefttoolbarpinned" : 0,
						"toptoolbarpinned" : 0,
						"righttoolbarpinned" : 0,
						"bottomtoolbarpinned" : 0,
						"toolbars_unpinned_last_save" : 0,
						"tallnewobj" : 0,
						"boxanimatetime" : 200,
						"enablehscroll" : 1,
						"enablevscroll" : 1,
						"devicewidth" : 0.0,
						"description" : "",
						"digest" : "",
						"tags" : "",
						"style" : "",
						"subpatcher_template" : "gridded",
						"showontab" : 1,
						"boxes" : [ 							{
								"box" : 								{
									"fontface" : 0,
									"fontsize" : 11.0,
									"id" : "obj-23",
									"linecount" : 5,
									"maxclass" : "o.display",
									"numinlets" : 1,
									"numoutlets" : 1,
									"outlettype" : [ "" ],
									"patching_rect" : [ 366.0, 405.0, 244.0, 83.0 ],
									"text" : "/param/1 : [1, 3, 5],\n/param/2 : [1, 2, 3],\n/addys : [\"/param/1\", \"/param/2\"],\n/index : 1,\n/pulled/val : [1, 2, 3]",
									"textcolor" : [ 1.0, 1.0, 1.0, 1.0 ]
								}

							}
, 							{
								"box" : 								{
									"fontface" : 0,
									"fontsize" : 11.0,
									"id" : "obj-21",
									"linecount" : 3,
									"maxclass" : "o.expr.codebox",
									"numinlets" : 1,
									"numoutlets" : 2,
									"outlettype" : [ "FullPacket", "FullPacket" ],
									"patching_rect" : [ 366.0, 323.0, 257.0, 56.0 ],
									"text" : "/addys = getaddresses(), \n/index = 1,\n/pulled/val = value(/addys[[/index]])",
									"textcolor" : [ 0.0, 0.0, 0.0, 1.0 ]
								}

							}
, 							{
								"box" : 								{
									"fontsize" : 11.0,
									"id" : "obj-42",
									"linecount" : 2,
									"maxclass" : "comment",
									"numinlets" : 1,
									"numoutlets" : 0,
									"patching_rect" : [ 548.0, 254.5, 67.0, 31.0 ],
									"presentation_rect" : [ 287.0, 253.5, 0.0, 0.0 ],
									"style" : "",
									"text" : "assign() is similar to ="
								}

							}
, 							{
								"box" : 								{
									"id" : "obj-41",
									"maxclass" : "newobj",
									"numinlets" : 0,
									"numoutlets" : 0,
									"patcher" : 									{
										"fileversion" : 1,
										"appversion" : 										{
											"major" : 7,
											"minor" : 2,
											"revision" : 5,
											"architecture" : "x86",
											"modernui" : 1
										}
,
										"rect" : [ 0.0, 0.0, 640.0, 480.0 ],
										"bglocked" : 0,
										"openinpresentation" : 0,
										"default_fontsize" : 12.0,
										"default_fontface" : 0,
										"default_fontname" : "Arial",
										"gridonopen" : 1,
										"gridsize" : [ 15.0, 15.0 ],
										"gridsnaponopen" : 1,
										"objectsnaponopen" : 1,
										"statusbarvisible" : 2,
										"toolbarvisible" : 1,
										"lefttoolbarpinned" : 0,
										"toptoolbarpinned" : 0,
										"righttoolbarpinned" : 0,
										"bottomtoolbarpinned" : 0,
										"toolbars_unpinned_last_save" : 0,
										"tallnewobj" : 0,
										"boxanimatetime" : 200,
										"enablehscroll" : 1,
										"enablevscroll" : 1,
										"devicewidth" : 0.0,
										"description" : "",
										"digest" : "",
										"tags" : "",
										"style" : "",
										"subpatcher_template" : "gridded",
										"boxes" : [ 											{
												"box" : 												{
													"fontsize" : 11.0,
													"id" : "obj-37",
													"maxclass" : "comment",
													"numinlets" : 1,
													"numoutlets" : 0,
													"patching_rect" : [ 130.5, 100.0, 67.0, 19.0 ],
													"style" : "",
													"text" : "assignment"
												}

											}
, 											{
												"box" : 												{
													"fontface" : 0,
													"fontsize" : 12.0,
													"id" : "obj-38",
													"maxclass" : "o.display",
													"numinlets" : 1,
													"numoutlets" : 1,
													"outlettype" : [ "" ],
													"patching_rect" : [ 50.0, 205.0, 157.0, 34.0 ],
													"textcolor" : [ 1.0, 1.0, 1.0, 1.0 ]
												}

											}
, 											{
												"box" : 												{
													"id" : "obj-39",
													"maxclass" : "newobj",
													"numinlets" : 1,
													"numoutlets" : 1,
													"outlettype" : [ "bang" ],
													"patching_rect" : [ 50.0, 100.0, 60.0, 22.0 ],
													"style" : "",
													"text" : "loadbang"
												}

											}
, 											{
												"box" : 												{
													"fontface" : 0,
													"fontsize" : 11.0,
													"id" : "obj-40",
													"linecount" : 3,
													"maxclass" : "o.expr.codebox",
													"numinlets" : 1,
													"numoutlets" : 2,
													"outlettype" : [ "FullPacket", "FullPacket" ],
													"patching_rect" : [ 50.0, 132.0, 191.0, 56.0 ],
													"text" : "/name = \"/my/name\",\n/data = [1, 3, 6],\nassign(value(/name), /data)",
													"textcolor" : [ 0.0, 0.0, 0.0, 1.0 ]
												}

											}
 ],
										"lines" : [ 											{
												"patchline" : 												{
													"destination" : [ "obj-40", 0 ],
													"disabled" : 0,
													"hidden" : 0,
													"source" : [ "obj-39", 0 ]
												}

											}
, 											{
												"patchline" : 												{
													"destination" : [ "obj-38", 0 ],
													"disabled" : 0,
													"hidden" : 0,
													"source" : [ "obj-40", 0 ]
												}

											}
 ]
									}
,
									"patching_rect" : [ 45.0, 450.0, 191.0, 22.0 ],
									"saved_object_attributes" : 									{
										"description" : "",
										"digest" : "",
										"globalpatchername" : "",
										"style" : "",
										"tags" : ""
									}
,
									"style" : "",
									"text" : "p"
								}

							}
, 							{
								"box" : 								{
									"fontsize" : 11.0,
									"id" : "obj-36",
									"maxclass" : "comment",
									"numinlets" : 1,
									"numoutlets" : 0,
									"patching_rect" : [ 548.0, 73.0, 67.0, 19.0 ],
									"style" : "",
									"text" : "value"
								}

							}
, 							{
								"box" : 								{
									"id" : "obj-35",
									"maxclass" : "newobj",
									"numinlets" : 0,
									"numoutlets" : 0,
									"patcher" : 									{
										"fileversion" : 1,
										"appversion" : 										{
											"major" : 7,
											"minor" : 2,
											"revision" : 5,
											"architecture" : "x86",
											"modernui" : 1
										}
,
										"rect" : [ 84.0, 129.0, 846.0, 498.0 ],
										"bglocked" : 0,
										"openinpresentation" : 0,
										"default_fontsize" : 12.0,
										"default_fontface" : 0,
										"default_fontname" : "Arial",
										"gridonopen" : 1,
										"gridsize" : [ 15.0, 15.0 ],
										"gridsnaponopen" : 1,
										"objectsnaponopen" : 1,
										"statusbarvisible" : 2,
										"toolbarvisible" : 1,
										"lefttoolbarpinned" : 0,
										"toptoolbarpinned" : 0,
										"righttoolbarpinned" : 0,
										"bottomtoolbarpinned" : 0,
										"toolbars_unpinned_last_save" : 0,
										"tallnewobj" : 0,
										"boxanimatetime" : 200,
										"enablehscroll" : 1,
										"enablevscroll" : 1,
										"devicewidth" : 0.0,
										"description" : "",
										"digest" : "",
										"tags" : "",
										"style" : "",
										"subpatcher_template" : "gridded",
										"boxes" : [ 											{
												"box" : 												{
													"fontface" : 0,
													"fontsize" : 11.0,
													"id" : "obj-25",
													"maxclass" : "o.display",
													"numinlets" : 1,
													"numoutlets" : 1,
													"outlettype" : [ "" ],
													"patching_rect" : [ 333.0, 386.0, 244.0, 33.0 ],
													"textcolor" : [ 1.0, 1.0, 1.0, 1.0 ]
												}

											}
, 											{
												"box" : 												{
													"fontface" : 0,
													"fontsize" : 11.0,
													"id" : "obj-26",
													"linecount" : 2,
													"maxclass" : "o.expr.codebox",
													"numinlets" : 1,
													"numoutlets" : 2,
													"outlettype" : [ "FullPacket", "FullPacket" ],
													"patching_rect" : [ 333.0, 304.0, 462.0, 43.0 ],
													"text" : "/idx = aseq(0, length(/addys) - 1),\nmap(lambda([l,i], assign(\"/new\"+i, /addys[[i]] + 10)), /addys, /idx)",
													"textcolor" : [ 0.0, 0.0, 0.0, 1.0 ]
												}

											}
, 											{
												"box" : 												{
													"id" : "obj-24",
													"maxclass" : "newobj",
													"numinlets" : 1,
													"numoutlets" : 2,
													"outlettype" : [ "", "FullPacket" ],
													"patching_rect" : [ 333.0, 250.0, 105.0, 22.0 ],
													"style" : "",
													"text" : "o.route /pulled/val"
												}

											}
, 											{
												"box" : 												{
													"fontface" : 0,
													"fontsize" : 11.0,
													"id" : "obj-23",
													"maxclass" : "o.display",
													"numinlets" : 1,
													"numoutlets" : 1,
													"outlettype" : [ "" ],
													"patching_rect" : [ 50.0, 250.0, 244.0, 33.0 ],
													"textcolor" : [ 1.0, 1.0, 1.0, 1.0 ]
												}

											}
, 											{
												"box" : 												{
													"fontface" : 0,
													"fontsize" : 11.0,
													"id" : "obj-21",
													"linecount" : 3,
													"maxclass" : "o.expr.codebox",
													"numinlets" : 1,
													"numoutlets" : 2,
													"outlettype" : [ "FullPacket", "FullPacket" ],
													"patching_rect" : [ 50.0, 168.0, 257.0, 56.0 ],
													"text" : "/addys = getaddresses(), \n/index = 1,\n/pulled/val = value(/addys[[/index]])",
													"textcolor" : [ 0.0, 0.0, 0.0, 1.0 ]
												}

											}
, 											{
												"box" : 												{
													"fontface" : 0,
													"fontsize" : 11.0,
													"id" : "obj-17",
													"linecount" : 3,
													"maxclass" : "o.compose",
													"numinlets" : 2,
													"numoutlets" : 1,
													"outlettype" : [ "" ],
													"patching_rect" : [ 50.0, 100.0, 102.0, 48.0 ],
													"saved_bundle_data" : [ 35, 98, 117, 110, 100, 108, 101, 0, 0, 0, 0, 0, 0, 0, 0, 0, 0, 0, 0, 16, 47, 102, 111, 111, 0, 0, 0, 0, 44, 105, 0, 0, 0, 0, 0, 123, 0, 0, 0, 16, 47, 102, 101, 101, 0, 0, 0, 0, 44, 105, 0, 0, 0, 0, 1, -56, 0, 0, 0, 16, 47, 102, 97, 104, 0, 0, 0, 0, 44, 105, 0, 0, 0, 0, 3, 21 ],
													"saved_bundle_length" : 76,
													"text" : "/foo : 123,\n/fee : 456,\n/fah : 789",
													"textcolor" : [ 0.188, 0.188, 0.188, 1.0 ]
												}

											}
 ],
										"lines" : [ 											{
												"patchline" : 												{
													"destination" : [ "obj-21", 0 ],
													"disabled" : 0,
													"hidden" : 0,
													"source" : [ "obj-17", 0 ]
												}

											}
, 											{
												"patchline" : 												{
													"destination" : [ "obj-23", 0 ],
													"disabled" : 0,
													"hidden" : 0,
													"source" : [ "obj-21", 0 ]
												}

											}
, 											{
												"patchline" : 												{
													"destination" : [ "obj-24", 0 ],
													"disabled" : 0,
													"hidden" : 0,
													"source" : [ "obj-21", 0 ]
												}

											}
, 											{
												"patchline" : 												{
													"destination" : [ "obj-26", 0 ],
													"disabled" : 0,
													"hidden" : 0,
													"source" : [ "obj-24", 1 ]
												}

											}
, 											{
												"patchline" : 												{
													"destination" : [ "obj-25", 0 ],
													"disabled" : 0,
													"hidden" : 0,
													"source" : [ "obj-26", 0 ]
												}

											}
 ]
									}
,
									"patching_rect" : [ 56.0, 509.0, 284.0, 22.0 ],
									"saved_object_attributes" : 									{
										"description" : "",
										"digest" : "",
										"globalpatchername" : "",
										"style" : "",
										"tags" : ""
									}
,
									"style" : "",
									"text" : "p more complicated scenario integrating lots of stuff"
								}

							}
, 							{
								"box" : 								{
									"fontsize" : 11.0,
									"id" : "obj-15",
									"maxclass" : "comment",
									"numinlets" : 1,
									"numoutlets" : 0,
									"patching_rect" : [ 517.0, 168.5, 67.0, 19.0 ],
									"presentation_rect" : [ 368.0, 77.0, 0.0, 0.0 ],
									"style" : "",
									"text" : "assignment"
								}

							}
, 							{
								"box" : 								{
									"fontface" : 0,
									"fontsize" : 12.0,
									"id" : "obj-14",
									"linecount" : 2,
									"maxclass" : "o.display",
									"numinlets" : 1,
									"numoutlets" : 1,
									"outlettype" : [ "" ],
									"patching_rect" : [ 366.0, 254.5, 171.0, 48.0 ],
									"text" : "/param/1 : [1, 3, 5],\n/param/2 : [1, 2, 3]",
									"textcolor" : [ 1.0, 1.0, 1.0, 1.0 ]
								}

							}
, 							{
								"box" : 								{
									"id" : "obj-13",
									"maxclass" : "newobj",
									"numinlets" : 1,
									"numoutlets" : 1,
									"outlettype" : [ "bang" ],
									"patching_rect" : [ 366.0, 168.5, 60.0, 22.0 ],
									"style" : "",
									"text" : "loadbang"
								}

							}
, 							{
								"box" : 								{
									"fontface" : 0,
									"fontsize" : 11.0,
									"id" : "obj-12",
									"linecount" : 2,
									"maxclass" : "o.expr.codebox",
									"numinlets" : 1,
									"numoutlets" : 2,
									"outlettype" : [ "FullPacket", "FullPacket" ],
									"patching_rect" : [ 366.0, 200.5, 218.0, 43.0 ],
									"presentation_rect" : [ 366.0, 226.0, 0.0, 0.0 ],
									"text" : "assign(\"/param/1\", [1, 3, 5]),\n/param/2 = [1, 2, 3]",
									"textcolor" : [ 0.0, 0.0, 0.0, 1.0 ]
								}

							}
, 							{
								"box" : 								{
									"fontface" : 0,
									"fontsize" : 11.0,
									"id" : "obj-11",
									"linecount" : 2,
									"maxclass" : "o.compose",
									"numinlets" : 2,
									"numoutlets" : 1,
									"outlettype" : [ "" ],
									"patching_rect" : [ 1076.0, 99.0, 115.0, 35.0 ],
									"presentation_rect" : [ 507.0, 136.0, 0.0, 0.0 ],
									"saved_bundle_data" : [ 35, 98, 117, 110, 100, 108, 101, 0, 0, 0, 0, 0, 0, 0, 0, 0, 0, 0, 0, 16, 47, 102, 111, 111, 0, 0, 0, 0, 44, 105, 0, 0, 0, 0, 1, 44, 0, 0, 0, 20, 47, 98, 117, 110, 100, 108, 101, 47, 109, 101, 109, 98, 101, 114, 0, 0, 44, 0, 0, 0 ],
									"saved_bundle_length" : 60,
									"text" : "/foo : 300,\n/bundle/member",
									"textcolor" : [ 0.188, 0.188, 0.188, 1.0 ]
								}

							}
, 							{
								"box" : 								{
									"fontface" : 0,
									"fontsize" : 11.0,
									"id" : "obj-7",
									"linecount" : 3,
									"maxclass" : "o.display",
									"numinlets" : 1,
									"numoutlets" : 1,
									"outlettype" : [ "" ],
									"patching_rect" : [ 777.0, 509.0, 237.0, 58.0 ],
									"presentation_rect" : [ 191.0, 541.0, 0.0, 0.0 ],
									"text" : "/foo : 300,\n/bundle/member,\n/post : \"bundle member is unbound\"",
									"textcolor" : [ 1.0, 1.0, 1.0, 1.0 ]
								}

							}
, 							{
								"box" : 								{
									"fontface" : 0,
									"fontsize" : 11.0,
									"id" : "obj-8",
									"linecount" : 2,
									"maxclass" : "o.compose",
									"numinlets" : 2,
									"numoutlets" : 1,
									"outlettype" : [ "" ],
									"patching_rect" : [ 777.0, 350.0, 115.0, 35.0 ],
									"presentation_rect" : [ 191.0, 379.0, 0.0, 0.0 ],
									"saved_bundle_data" : [ 35, 98, 117, 110, 100, 108, 101, 0, 0, 0, 0, 0, 0, 0, 0, 0, 0, 0, 0, 16, 47, 102, 111, 111, 0, 0, 0, 0, 44, 105, 0, 0, 0, 0, 1, 44, 0, 0, 0, 20, 47, 98, 117, 110, 100, 108, 101, 47, 109, 101, 109, 98, 101, 114, 0, 0, 44, 0, 0, 0 ],
									"saved_bundle_length" : 60,
									"text" : "/foo : 300,\n/bundle/member",
									"textcolor" : [ 0.188, 0.188, 0.188, 1.0 ]
								}

							}
, 							{
								"box" : 								{
									"fontface" : 0,
									"fontsize" : 11.0,
									"id" : "obj-9",
									"linecount" : 2,
									"maxclass" : "o.compose",
									"numinlets" : 2,
									"numoutlets" : 1,
									"outlettype" : [ "" ],
									"patching_rect" : [ 932.0, 350.0, 155.0, 35.0 ],
									"presentation_rect" : [ 316.0, 379.0, 0.0, 0.0 ],
									"saved_bundle_data" : [ 35, 98, 117, 110, 100, 108, 101, 0, 0, 0, 0, 0, 0, 0, 0, 0, 0, 0, 0, 24, 47, 98, 117, 110, 100, 108, 101, 47, 109, 101, 109, 98, 101, 114, 0, 0, 44, 105, 0, 0, 0, 0, 0, 1, 0, 0, 0, 16, 47, 102, 111, 111, 0, 0, 0, 0, 44, 105, 0, 0, 0, 0, 1, 44 ],
									"saved_bundle_length" : 64,
									"text" : "/bundle/member : 1,\n/foo : 300",
									"textcolor" : [ 0.188, 0.188, 0.188, 1.0 ]
								}

							}
, 							{
								"box" : 								{
									"fontface" : 0,
									"fontsize" : 11.0,
									"id" : "obj-10",
									"linecount" : 5,
									"maxclass" : "o.expr.codebox",
									"numinlets" : 1,
									"numoutlets" : 2,
									"outlettype" : [ "FullPacket", "FullPacket" ],
									"patching_rect" : [ 777.0, 406.0, 257.0, 81.0 ],
									"presentation_rect" : [ 191.0, 435.0, 0.0, 0.0 ],
									"text" : "if(\n  bound(/bundle/member), \n  /post = \"bundle member is bound\", \n  /post = \"bundle member is unbound\"\n)",
									"textcolor" : [ 0.0, 0.0, 0.0, 1.0 ]
								}

							}
, 							{
								"box" : 								{
									"fontface" : 0,
									"fontsize" : 11.0,
									"id" : "obj-6",
									"linecount" : 3,
									"maxclass" : "o.display",
									"numinlets" : 1,
									"numoutlets" : 1,
									"outlettype" : [ "" ],
									"patching_rect" : [ 777.0, 261.0, 224.0, 58.0 ],
									"text" : "/foo : 300,\n/bundle/member,\n/post : \"found a bundle element\"",
									"textcolor" : [ 1.0, 1.0, 1.0, 1.0 ]
								}

							}
, 							{
								"box" : 								{
									"fontface" : 0,
									"fontsize" : 11.0,
									"id" : "obj-5",
									"maxclass" : "o.compose",
									"numinlets" : 2,
									"numoutlets" : 1,
									"outlettype" : [ "" ],
									"patching_rect" : [ 777.0, 99.0, 89.0, 23.0 ],
									"saved_bundle_data" : [ 35, 98, 117, 110, 100, 108, 101, 0, 0, 0, 0, 0, 0, 0, 0, 0, 0, 0, 0, 16, 47, 102, 111, 111, 0, 0, 0, 0, 44, 105, 0, 0, 0, 0, 1, 44 ],
									"saved_bundle_length" : 36,
									"text" : "/foo : 300",
									"textcolor" : [ 0.188, 0.188, 0.188, 1.0 ]
								}

							}
, 							{
								"box" : 								{
									"fontface" : 0,
									"fontsize" : 11.0,
									"id" : "obj-4",
									"linecount" : 2,
									"maxclass" : "o.compose",
									"numinlets" : 2,
									"numoutlets" : 1,
									"outlettype" : [ "" ],
									"patching_rect" : [ 902.0, 99.0, 155.0, 35.0 ],
									"saved_bundle_data" : [ 35, 98, 117, 110, 100, 108, 101, 0, 0, 0, 0, 0, 0, 0, 0, 0, 0, 0, 0, 24, 47, 98, 117, 110, 100, 108, 101, 47, 109, 101, 109, 98, 101, 114, 0, 0, 44, 105, 0, 0, 0, 0, 0, 1, 0, 0, 0, 16, 47, 102, 111, 111, 0, 0, 0, 0, 44, 105, 0, 0, 0, 0, 1, 44 ],
									"saved_bundle_length" : 64,
									"text" : "/bundle/member : 1,\n/foo : 300",
									"textcolor" : [ 0.188, 0.188, 0.188, 1.0 ]
								}

							}
, 							{
								"box" : 								{
									"fontface" : 0,
									"fontsize" : 11.0,
									"id" : "obj-3",
									"linecount" : 5,
									"maxclass" : "o.expr.codebox",
									"numinlets" : 1,
									"numoutlets" : 2,
									"outlettype" : [ "FullPacket", "FullPacket" ],
									"patching_rect" : [ 777.0, 155.0, 277.0, 81.0 ],
									"text" : "if(\n  exists(/bundle/member), \n  /post = \"found a bundle element\", \n  /post = \"did not find bundle element\"\n)",
									"textcolor" : [ 0.0, 0.0, 0.0, 1.0 ]
								}

							}
, 							{
								"box" : 								{
									"fontsize" : 11.0,
									"id" : "obj-2",
									"linecount" : 7,
									"maxclass" : "comment",
									"numinlets" : 1,
									"numoutlets" : 0,
									"patching_rect" : [ 265.0, 36.0, 80.0, 93.0 ],
									"style" : "",
									"text" : "assign\n??=\n\ngetaddresses\nvalue\nbound/exists\ndelete"
								}

							}
 ],
						"lines" : [ 							{
								"patchline" : 								{
									"destination" : [ "obj-7", 0 ],
									"disabled" : 0,
									"hidden" : 0,
									"source" : [ "obj-10", 0 ]
								}

							}
, 							{
								"patchline" : 								{
									"destination" : [ "obj-3", 0 ],
									"disabled" : 0,
									"hidden" : 0,
									"source" : [ "obj-11", 0 ]
								}

							}
, 							{
								"patchline" : 								{
									"destination" : [ "obj-14", 0 ],
									"disabled" : 0,
									"hidden" : 0,
									"source" : [ "obj-12", 0 ]
								}

							}
, 							{
								"patchline" : 								{
									"destination" : [ "obj-12", 0 ],
									"disabled" : 0,
									"hidden" : 0,
									"source" : [ "obj-13", 0 ]
								}

							}
, 							{
								"patchline" : 								{
									"destination" : [ "obj-21", 0 ],
									"disabled" : 0,
									"hidden" : 0,
									"source" : [ "obj-14", 0 ]
								}

							}
, 							{
								"patchline" : 								{
									"destination" : [ "obj-23", 0 ],
									"disabled" : 0,
									"hidden" : 0,
									"source" : [ "obj-21", 0 ]
								}

							}
, 							{
								"patchline" : 								{
									"destination" : [ "obj-6", 0 ],
									"disabled" : 0,
									"hidden" : 0,
									"source" : [ "obj-3", 0 ]
								}

							}
, 							{
								"patchline" : 								{
									"destination" : [ "obj-3", 0 ],
									"disabled" : 0,
									"hidden" : 0,
									"source" : [ "obj-4", 0 ]
								}

							}
, 							{
								"patchline" : 								{
									"destination" : [ "obj-3", 0 ],
									"disabled" : 0,
									"hidden" : 0,
									"source" : [ "obj-5", 0 ]
								}

							}
, 							{
								"patchline" : 								{
									"destination" : [ "obj-10", 0 ],
									"disabled" : 0,
									"hidden" : 0,
									"source" : [ "obj-8", 0 ]
								}

							}
, 							{
								"patchline" : 								{
									"destination" : [ "obj-10", 0 ],
									"disabled" : 0,
									"hidden" : 0,
									"source" : [ "obj-9", 0 ]
								}

							}
 ]
					}
,
					"patching_rect" : [ 1155.428589, 327.0, 89.0, 22.0 ],
					"presentation_rect" : [ 1219.428589, 327.0, 0.0, 0.0 ],
					"saved_object_attributes" : 					{
						"description" : "",
						"digest" : "",
						"globalpatchername" : "",
						"style" : "",
						"tags" : ""
					}
,
					"style" : "",
					"text" : "p introspection"
				}

			}
, 			{
				"box" : 				{
					"id" : "obj-45",
					"maxclass" : "newobj",
					"numinlets" : 0,
					"numoutlets" : 0,
					"patcher" : 					{
						"fileversion" : 1,
						"appversion" : 						{
							"major" : 7,
							"minor" : 2,
							"revision" : 5,
							"architecture" : "x86",
							"modernui" : 1
						}
,
						"rect" : [ 0.0, 26.0, 1283.0, 660.0 ],
						"bglocked" : 0,
						"openinpresentation" : 0,
						"default_fontsize" : 12.0,
						"default_fontface" : 0,
						"default_fontname" : "Arial",
						"gridonopen" : 1,
						"gridsize" : [ 15.0, 15.0 ],
						"gridsnaponopen" : 1,
						"objectsnaponopen" : 1,
						"statusbarvisible" : 2,
						"toolbarvisible" : 1,
						"lefttoolbarpinned" : 0,
						"toptoolbarpinned" : 0,
						"righttoolbarpinned" : 0,
						"bottomtoolbarpinned" : 0,
						"toolbars_unpinned_last_save" : 0,
						"tallnewobj" : 0,
						"boxanimatetime" : 200,
						"enablehscroll" : 1,
						"enablevscroll" : 1,
						"devicewidth" : 0.0,
						"description" : "",
						"digest" : "",
						"tags" : "",
						"style" : "",
						"subpatcher_template" : "gridded",
						"showontab" : 1,
						"boxes" : [ 							{
								"box" : 								{
									"id" : "obj-2",
									"linecount" : 4,
									"maxclass" : "comment",
									"numinlets" : 1,
									"numoutlets" : 0,
									"patching_rect" : [ 454.0, 186.0, 150.0, 60.0 ],
									"style" : "",
									"text" : "map\nlambda\nquote, \"\"\n\n"
								}

							}
 ],
						"lines" : [  ]
					}
,
					"patching_rect" : [ 1063.042847, 327.0, 69.0, 22.0 ],
					"presentation_rect" : [ 1134.428589, 327.0, 0.0, 0.0 ],
					"saved_object_attributes" : 					{
						"description" : "",
						"digest" : "",
						"globalpatchername" : "",
						"style" : "",
						"tags" : ""
					}
,
					"style" : "",
					"text" : "p functions"
				}

			}
, 			{
				"box" : 				{
					"id" : "obj-44",
					"maxclass" : "newobj",
					"numinlets" : 0,
					"numoutlets" : 0,
					"patcher" : 					{
						"fileversion" : 1,
						"appversion" : 						{
							"major" : 7,
							"minor" : 2,
							"revision" : 5,
							"architecture" : "x86",
							"modernui" : 1
						}
,
						"rect" : [ 0.0, 26.0, 1283.0, 660.0 ],
						"bglocked" : 0,
						"openinpresentation" : 0,
						"default_fontsize" : 12.0,
						"default_fontface" : 0,
						"default_fontname" : "Arial",
						"gridonopen" : 1,
						"gridsize" : [ 15.0, 15.0 ],
						"gridsnaponopen" : 1,
						"objectsnaponopen" : 1,
						"statusbarvisible" : 2,
						"toolbarvisible" : 1,
						"lefttoolbarpinned" : 0,
						"toptoolbarpinned" : 0,
						"righttoolbarpinned" : 0,
						"bottomtoolbarpinned" : 0,
						"toolbars_unpinned_last_save" : 0,
						"tallnewobj" : 0,
						"boxanimatetime" : 200,
						"enablehscroll" : 1,
						"enablevscroll" : 1,
						"devicewidth" : 0.0,
						"description" : "",
						"digest" : "",
						"tags" : "",
						"style" : "",
						"subpatcher_template" : "gridded",
						"showontab" : 1,
						"boxes" : [ 							{
								"box" : 								{
									"fontface" : 0,
									"fontsize" : 11.0,
									"id" : "obj-14",
									"linecount" : 4,
									"maxclass" : "o.compose",
									"numinlets" : 2,
									"numoutlets" : 1,
									"outlettype" : [ "" ],
									"patching_rect" : [ 735.0, 207.5, 82.0, 60.0 ],
									"saved_bundle_data" : [ 35, 98, 117, 110, 100, 108, 101, 0, 0, 0, 0, 0, 0, 0, 0, 0, 0, 0, 0, 64, 47, 102, 111, 111, 0, 0, 0, 0, 44, 46, 0, 0, 0, 0, 0, 48, 35, 98, 117, 110, 100, 108, 101, 0, 0, 0, 0, 0, 0, 0, 0, 0, 0, 0, 0, 12, 47, 97, 0, 0, 44, 105, 0, 0, 0, 0, 0, 1, 0, 0, 0, 12, 47, 98, 0, 0, 44, 105, 0, 0, 0, 0, 0, 2 ],
									"saved_bundle_length" : 84,
									"text" : "/foo : {\n\t/a : 1,\n\t/b : 2\n}",
									"textcolor" : [ 0.188, 0.188, 0.188, 1.0 ]
								}

							}
, 							{
								"box" : 								{
									"fontsize" : 11.0,
									"id" : "obj-12",
									"maxclass" : "comment",
									"numinlets" : 1,
									"numoutlets" : 0,
									"patching_rect" : [ 829.5, 248.5, 121.0, 19.0 ],
									"style" : "",
									"text" : "introspection, typetags"
								}

							}
, 							{
								"box" : 								{
									"id" : "obj-10",
									"maxclass" : "button",
									"numinlets" : 1,
									"numoutlets" : 1,
									"outlettype" : [ "bang" ],
									"patching_rect" : [ 217.0, 126.0, 24.0, 24.0 ],
									"style" : ""
								}

							}
, 							{
								"box" : 								{
									"fontface" : 0,
									"fontsize" : 11.0,
									"id" : "obj-8",
									"linecount" : 11,
									"maxclass" : "o.display",
									"numinlets" : 1,
									"numoutlets" : 1,
									"outlettype" : [ "" ],
									"patching_rect" : [ 735.0, 364.0, 310.0, 158.0 ],
									"presentation_rect" : [ 888.0, 259.0, 0.0, 0.0 ],
									"text" : "/foo : {\n\t/a : 1,\n\t/b : 2\n},\n/int : 300,\n/tags/int : 'i',\n/list : [\"ghost\", 0.31, 400, \"apple\", 'a', {\n\t/a : 1,\n\t/b : 2\n}],\n/tags/list : ['s', 'd', 'i', 's', 'c', '.']",
									"textcolor" : [ 1.0, 1.0, 1.0, 1.0 ]
								}

							}
, 							{
								"box" : 								{
									"fontface" : 0,
									"fontsize" : 11.0,
									"id" : "obj-7",
									"linecount" : 4,
									"maxclass" : "o.expr.codebox",
									"numinlets" : 1,
									"numoutlets" : 2,
									"outlettype" : [ "FullPacket", "FullPacket" ],
									"patching_rect" : [ 735.0, 277.0, 344.0, 73.0 ],
									"presentation_rect" : [ 758.0, 115.0, 0.0, 0.0 ],
									"text" : "/int = 300,\n/tags/int = typetags(/int),\n/list = [\"ghost\", 0.31, 400, \"apple\", 'a', /foo],\n/tags/list = typetags(/list)",
									"textcolor" : [ 0.0, 0.0, 0.0, 1.0 ]
								}

							}
, 							{
								"box" : 								{
									"fontface" : 0,
									"fontsize" : 11.0,
									"id" : "obj-2",
									"linecount" : 5,
									"maxclass" : "o.expr.codebox",
									"numinlets" : 1,
									"numoutlets" : 2,
									"outlettype" : [ "FullPacket", "FullPacket" ],
									"patching_rect" : [ 429.0, 262.0, 217.0, 86.0 ],
									"text" : "/int = 300,\n/float = 4.5,\n/string = \"4\",\n/int/to/float = float32(/int),\n/float/to/int = int32(/float)",
									"textcolor" : [ 0.0, 0.0, 0.0, 1.0 ]
								}

							}
, 							{
								"box" : 								{
									"fontface" : 0,
									"fontsize" : 11.0,
									"id" : "obj-6",
									"linecount" : 5,
									"maxclass" : "o.display",
									"numinlets" : 1,
									"numoutlets" : 1,
									"outlettype" : [ "" ],
									"patching_rect" : [ 429.0, 390.0, 218.0, 83.0 ],
									"text" : "/int : 300,\n/float : 4.5,\n/string : \"4\",\n/int/to/float : 300.,\n/float/to/int : 4",
									"textcolor" : [ 1.0, 1.0, 1.0, 1.0 ]
								}

							}
, 							{
								"box" : 								{
									"fontface" : 0,
									"fontsize" : 11.0,
									"id" : "obj-1",
									"linecount" : 4,
									"maxclass" : "o.expr.codebox",
									"numinlets" : 1,
									"numoutlets" : 2,
									"outlettype" : [ "FullPacket", "FullPacket" ],
									"patching_rect" : [ 217.0, 262.0, 125.0, 73.0 ],
									"text" : "/int = 300,\n/float = 4.5,\n/string = \"4\",\n/list = [1, 2, 3]",
									"textcolor" : [ 0.0, 0.0, 0.0, 1.0 ]
								}

							}
, 							{
								"box" : 								{
									"fontsize" : 11.0,
									"id" : "obj-4",
									"maxclass" : "newobj",
									"numinlets" : 1,
									"numoutlets" : 1,
									"outlettype" : [ "bang" ],
									"patching_rect" : [ 217.0, 169.0, 56.0, 21.0 ],
									"style" : "",
									"text" : "loadbang"
								}

							}
, 							{
								"box" : 								{
									"fontface" : 0,
									"fontsize" : 11.0,
									"id" : "obj-3",
									"linecount" : 4,
									"maxclass" : "o.display",
									"numinlets" : 1,
									"numoutlets" : 1,
									"outlettype" : [ "" ],
									"patching_rect" : [ 217.0, 390.0, 125.0, 70.0 ],
									"text" : "/int : 300,\n/float : 4.5,\n/string : \"4\",\n/list : [1, 2, 3]",
									"textcolor" : [ 1.0, 1.0, 1.0, 1.0 ]
								}

							}
 ],
						"lines" : [ 							{
								"patchline" : 								{
									"destination" : [ "obj-3", 0 ],
									"disabled" : 0,
									"hidden" : 0,
									"source" : [ "obj-1", 0 ]
								}

							}
, 							{
								"patchline" : 								{
									"destination" : [ "obj-4", 0 ],
									"disabled" : 0,
									"hidden" : 0,
									"source" : [ "obj-10", 0 ]
								}

							}
, 							{
								"patchline" : 								{
									"destination" : [ "obj-7", 0 ],
									"disabled" : 0,
									"hidden" : 0,
									"source" : [ "obj-14", 0 ]
								}

							}
, 							{
								"patchline" : 								{
									"destination" : [ "obj-6", 0 ],
									"disabled" : 0,
									"hidden" : 0,
									"source" : [ "obj-2", 0 ]
								}

							}
, 							{
								"patchline" : 								{
									"destination" : [ "obj-1", 0 ],
									"disabled" : 0,
									"hidden" : 0,
									"source" : [ "obj-4", 0 ]
								}

							}
, 							{
								"patchline" : 								{
									"destination" : [ "obj-14", 0 ],
									"disabled" : 0,
									"hidden" : 0,
									"source" : [ "obj-4", 0 ]
								}

							}
, 							{
								"patchline" : 								{
									"destination" : [ "obj-2", 0 ],
									"disabled" : 0,
									"hidden" : 0,
									"source" : [ "obj-4", 0 ]
								}

							}
, 							{
								"patchline" : 								{
									"destination" : [ "obj-8", 0 ],
									"disabled" : 0,
									"hidden" : 0,
									"source" : [ "obj-7", 0 ]
								}

							}
 ]
					}
,
					"patching_rect" : [ 289.342865, 330.0, 49.0, 22.0 ],
					"presentation_rect" : [ 186.0, 404.0, 0.0, 0.0 ],
					"saved_object_attributes" : 					{
						"description" : "",
						"digest" : "",
						"globalpatchername" : "",
						"style" : "",
						"tags" : ""
					}
,
					"style" : "",
					"text" : "p types"
				}

			}
, 			{
				"box" : 				{
					"id" : "obj-43",
					"maxclass" : "newobj",
					"numinlets" : 0,
					"numoutlets" : 0,
					"patcher" : 					{
						"fileversion" : 1,
						"appversion" : 						{
							"major" : 7,
							"minor" : 2,
							"revision" : 5,
							"architecture" : "x86",
							"modernui" : 1
						}
,
						"rect" : [ 0.0, 26.0, 1283.0, 660.0 ],
						"bglocked" : 0,
						"openinpresentation" : 0,
						"default_fontsize" : 12.0,
						"default_fontface" : 0,
						"default_fontname" : "Arial",
						"gridonopen" : 1,
						"gridsize" : [ 15.0, 15.0 ],
						"gridsnaponopen" : 1,
						"objectsnaponopen" : 1,
						"statusbarvisible" : 2,
						"toolbarvisible" : 1,
						"lefttoolbarpinned" : 0,
						"toptoolbarpinned" : 0,
						"righttoolbarpinned" : 0,
						"bottomtoolbarpinned" : 0,
						"toolbars_unpinned_last_save" : 0,
						"tallnewobj" : 0,
						"boxanimatetime" : 200,
						"enablehscroll" : 1,
						"enablevscroll" : 1,
						"devicewidth" : 0.0,
						"description" : "",
						"digest" : "",
						"tags" : "",
						"style" : "",
						"subpatcher_template" : "gridded",
						"showontab" : 1,
						"boxes" : [ 							{
								"box" : 								{
									"id" : "obj-31",
									"maxclass" : "newobj",
									"numinlets" : 0,
									"numoutlets" : 0,
									"patcher" : 									{
										"fileversion" : 1,
										"appversion" : 										{
											"major" : 7,
											"minor" : 2,
											"revision" : 5,
											"architecture" : "x86",
											"modernui" : 1
										}
,
										"rect" : [ 0.0, 0.0, 640.0, 480.0 ],
										"bglocked" : 0,
										"openinpresentation" : 0,
										"default_fontsize" : 12.0,
										"default_fontface" : 0,
										"default_fontname" : "Arial",
										"gridonopen" : 1,
										"gridsize" : [ 15.0, 15.0 ],
										"gridsnaponopen" : 1,
										"objectsnaponopen" : 1,
										"statusbarvisible" : 2,
										"toolbarvisible" : 1,
										"lefttoolbarpinned" : 0,
										"toptoolbarpinned" : 0,
										"righttoolbarpinned" : 0,
										"bottomtoolbarpinned" : 0,
										"toolbars_unpinned_last_save" : 0,
										"tallnewobj" : 0,
										"boxanimatetime" : 200,
										"enablehscroll" : 1,
										"enablevscroll" : 1,
										"devicewidth" : 0.0,
										"description" : "",
										"digest" : "",
										"tags" : "",
										"style" : "",
										"subpatcher_template" : "gridded",
										"boxes" : [ 											{
												"box" : 												{
													"fontsize" : 11.0,
													"id" : "obj-30",
													"maxclass" : "comment",
													"numinlets" : 1,
													"numoutlets" : 0,
													"patching_rect" : [ 350.5, 126.0, 102.0, 19.0 ],
													"style" : "",
													"text" : "progn() vs list form"
												}

											}
, 											{
												"box" : 												{
													"fontsize" : 11.0,
													"id" : "obj-27",
													"maxclass" : "number",
													"maximum" : 5,
													"minimum" : 1,
													"numinlets" : 1,
													"numoutlets" : 2,
													"outlettype" : [ "", "bang" ],
													"parameter_enable" : 0,
													"patching_rect" : [ 50.0, 100.0, 50.0, 21.0 ],
													"style" : ""
												}

											}
, 											{
												"box" : 												{
													"fontsize" : 11.0,
													"id" : "obj-28",
													"maxclass" : "newobj",
													"numinlets" : 1,
													"numoutlets" : 1,
													"outlettype" : [ "FullPacket" ],
													"patching_rect" : [ 50.0, 130.0, 73.0, 21.0 ],
													"style" : "",
													"text" : "o.pack /input"
												}

											}
, 											{
												"box" : 												{
													"fontface" : 0,
													"fontsize" : 11.0,
													"id" : "obj-25",
													"linecount" : 2,
													"maxclass" : "o.display",
													"numinlets" : 1,
													"numoutlets" : 1,
													"outlettype" : [ "" ],
													"patching_rect" : [ 425.0, 306.0, 145.0, 45.0 ],
													"text" : "/input : 4,\n/freq : [44, 54, 74]",
													"textcolor" : [ 1.0, 1.0, 1.0, 1.0 ]
												}

											}
, 											{
												"box" : 												{
													"fontface" : 0,
													"fontsize" : 11.0,
													"id" : "obj-26",
													"linecount" : 8,
													"maxclass" : "o.expr.codebox",
													"numinlets" : 1,
													"numoutlets" : 2,
													"outlettype" : [ "FullPacket", "FullPacket" ],
													"patching_rect" : [ 425.0, 179.0, 336.0, 118.0 ],
													"text" : "/freq = if(/input > 3,\n  [\n    /var/1 = 44,\n    /var/2 = /var/1 + 10,\n    /var/3 = /var/2 + 20\n  ],\n  /var/1 = 44\n), delete(/var/1), delete(/var/2), delete(/var/3)",
													"textcolor" : [ 0.0, 0.0, 0.0, 1.0 ]
												}

											}
, 											{
												"box" : 												{
													"fontface" : 0,
													"fontsize" : 11.0,
													"id" : "obj-24",
													"linecount" : 2,
													"maxclass" : "o.display",
													"numinlets" : 1,
													"numoutlets" : 1,
													"outlettype" : [ "" ],
													"patching_rect" : [ 50.0, 306.0, 92.0, 45.0 ],
													"text" : "/input : 4,\n/freq : 74",
													"textcolor" : [ 1.0, 1.0, 1.0, 1.0 ]
												}

											}
, 											{
												"box" : 												{
													"fontface" : 0,
													"fontsize" : 11.0,
													"id" : "obj-23",
													"linecount" : 8,
													"maxclass" : "o.expr.codebox",
													"numinlets" : 1,
													"numoutlets" : 2,
													"outlettype" : [ "FullPacket", "FullPacket" ],
													"patching_rect" : [ 50.0, 179.0, 336.0, 118.0 ],
													"text" : "/freq = if(/input > 3,\n  progn(\n    /var/1 = 44,\n    /var/2 = /var/1 + 10,\n    /var/3 = /var/2 + 20\n  ),\n  /var/1 = 44\n), delete(/var/1), delete(/var/2), delete(/var/3)",
													"textcolor" : [ 0.0, 0.0, 0.0, 1.0 ]
												}

											}
 ],
										"lines" : [ 											{
												"patchline" : 												{
													"destination" : [ "obj-24", 0 ],
													"disabled" : 0,
													"hidden" : 0,
													"source" : [ "obj-23", 0 ]
												}

											}
, 											{
												"patchline" : 												{
													"destination" : [ "obj-25", 0 ],
													"disabled" : 0,
													"hidden" : 0,
													"source" : [ "obj-26", 0 ]
												}

											}
, 											{
												"patchline" : 												{
													"destination" : [ "obj-28", 0 ],
													"disabled" : 0,
													"hidden" : 0,
													"source" : [ "obj-27", 0 ]
												}

											}
, 											{
												"patchline" : 												{
													"destination" : [ "obj-23", 0 ],
													"disabled" : 0,
													"hidden" : 0,
													"source" : [ "obj-28", 0 ]
												}

											}
, 											{
												"patchline" : 												{
													"destination" : [ "obj-26", 0 ],
													"disabled" : 0,
													"hidden" : 0,
													"source" : [ "obj-28", 0 ]
												}

											}
 ]
									}
,
									"patching_rect" : [ 556.0, 492.0, 128.0, 22.0 ],
									"saved_object_attributes" : 									{
										"description" : "",
										"digest" : "",
										"globalpatchername" : "",
										"style" : "",
										"tags" : ""
									}
,
									"style" : "",
									"text" : "p \"progn() vs list form\""
								}

							}
, 							{
								"box" : 								{
									"fontface" : 0,
									"fontsize" : 11.0,
									"id" : "obj-17",
									"linecount" : 4,
									"maxclass" : "o.display",
									"numinlets" : 1,
									"numoutlets" : 1,
									"outlettype" : [ "" ],
									"patching_rect" : [ 944.0, 333.0, 224.0, 70.0 ],
									"text" : "/input : true,\n/larger : true,\n/smaller : false,\n/result : \"always within bounds\"",
									"textcolor" : [ 1.0, 1.0, 1.0, 1.0 ]
								}

							}
, 							{
								"box" : 								{
									"fontface" : 0,
									"fontsize" : 11.0,
									"id" : "obj-20",
									"linecount" : 8,
									"maxclass" : "o.expr.codebox",
									"numinlets" : 1,
									"numoutlets" : 2,
									"outlettype" : [ "FullPacket", "FullPacket" ],
									"patching_rect" : [ 944.0, 191.0, 283.0, 118.0 ],
									"text" : "/larger = /input > 1,\n/smaller = /input < 5,\n\nif(\n  /input = /larger | /input = /smaller, \n  /result = \"always within bounds\", \n  /result = \"out of bounds\"\n)",
									"textcolor" : [ 0.0, 0.0, 0.0, 1.0 ]
								}

							}
, 							{
								"box" : 								{
									"fontface" : 0,
									"fontsize" : 11.0,
									"id" : "obj-13",
									"linecount" : 4,
									"maxclass" : "o.display",
									"numinlets" : 1,
									"numoutlets" : 1,
									"outlettype" : [ "" ],
									"patching_rect" : [ 634.0, 333.0, 178.0, 70.0 ],
									"presentation_rect" : [ 718.0, 233.0, 0.0, 0.0 ],
									"text" : "/input : false,\n/larger : true,\n/smaller : false,\n/result : \"out of bounds\"",
									"textcolor" : [ 1.0, 1.0, 1.0, 1.0 ]
								}

							}
, 							{
								"box" : 								{
									"fontsize" : 11.0,
									"id" : "obj-14",
									"maxclass" : "number",
									"maximum" : 5,
									"minimum" : 1,
									"numinlets" : 1,
									"numoutlets" : 2,
									"outlettype" : [ "", "bang" ],
									"parameter_enable" : 0,
									"patching_rect" : [ 634.0, 105.0, 50.0, 21.0 ],
									"presentation_rect" : [ 718.0, 41.0, 0.0, 0.0 ],
									"style" : ""
								}

							}
, 							{
								"box" : 								{
									"fontsize" : 11.0,
									"id" : "obj-15",
									"maxclass" : "newobj",
									"numinlets" : 1,
									"numoutlets" : 1,
									"outlettype" : [ "FullPacket" ],
									"patching_rect" : [ 634.0, 135.0, 73.0, 21.0 ],
									"presentation_rect" : [ 718.0, 92.0, 0.0, 0.0 ],
									"style" : "",
									"text" : "o.pack /input"
								}

							}
, 							{
								"box" : 								{
									"fontface" : 0,
									"fontsize" : 11.0,
									"id" : "obj-16",
									"linecount" : 8,
									"maxclass" : "o.expr.codebox",
									"numinlets" : 1,
									"numoutlets" : 2,
									"outlettype" : [ "FullPacket", "FullPacket" ],
									"patching_rect" : [ 634.0, 191.0, 290.0, 118.0 ],
									"presentation_rect" : [ 718.0, 127.0, 0.0, 0.0 ],
									"text" : "/larger = /input > 1,\n/smaller = /input < 5,\n\nif(\n  /input = /larger && /input = /smaller, \n  /result = \"within bounds\", \n  /result = \"out of bounds\"\n)",
									"textcolor" : [ 0.0, 0.0, 0.0, 1.0 ]
								}

							}
, 							{
								"box" : 								{
									"fontface" : 0,
									"fontsize" : 11.0,
									"id" : "obj-12",
									"linecount" : 7,
									"maxclass" : "o.display",
									"numinlets" : 1,
									"numoutlets" : 1,
									"outlettype" : [ "" ],
									"patching_rect" : [ 331.0, 333.0, 171.0, 108.0 ],
									"presentation_rect" : [ 386.0, 232.0, 0.0, 0.0 ],
									"text" : "/input : 5,\n/compare : 3,\n/equal : false,\n/less/than : false,\n/less/equal/to : false,\n/greater : true,\n/greater/equal/to : true",
									"textcolor" : [ 1.0, 1.0, 1.0, 1.0 ]
								}

							}
, 							{
								"box" : 								{
									"fontface" : 0,
									"fontsize" : 11.0,
									"id" : "obj-4",
									"linecount" : 6,
									"maxclass" : "o.expr.codebox",
									"numinlets" : 1,
									"numoutlets" : 2,
									"outlettype" : [ "FullPacket", "FullPacket" ],
									"patching_rect" : [ 331.0, 191.0, 263.0, 93.0 ],
									"presentation_rect" : [ 380.0, 122.0, 0.0, 0.0 ],
									"text" : "/compare = 3,\n/equal = /input == /compare,\n/less/than = /input < /compare,\n/less/equal/to = /input <= /compare,\n/greater = /input > /compare,\n/greater/equal/to = /input >= /compare",
									"textcolor" : [ 0.0, 0.0, 0.0, 1.0 ]
								}

							}
, 							{
								"box" : 								{
									"fontsize" : 11.0,
									"format" : 6,
									"id" : "obj-6",
									"maxclass" : "flonum",
									"maximum" : 1.0,
									"minimum" : 0.0,
									"numinlets" : 1,
									"numoutlets" : 2,
									"outlettype" : [ "", "bang" ],
									"parameter_enable" : 0,
									"patching_rect" : [ 66.0, 105.0, 48.0, 21.0 ],
									"style" : ""
								}

							}
, 							{
								"box" : 								{
									"fontsize" : 11.0,
									"id" : "obj-2",
									"maxclass" : "newobj",
									"numinlets" : 1,
									"numoutlets" : 1,
									"outlettype" : [ "FullPacket" ],
									"patching_rect" : [ 66.0, 156.0, 125.0, 21.0 ],
									"style" : "",
									"text" : "o.pack /input"
								}

							}
, 							{
								"box" : 								{
									"fontface" : 0,
									"fontsize" : 11.0,
									"id" : "obj-5",
									"linecount" : 2,
									"maxclass" : "o.display",
									"numinlets" : 1,
									"numoutlets" : 1,
									"outlettype" : [ "" ],
									"patching_rect" : [ 66.0, 333.0, 184.0, 45.0 ],
									"text" : "/input : 0.93,\n/threshold/exceeded : true",
									"textcolor" : [ 1.0, 1.0, 1.0, 1.0 ]
								}

							}
, 							{
								"box" : 								{
									"fontface" : 0,
									"fontsize" : 11.0,
									"id" : "obj-3",
									"linecount" : 5,
									"maxclass" : "o.expr.codebox",
									"numinlets" : 1,
									"numoutlets" : 2,
									"outlettype" : [ "FullPacket", "FullPacket" ],
									"patching_rect" : [ 66.0, 191.0, 217.0, 81.0 ],
									"text" : "if(\n  /input > 0.5, \n  /threshold/exceeded = true, \n  /threshold/exceeded = false\n)",
									"textcolor" : [ 0.0, 0.0, 0.0, 1.0 ]
								}

							}
 ],
						"lines" : [ 							{
								"patchline" : 								{
									"destination" : [ "obj-15", 0 ],
									"disabled" : 0,
									"hidden" : 0,
									"source" : [ "obj-14", 0 ]
								}

							}
, 							{
								"patchline" : 								{
									"destination" : [ "obj-16", 0 ],
									"disabled" : 0,
									"hidden" : 0,
									"source" : [ "obj-15", 0 ]
								}

							}
, 							{
								"patchline" : 								{
									"destination" : [ "obj-20", 0 ],
									"disabled" : 0,
									"hidden" : 0,
									"source" : [ "obj-15", 0 ]
								}

							}
, 							{
								"patchline" : 								{
									"destination" : [ "obj-4", 0 ],
									"disabled" : 0,
									"hidden" : 0,
									"source" : [ "obj-15", 0 ]
								}

							}
, 							{
								"patchline" : 								{
									"destination" : [ "obj-13", 0 ],
									"disabled" : 0,
									"hidden" : 0,
									"source" : [ "obj-16", 0 ]
								}

							}
, 							{
								"patchline" : 								{
									"destination" : [ "obj-3", 0 ],
									"disabled" : 0,
									"hidden" : 0,
									"source" : [ "obj-2", 0 ]
								}

							}
, 							{
								"patchline" : 								{
									"destination" : [ "obj-17", 0 ],
									"disabled" : 0,
									"hidden" : 0,
									"source" : [ "obj-20", 0 ]
								}

							}
, 							{
								"patchline" : 								{
									"destination" : [ "obj-5", 0 ],
									"disabled" : 0,
									"hidden" : 0,
									"source" : [ "obj-3", 0 ]
								}

							}
, 							{
								"patchline" : 								{
									"destination" : [ "obj-12", 0 ],
									"disabled" : 0,
									"hidden" : 0,
									"source" : [ "obj-4", 0 ]
								}

							}
, 							{
								"patchline" : 								{
									"destination" : [ "obj-2", 0 ],
									"disabled" : 0,
									"hidden" : 0,
									"source" : [ "obj-6", 0 ]
								}

							}
 ]
					}
,
					"patching_rect" : [ 966.657166, 330.0, 73.0, 22.0 ],
					"saved_object_attributes" : 					{
						"description" : "",
						"digest" : "",
						"globalpatchername" : "",
						"style" : "",
						"tags" : ""
					}
,
					"style" : "",
					"text" : "p branching"
				}

			}
, 			{
				"box" : 				{
					"id" : "obj-42",
					"maxclass" : "newobj",
					"numinlets" : 0,
					"numoutlets" : 0,
					"patcher" : 					{
						"fileversion" : 1,
						"appversion" : 						{
							"major" : 7,
							"minor" : 2,
							"revision" : 5,
							"architecture" : "x86",
							"modernui" : 1
						}
,
						"rect" : [ 0.0, 26.0, 1283.0, 660.0 ],
						"bglocked" : 0,
						"openinpresentation" : 0,
						"default_fontsize" : 12.0,
						"default_fontface" : 0,
						"default_fontname" : "Arial",
						"gridonopen" : 1,
						"gridsize" : [ 15.0, 15.0 ],
						"gridsnaponopen" : 1,
						"objectsnaponopen" : 1,
						"statusbarvisible" : 2,
						"toolbarvisible" : 1,
						"lefttoolbarpinned" : 0,
						"toptoolbarpinned" : 0,
						"righttoolbarpinned" : 0,
						"bottomtoolbarpinned" : 0,
						"toolbars_unpinned_last_save" : 0,
						"tallnewobj" : 0,
						"boxanimatetime" : 200,
						"enablehscroll" : 1,
						"enablevscroll" : 1,
						"devicewidth" : 0.0,
						"description" : "",
						"digest" : "",
						"tags" : "",
						"style" : "",
						"subpatcher_template" : "gridded",
						"showontab" : 1,
						"boxes" : [ 							{
								"box" : 								{
									"fontsize" : 11.0,
									"format" : 6,
									"id" : "obj-6",
									"maxclass" : "flonum",
									"numinlets" : 1,
									"numoutlets" : 2,
									"outlettype" : [ "", "bang" ],
									"parameter_enable" : 0,
									"patching_rect" : [ 529.0, 197.0, 47.0, 21.0 ],
									"style" : ""
								}

							}
, 							{
								"box" : 								{
									"fontsize" : 11.0,
									"id" : "obj-2",
									"maxclass" : "newobj",
									"numinlets" : 1,
									"numoutlets" : 1,
									"outlettype" : [ "FullPacket" ],
									"patching_rect" : [ 529.0, 248.0, 125.0, 21.0 ],
									"style" : "",
									"text" : "o.pack /fundamental/hz"
								}

							}
, 							{
								"box" : 								{
									"fontface" : 0,
									"fontsize" : 11.0,
									"id" : "obj-5",
									"linecount" : 4,
									"maxclass" : "o.display",
									"numinlets" : 1,
									"numoutlets" : 1,
									"outlettype" : [ "" ],
									"patching_rect" : [ 529.0, 362.0, 264.0, 70.0 ],
									"text" : "/fundamental/hz : 39.75,\n/midi : 27.3783,\n/midi/floor : 27,\n/frequency : 39.75",
									"textcolor" : [ 1.0, 1.0, 1.0, 1.0 ]
								}

							}
, 							{
								"box" : 								{
									"fontface" : 0,
									"fontsize" : 11.0,
									"id" : "obj-3",
									"linecount" : 3,
									"maxclass" : "o.expr.codebox",
									"numinlets" : 1,
									"numoutlets" : 2,
									"outlettype" : [ "FullPacket", "FullPacket" ],
									"patching_rect" : [ 529.0, 285.0, 246.0, 56.0 ],
									"text" : "/midi = ftom(/fundamental/hz),\n/midi/int = int32(floor(/midi)),\n/frequency = mtof(/midi)",
									"textcolor" : [ 0.0, 0.0, 0.0, 1.0 ]
								}

							}
 ],
						"lines" : [ 							{
								"patchline" : 								{
									"destination" : [ "obj-3", 0 ],
									"disabled" : 0,
									"hidden" : 0,
									"source" : [ "obj-2", 0 ]
								}

							}
, 							{
								"patchline" : 								{
									"destination" : [ "obj-5", 0 ],
									"disabled" : 0,
									"hidden" : 0,
									"source" : [ "obj-3", 0 ]
								}

							}
, 							{
								"patchline" : 								{
									"destination" : [ "obj-2", 0 ],
									"disabled" : 0,
									"hidden" : 0,
									"source" : [ "obj-6", 0 ]
								}

							}
 ]
					}
,
					"patching_rect" : [ 635.5, 330.0, 123.0, 22.0 ],
					"presentation_rect" : [ 240.0, 344.0, 0.0, 0.0 ],
					"saved_object_attributes" : 					{
						"description" : "",
						"digest" : "",
						"globalpatchername" : "",
						"style" : "",
						"tags" : ""
					}
,
					"style" : "",
					"text" : "p \"frequencies, MIDI\""
				}

			}
, 			{
				"box" : 				{
					"id" : "obj-41",
					"maxclass" : "newobj",
					"numinlets" : 0,
					"numoutlets" : 0,
					"patcher" : 					{
						"fileversion" : 1,
						"appversion" : 						{
							"major" : 7,
							"minor" : 2,
							"revision" : 5,
							"architecture" : "x86",
							"modernui" : 1
						}
,
						"rect" : [ 0.0, 26.0, 1283.0, 660.0 ],
						"bglocked" : 0,
						"openinpresentation" : 0,
						"default_fontsize" : 12.0,
						"default_fontface" : 0,
						"default_fontname" : "Arial",
						"gridonopen" : 1,
						"gridsize" : [ 15.0, 15.0 ],
						"gridsnaponopen" : 1,
						"objectsnaponopen" : 1,
						"statusbarvisible" : 2,
						"toolbarvisible" : 1,
						"lefttoolbarpinned" : 0,
						"toptoolbarpinned" : 0,
						"righttoolbarpinned" : 0,
						"bottomtoolbarpinned" : 0,
						"toolbars_unpinned_last_save" : 0,
						"tallnewobj" : 0,
						"boxanimatetime" : 200,
						"enablehscroll" : 1,
						"enablevscroll" : 1,
						"devicewidth" : 0.0,
						"description" : "",
						"digest" : "",
						"tags" : "",
						"style" : "",
						"subpatcher_template" : "gridded",
						"showontab" : 1,
						"boxes" : [ 							{
								"box" : 								{
									"fontsize" : 11.0,
									"id" : "obj-22",
									"maxclass" : "newobj",
									"numinlets" : 1,
									"numoutlets" : 1,
									"outlettype" : [ "bang" ],
									"patching_rect" : [ 636.0, 134.0, 56.0, 21.0 ],
									"style" : "",
									"text" : "loadbang"
								}

							}
, 							{
								"box" : 								{
									"fontface" : 0,
									"fontsize" : 11.0,
									"id" : "obj-20",
									"linecount" : 4,
									"maxclass" : "o.display",
									"numinlets" : 1,
									"numoutlets" : 1,
									"outlettype" : [ "" ],
									"patching_rect" : [ 279.0, 389.0, 191.0, 70.0 ],
									"presentation_rect" : [ 18.0, 407.0, 0.0, 0.0 ],
									"text" : "/input : 2.952,\n/rounded : 3.,\n/ceiling : 3.,\n/floor : 2.",
									"textcolor" : [ 1.0, 1.0, 1.0, 1.0 ]
								}

							}
, 							{
								"box" : 								{
									"fontface" : 0,
									"fontsize" : 11.0,
									"id" : "obj-21",
									"linecount" : 3,
									"maxclass" : "o.expr.codebox",
									"numinlets" : 1,
									"numoutlets" : 2,
									"outlettype" : [ "FullPacket", "FullPacket" ],
									"patching_rect" : [ 279.0, 291.0, 184.0, 59.0 ],
									"presentation_rect" : [ 18.0, 309.0, 0.0, 0.0 ],
									"text" : "/rounded = round(/input),\n/ceiling = ceil(/input),\n/floor = floor(/input)",
									"textcolor" : [ 0.0, 0.0, 0.0, 1.0 ]
								}

							}
, 							{
								"box" : 								{
									"fontsize" : 11.0,
									"format" : 6,
									"id" : "obj-6",
									"maxclass" : "flonum",
									"minimum" : 0.0,
									"numinlets" : 1,
									"numoutlets" : 2,
									"outlettype" : [ "", "bang" ],
									"parameter_enable" : 0,
									"patching_rect" : [ 279.0, 119.0, 47.0, 21.0 ],
									"style" : ""
								}

							}
, 							{
								"box" : 								{
									"fontsize" : 11.0,
									"id" : "obj-4",
									"maxclass" : "newobj",
									"numinlets" : 1,
									"numoutlets" : 1,
									"outlettype" : [ "FullPacket" ],
									"patching_rect" : [ 279.0, 152.0, 73.0, 21.0 ],
									"style" : "",
									"text" : "o.pack /input"
								}

							}
, 							{
								"box" : 								{
									"fontsize" : 11.0,
									"id" : "obj-13",
									"maxclass" : "newobj",
									"numinlets" : 2,
									"numoutlets" : 1,
									"outlettype" : [ "FullPacket" ],
									"patching_rect" : [ 561.0, 253.0, 94.0, 21.0 ],
									"style" : "",
									"text" : "o.union"
								}

							}
, 							{
								"box" : 								{
									"fontface" : 0,
									"fontsize" : 11.0,
									"id" : "obj-12",
									"linecount" : 4,
									"maxclass" : "o.compose",
									"numinlets" : 2,
									"numoutlets" : 1,
									"outlettype" : [ "" ],
									"patching_rect" : [ 636.0, 167.0, 128.0, 60.0 ],
									"saved_bundle_data" : [ 35, 98, 117, 110, 100, 108, 101, 0, 0, 0, 0, 0, 0, 0, 0, 0, 0, 0, 0, 20, 47, 105, 110, 47, 109, 105, 110, 0, 44, 100, 0, 0, 0, 0, 0, 0, 0, 0, 0, 0, 0, 0, 0, 20, 47, 105, 110, 47, 109, 97, 120, 0, 44, 100, 0, 0, 63, -16, 0, 0, 0, 0, 0, 0, 0, 0, 0, 24, 47, 111, 117, 116, 47, 109, 105, 110, 0, 0, 0, 0, 44, 100, 0, 0, 64, 62, 0, 0, 0, 0, 0, 0, 0, 0, 0, 24, 47, 111, 117, 116, 47, 109, 97, 120, 0, 0, 0, 0, 44, 100, 0, 0, 64, -128, -16, 0, 0, 0, 0, 0 ],
									"saved_bundle_length" : 120,
									"text" : "/in/min : 0.,\n/in/max : 1.,\n/out/min : 30.,\n/out/max : 542.",
									"textcolor" : [ 0.188, 0.188, 0.188, 1.0 ]
								}

							}
, 							{
								"box" : 								{
									"fontface" : 0,
									"fontsize" : 11.0,
									"id" : "obj-7",
									"linecount" : 8,
									"maxclass" : "o.display",
									"numinlets" : 1,
									"numoutlets" : 1,
									"outlettype" : [ "" ],
									"patching_rect" : [ 561.0, 389.0, 191.0, 120.0 ],
									"text" : "/input : 2.952,\n/in/min : 0.,\n/in/max : 1.,\n/out/min : 30.,\n/out/max : 542.,\n/clipped : 1.,\n/scaled/no/clip : 1541.42,\n/scaled/clipped : 542.",
									"textcolor" : [ 1.0, 1.0, 1.0, 1.0 ]
								}

							}
, 							{
								"box" : 								{
									"fontface" : 0,
									"fontsize" : 11.0,
									"id" : "obj-3",
									"linecount" : 3,
									"maxclass" : "o.expr.codebox",
									"numinlets" : 1,
									"numoutlets" : 2,
									"outlettype" : [ "FullPacket", "FullPacket" ],
									"patching_rect" : [ 561.0, 291.0, 481.0, 59.0 ],
									"text" : "/clipped = clip(/input, /in/min, /in/max),\n/scaled/no/clip = scale(/input, /in/min, /in/max, /out/min, /out/max),\n/scaled/clipped = scale(/clipped, /in/min, /in/max, /out/min, /out/max)",
									"textcolor" : [ 0.0, 0.0, 0.0, 1.0 ]
								}

							}
 ],
						"lines" : [ 							{
								"patchline" : 								{
									"destination" : [ "obj-13", 1 ],
									"disabled" : 0,
									"hidden" : 0,
									"source" : [ "obj-12", 0 ]
								}

							}
, 							{
								"patchline" : 								{
									"destination" : [ "obj-3", 0 ],
									"disabled" : 0,
									"hidden" : 0,
									"source" : [ "obj-13", 0 ]
								}

							}
, 							{
								"patchline" : 								{
									"destination" : [ "obj-20", 0 ],
									"disabled" : 0,
									"hidden" : 0,
									"source" : [ "obj-21", 0 ]
								}

							}
, 							{
								"patchline" : 								{
									"destination" : [ "obj-12", 0 ],
									"disabled" : 0,
									"hidden" : 0,
									"source" : [ "obj-22", 0 ]
								}

							}
, 							{
								"patchline" : 								{
									"destination" : [ "obj-7", 0 ],
									"disabled" : 0,
									"hidden" : 0,
									"source" : [ "obj-3", 0 ]
								}

							}
, 							{
								"patchline" : 								{
									"destination" : [ "obj-13", 0 ],
									"disabled" : 0,
									"hidden" : 0,
									"source" : [ "obj-4", 0 ]
								}

							}
, 							{
								"patchline" : 								{
									"destination" : [ "obj-21", 0 ],
									"disabled" : 0,
									"hidden" : 0,
									"source" : [ "obj-4", 0 ]
								}

							}
, 							{
								"patchline" : 								{
									"destination" : [ "obj-4", 0 ],
									"disabled" : 0,
									"hidden" : 0,
									"source" : [ "obj-6", 0 ]
								}

							}
 ]
					}
,
					"patching_rect" : [ 846.271423, 330.0, 97.0, 22.0 ],
					"saved_object_attributes" : 					{
						"description" : "",
						"digest" : "",
						"globalpatchername" : "",
						"style" : "",
						"tags" : ""
					}
,
					"style" : "",
					"text" : "p transformation"
				}

			}
, 			{
				"box" : 				{
					"id" : "obj-40",
					"maxclass" : "newobj",
					"numinlets" : 0,
					"numoutlets" : 0,
					"patcher" : 					{
						"fileversion" : 1,
						"appversion" : 						{
							"major" : 7,
							"minor" : 2,
							"revision" : 5,
							"architecture" : "x86",
							"modernui" : 1
						}
,
						"rect" : [ 0.0, 26.0, 1283.0, 660.0 ],
						"bglocked" : 0,
						"openinpresentation" : 0,
						"default_fontsize" : 12.0,
						"default_fontface" : 0,
						"default_fontname" : "Arial",
						"gridonopen" : 1,
						"gridsize" : [ 15.0, 15.0 ],
						"gridsnaponopen" : 1,
						"objectsnaponopen" : 1,
						"statusbarvisible" : 2,
						"toolbarvisible" : 1,
						"lefttoolbarpinned" : 0,
						"toptoolbarpinned" : 0,
						"righttoolbarpinned" : 0,
						"bottomtoolbarpinned" : 0,
						"toolbars_unpinned_last_save" : 0,
						"tallnewobj" : 0,
						"boxanimatetime" : 200,
						"enablehscroll" : 1,
						"enablevscroll" : 1,
						"devicewidth" : 0.0,
						"description" : "",
						"digest" : "",
						"tags" : "",
						"style" : "",
						"subpatcher_template" : "gridded",
						"showontab" : 1,
						"boxes" : [ 							{
								"box" : 								{
									"fontsize" : 11.0,
									"id" : "obj-8",
									"linecount" : 3,
									"maxclass" : "comment",
									"numinlets" : 1,
									"numoutlets" : 0,
									"patching_rect" : [ 489.5, 348.0, 210.0, 43.0 ],
									"style" : "",
									"text" : "note that the comment does not show up in the resultant bundle.  \nit is exclusively there for the programmer."
								}

							}
, 							{
								"box" : 								{
									"fontsize" : 11.0,
									"id" : "obj-4",
									"maxclass" : "newobj",
									"numinlets" : 1,
									"numoutlets" : 1,
									"outlettype" : [ "bang" ],
									"patching_rect" : [ 394.0, 202.0, 56.0, 21.0 ],
									"style" : "",
									"text" : "loadbang"
								}

							}
, 							{
								"box" : 								{
									"fontface" : 0,
									"fontsize" : 11.0,
									"id" : "obj-3",
									"maxclass" : "o.display",
									"numinlets" : 1,
									"numoutlets" : 1,
									"outlettype" : [ "" ],
									"patching_rect" : [ 394.0, 348.0, 65.0, 33.0 ],
									"text" : "/foo : 4",
									"textcolor" : [ 1.0, 1.0, 1.0, 1.0 ]
								}

							}
, 							{
								"box" : 								{
									"fontface" : 0,
									"fontsize" : 11.0,
									"id" : "obj-1",
									"linecount" : 4,
									"maxclass" : "o.expr.codebox",
									"numinlets" : 1,
									"numoutlets" : 2,
									"outlettype" : [ "FullPacket", "FullPacket" ],
									"patching_rect" : [ 394.0, 249.0, 541.0, 68.0 ],
									"text" : "# this is a comment which does not execute, \n# as opposed to this expression which executes and creates the variable \"/foo\":\n\n/foo = 2 + 2",
									"textcolor" : [ 0.0, 0.0, 0.0, 1.0 ]
								}

							}
 ],
						"lines" : [ 							{
								"patchline" : 								{
									"destination" : [ "obj-3", 0 ],
									"disabled" : 0,
									"hidden" : 0,
									"source" : [ "obj-1", 0 ]
								}

							}
, 							{
								"patchline" : 								{
									"destination" : [ "obj-1", 0 ],
									"disabled" : 0,
									"hidden" : 0,
									"source" : [ "obj-4", 0 ]
								}

							}
 ]
					}
,
					"patching_rect" : [ 131.571442, 330.0, 76.0, 22.0 ],
					"saved_object_attributes" : 					{
						"description" : "",
						"digest" : "",
						"globalpatchername" : "",
						"style" : "",
						"tags" : ""
					}
,
					"style" : "",
					"text" : "p comments"
				}

			}
, 			{
				"box" : 				{
					"id" : "obj-39",
					"maxclass" : "newobj",
					"numinlets" : 0,
					"numoutlets" : 0,
					"patcher" : 					{
						"fileversion" : 1,
						"appversion" : 						{
							"major" : 7,
							"minor" : 2,
							"revision" : 5,
							"architecture" : "x86",
							"modernui" : 1
						}
,
						"rect" : [ 0.0, 26.0, 1283.0, 660.0 ],
						"bglocked" : 0,
						"openinpresentation" : 0,
						"default_fontsize" : 12.0,
						"default_fontface" : 0,
						"default_fontname" : "Arial",
						"gridonopen" : 1,
						"gridsize" : [ 15.0, 15.0 ],
						"gridsnaponopen" : 1,
						"objectsnaponopen" : 1,
						"statusbarvisible" : 2,
						"toolbarvisible" : 1,
						"lefttoolbarpinned" : 0,
						"toptoolbarpinned" : 0,
						"righttoolbarpinned" : 0,
						"bottomtoolbarpinned" : 0,
						"toolbars_unpinned_last_save" : 0,
						"tallnewobj" : 0,
						"boxanimatetime" : 200,
						"enablehscroll" : 1,
						"enablevscroll" : 1,
						"devicewidth" : 0.0,
						"description" : "",
						"digest" : "",
						"tags" : "",
						"style" : "",
						"subpatcher_template" : "gridded",
						"showontab" : 1,
						"boxes" : [ 							{
								"box" : 								{
									"fontface" : 0,
									"fontsize" : 11.0,
									"id" : "obj-6",
									"linecount" : 2,
									"maxclass" : "o.display",
									"numinlets" : 1,
									"numoutlets" : 1,
									"outlettype" : [ "" ],
									"patching_rect" : [ 656.0, 358.0, 151.0, 45.0 ],
									"text" : "/to/be/squared : 16,\n/result : 4.",
									"textcolor" : [ 1.0, 1.0, 1.0, 1.0 ]
								}

							}
, 							{
								"box" : 								{
									"fontface" : 0,
									"fontsize" : 11.0,
									"id" : "obj-8",
									"linecount" : 2,
									"maxclass" : "o.expr.codebox",
									"numinlets" : 1,
									"numoutlets" : 2,
									"outlettype" : [ "FullPacket", "FullPacket" ],
									"patching_rect" : [ 656.0, 283.0, 211.0, 43.0 ],
									"text" : "/to/be/squared = 16,\n/result = sqrt(/to/be/squared)",
									"textcolor" : [ 0.0, 0.0, 0.0, 1.0 ]
								}

							}
, 							{
								"box" : 								{
									"fontface" : 0,
									"fontsize" : 11.0,
									"id" : "obj-5",
									"linecount" : 3,
									"maxclass" : "o.display",
									"numinlets" : 1,
									"numoutlets" : 1,
									"outlettype" : [ "" ],
									"patching_rect" : [ 446.0, 358.0, 98.0, 58.0 ],
									"text" : "/base : 2,\n/power : 4,\n/result : 16.",
									"textcolor" : [ 1.0, 1.0, 1.0, 1.0 ]
								}

							}
, 							{
								"box" : 								{
									"fontface" : 0,
									"fontsize" : 11.0,
									"id" : "obj-3",
									"linecount" : 3,
									"maxclass" : "o.expr.codebox",
									"numinlets" : 1,
									"numoutlets" : 2,
									"outlettype" : [ "FullPacket", "FullPacket" ],
									"patching_rect" : [ 446.0, 283.0, 197.0, 56.0 ],
									"text" : "/base = 2,\n/power = 4,\n/result = pow(/base, /power)",
									"textcolor" : [ 0.0, 0.0, 0.0, 1.0 ]
								}

							}
, 							{
								"box" : 								{
									"fontsize" : 11.0,
									"id" : "obj-38",
									"maxclass" : "newobj",
									"numinlets" : 1,
									"numoutlets" : 1,
									"outlettype" : [ "bang" ],
									"patching_rect" : [ 446.0, 217.0, 56.0, 21.0 ],
									"style" : "",
									"text" : "loadbang"
								}

							}
 ],
						"lines" : [ 							{
								"patchline" : 								{
									"destination" : [ "obj-5", 0 ],
									"disabled" : 0,
									"hidden" : 0,
									"source" : [ "obj-3", 0 ]
								}

							}
, 							{
								"patchline" : 								{
									"destination" : [ "obj-3", 0 ],
									"disabled" : 0,
									"hidden" : 0,
									"source" : [ "obj-38", 0 ]
								}

							}
, 							{
								"patchline" : 								{
									"destination" : [ "obj-8", 0 ],
									"disabled" : 0,
									"hidden" : 0,
									"source" : [ "obj-38", 0 ]
								}

							}
, 							{
								"patchline" : 								{
									"destination" : [ "obj-6", 0 ],
									"disabled" : 0,
									"hidden" : 0,
									"source" : [ "obj-8", 0 ]
								}

							}
 ]
					}
,
					"patching_rect" : [ 458.114288, 330.0, 154.0, 22.0 ],
					"saved_object_attributes" : 					{
						"description" : "",
						"digest" : "",
						"globalpatchername" : "",
						"style" : "",
						"tags" : ""
					}
,
					"style" : "",
					"text" : "p \"exponents and squares\""
				}

			}
, 			{
				"box" : 				{
					"id" : "obj-35",
					"maxclass" : "newobj",
					"numinlets" : 0,
					"numoutlets" : 0,
					"patcher" : 					{
						"fileversion" : 1,
						"appversion" : 						{
							"major" : 7,
							"minor" : 2,
							"revision" : 5,
							"architecture" : "x86",
							"modernui" : 1
						}
,
						"rect" : [ 0.0, 26.0, 1283.0, 660.0 ],
						"bglocked" : 0,
						"openinpresentation" : 0,
						"default_fontsize" : 12.0,
						"default_fontface" : 0,
						"default_fontname" : "Arial",
						"gridonopen" : 1,
						"gridsize" : [ 15.0, 15.0 ],
						"gridsnaponopen" : 1,
						"objectsnaponopen" : 1,
						"statusbarvisible" : 2,
						"toolbarvisible" : 1,
						"lefttoolbarpinned" : 0,
						"toptoolbarpinned" : 0,
						"righttoolbarpinned" : 0,
						"bottomtoolbarpinned" : 0,
						"toolbars_unpinned_last_save" : 0,
						"tallnewobj" : 0,
						"boxanimatetime" : 200,
						"enablehscroll" : 1,
						"enablevscroll" : 1,
						"devicewidth" : 0.0,
						"description" : "",
						"digest" : "",
						"tags" : "",
						"style" : "",
						"subpatcher_template" : "gridded",
						"showontab" : 1,
						"boxes" : [ 							{
								"box" : 								{
									"fontsize" : 11.0,
									"id" : "obj-4",
									"linecount" : 2,
									"maxclass" : "comment",
									"numinlets" : 1,
									"numoutlets" : 0,
									"patching_rect" : [ 806.0, 313.0, 68.0, 31.0 ],
									"style" : "",
									"text" : "augmented assignment"
								}

							}
, 							{
								"box" : 								{
									"fontsize" : 11.0,
									"id" : "obj-2",
									"maxclass" : "newobj",
									"numinlets" : 1,
									"numoutlets" : 1,
									"outlettype" : [ "bang" ],
									"patching_rect" : [ 693.0, 183.0, 56.0, 21.0 ],
									"style" : "",
									"text" : "loadbang"
								}

							}
, 							{
								"box" : 								{
									"fontface" : 0,
									"fontsize" : 11.0,
									"id" : "obj-16",
									"linecount" : 4,
									"maxclass" : "o.compose",
									"numinlets" : 2,
									"numoutlets" : 1,
									"outlettype" : [ "" ],
									"patching_rect" : [ 693.0, 235.0, 102.0, 60.0 ],
									"saved_bundle_data" : [ 35, 98, 117, 110, 100, 108, 101, 0, 0, 0, 0, 0, 0, 0, 0, 0, 0, 0, 0, 16, 47, 112, 108, 117, 115, 0, 0, 0, 44, 105, 0, 0, 0, 0, 0, 1, 0, 0, 0, 16, 47, 116, 105, 109, 101, 115, 0, 0, 44, 105, 0, 0, 0, 0, 0, 3, 0, 0, 0, 16, 47, 100, 105, 118, 0, 0, 0, 0, 44, 105, 0, 0, 0, 0, 0, 16, 0, 0, 0, 16, 47, 115, 117, 98, 0, 0, 0, 0, 44, 105, 0, 0, 0, 0, 0, 5 ],
									"saved_bundle_length" : 96,
									"text" : "/plus : 1,\n/times : 3,\n/div : 16,\n/sub : 5",
									"textcolor" : [ 0.188, 0.188, 0.188, 1.0 ]
								}

							}
, 							{
								"box" : 								{
									"fontface" : 0,
									"fontsize" : 11.0,
									"id" : "obj-14",
									"linecount" : 4,
									"maxclass" : "o.display",
									"numinlets" : 1,
									"numoutlets" : 1,
									"outlettype" : [ "" ],
									"patching_rect" : [ 693.0, 406.0, 92.0, 70.0 ],
									"text" : "/plus : 2,\n/times : 9,\n/div : 4,\n/sub : 3",
									"textcolor" : [ 1.0, 1.0, 1.0, 1.0 ]
								}

							}
, 							{
								"box" : 								{
									"fontface" : 0,
									"fontsize" : 11.0,
									"id" : "obj-15",
									"linecount" : 4,
									"maxclass" : "o.expr.codebox",
									"numinlets" : 1,
									"numoutlets" : 2,
									"outlettype" : [ "FullPacket", "FullPacket" ],
									"patching_rect" : [ 693.0, 313.0, 98.0, 68.0 ],
									"text" : "/plus += 1,\n/times *= 3,\n/div /= 4,\n/sub -= 2",
									"textcolor" : [ 0.0, 0.0, 0.0, 1.0 ]
								}

							}
, 							{
								"box" : 								{
									"fontface" : 0,
									"fontsize" : 11.0,
									"id" : "obj-12",
									"linecount" : 4,
									"maxclass" : "o.display",
									"numinlets" : 1,
									"numoutlets" : 1,
									"outlettype" : [ "" ],
									"patching_rect" : [ 378.0, 406.0, 164.0, 70.0 ],
									"text" : "/two/plus/two : 4,\n/two/minus/one : 1,\n/two/times/two : 4,\n/two/divided/by/two : 1",
									"textcolor" : [ 1.0, 1.0, 1.0, 1.0 ]
								}

							}
, 							{
								"box" : 								{
									"fontface" : 0,
									"fontsize" : 11.0,
									"id" : "obj-13",
									"linecount" : 4,
									"maxclass" : "o.expr.codebox",
									"numinlets" : 1,
									"numoutlets" : 2,
									"outlettype" : [ "FullPacket", "FullPacket" ],
									"patching_rect" : [ 378.0, 313.0, 191.0, 68.0 ],
									"text" : "/two/plus/two = 2 + 2,\n/two/minus/one = 2 - 1,\n/two/times/two = 2 * 2,\n/two/divided/by/two = 2 / 2",
									"textcolor" : [ 0.0, 0.0, 0.0, 1.0 ]
								}

							}
 ],
						"lines" : [ 							{
								"patchline" : 								{
									"destination" : [ "obj-12", 0 ],
									"disabled" : 0,
									"hidden" : 0,
									"source" : [ "obj-13", 0 ]
								}

							}
, 							{
								"patchline" : 								{
									"destination" : [ "obj-14", 0 ],
									"disabled" : 0,
									"hidden" : 0,
									"source" : [ "obj-15", 0 ]
								}

							}
, 							{
								"patchline" : 								{
									"destination" : [ "obj-15", 0 ],
									"disabled" : 0,
									"hidden" : 0,
									"source" : [ "obj-16", 0 ]
								}

							}
, 							{
								"patchline" : 								{
									"destination" : [ "obj-13", 0 ],
									"disabled" : 0,
									"hidden" : 0,
									"source" : [ "obj-2", 0 ]
								}

							}
, 							{
								"patchline" : 								{
									"destination" : [ "obj-16", 0 ],
									"disabled" : 0,
									"hidden" : 0,
									"source" : [ "obj-2", 0 ]
								}

							}
 ]
					}
,
					"patching_rect" : [ 361.728577, 330.0, 73.0, 22.0 ],
					"saved_object_attributes" : 					{
						"description" : "",
						"digest" : "",
						"globalpatchername" : "",
						"style" : "",
						"tags" : ""
					}
,
					"style" : "",
					"text" : "p arithmetic"
				}

			}
, 			{
				"box" : 				{
					"id" : "obj-31",
					"maxclass" : "newobj",
					"numinlets" : 0,
					"numoutlets" : 0,
					"patcher" : 					{
						"fileversion" : 1,
						"appversion" : 						{
							"major" : 7,
							"minor" : 2,
							"revision" : 5,
							"architecture" : "x86",
							"modernui" : 1
						}
,
						"rect" : [ 0.0, 26.0, 1283.0, 660.0 ],
						"bglocked" : 0,
						"openinpresentation" : 0,
						"default_fontsize" : 12.0,
						"default_fontface" : 0,
						"default_fontname" : "Arial",
						"gridonopen" : 1,
						"gridsize" : [ 15.0, 15.0 ],
						"gridsnaponopen" : 1,
						"objectsnaponopen" : 1,
						"statusbarvisible" : 2,
						"toolbarvisible" : 1,
						"lefttoolbarpinned" : 0,
						"toptoolbarpinned" : 0,
						"righttoolbarpinned" : 0,
						"bottomtoolbarpinned" : 0,
						"toolbars_unpinned_last_save" : 0,
						"tallnewobj" : 0,
						"boxanimatetime" : 200,
						"enablehscroll" : 1,
						"enablevscroll" : 1,
						"devicewidth" : 0.0,
						"description" : "",
						"digest" : "",
						"tags" : "",
						"style" : "",
						"subpatcher_template" : "gridded",
						"showontab" : 1,
						"boxes" : [ 							{
								"box" : 								{
									"fontface" : 0,
									"fontsize" : 11.0,
									"id" : "obj-8",
									"maxclass" : "o.compose",
									"numinlets" : 2,
									"numoutlets" : 1,
									"outlettype" : [ "" ],
									"patching_rect" : [ 873.0, 135.0, 174.0, 23.0 ],
									"saved_bundle_data" : [ 35, 98, 117, 110, 100, 108, 101, 0, 0, 0, 0, 0, 0, 0, 0, 0, 0, 0, 0, 36, 47, 108, 105, 115, 116, 0, 0, 0, 44, 105, 105, 105, 105, 105, 0, 0, 0, 0, 0, 1, 0, 0, 0, 2, 0, 0, 0, 3, 0, 0, 0, 4, 0, 0, 0, 5 ],
									"saved_bundle_length" : 56,
									"text" : "/list : [1, 2, 3, 4, 5]",
									"textcolor" : [ 0.188, 0.188, 0.188, 1.0 ]
								}

							}
, 							{
								"box" : 								{
									"fontface" : 0,
									"fontsize" : 11.0,
									"id" : "obj-4",
									"linecount" : 7,
									"maxclass" : "o.display",
									"numinlets" : 1,
									"numoutlets" : 1,
									"outlettype" : [ "" ],
									"patching_rect" : [ 873.0, 288.0, 310.0, 108.0 ],
									"text" : "/list : [1, 2, 3, 4, 5],\n/sum : 15,\n/max : 5,\n/min : 1,\n/mean : 3.,\n/average : 3.,\n/reversed : [5, 4, 3, 2, 1]",
									"textcolor" : [ 1.0, 1.0, 1.0, 1.0 ]
								}

							}
, 							{
								"box" : 								{
									"fontface" : 0,
									"fontsize" : 11.0,
									"id" : "obj-5",
									"linecount" : 6,
									"maxclass" : "o.expr.codebox",
									"numinlets" : 1,
									"numoutlets" : 2,
									"outlettype" : [ "FullPacket", "FullPacket" ],
									"patching_rect" : [ 873.0, 180.0, 197.0, 93.0 ],
									"text" : "/sum = sum(/list),\n/max = max(/list),\n/min = min(/list), \n/mean = mean(/list),\n/average = avg(/list),\n/reversed = rev(/list)",
									"textcolor" : [ 0.0, 0.0, 0.0, 1.0 ]
								}

							}
, 							{
								"box" : 								{
									"fontface" : 0,
									"fontsize" : 11.0,
									"id" : "obj-25",
									"maxclass" : "o.compose",
									"numinlets" : 2,
									"numoutlets" : 1,
									"outlettype" : [ "" ],
									"patching_rect" : [ 621.0, 135.0, 115.0, 23.0 ],
									"saved_bundle_data" : [ 35, 98, 117, 110, 100, 108, 101, 0, 0, 0, 0, 0, 0, 0, 0, 0, 0, 0, 0, 20, 47, 105, 116, 101, 109, 0, 0, 0, 44, 100, 0, 0, 63, -51, -111, 104, 114, -80, 32, -59 ],
									"saved_bundle_length" : 40,
									"text" : "/item : 0.231",
									"textcolor" : [ 0.188, 0.188, 0.188, 1.0 ]
								}

							}
, 							{
								"box" : 								{
									"fontface" : 0,
									"fontsize" : 11.0,
									"id" : "obj-24",
									"maxclass" : "o.compose",
									"numinlets" : 2,
									"numoutlets" : 1,
									"outlettype" : [ "" ],
									"patching_rect" : [ 494.0, 135.0, 115.0, 23.0 ],
									"saved_bundle_data" : [ 35, 98, 117, 110, 100, 108, 101, 0, 0, 0, 0, 0, 0, 0, 0, 0, 0, 0, 0, 20, 47, 105, 116, 101, 109, 0, 0, 0, 44, 115, 0, 0, 99, 111, 119, 115, 0, 0, 0, 0 ],
									"saved_bundle_length" : 40,
									"text" : "/item : \"cows\"",
									"textcolor" : [ 0.188, 0.188, 0.188, 1.0 ]
								}

							}
, 							{
								"box" : 								{
									"fontface" : 0,
									"fontsize" : 11.0,
									"id" : "obj-21",
									"linecount" : 3,
									"maxclass" : "o.display",
									"numinlets" : 1,
									"numoutlets" : 1,
									"outlettype" : [ "" ],
									"patching_rect" : [ 494.0, 288.0, 310.0, 58.0 ],
									"text" : "/item : 0.231,\n/num : 5,\n/filled : [0.231, 0.231, 0.231, 0.231, 0.231]",
									"textcolor" : [ 1.0, 1.0, 1.0, 1.0 ]
								}

							}
, 							{
								"box" : 								{
									"fontface" : 0,
									"fontsize" : 11.0,
									"id" : "obj-22",
									"linecount" : 3,
									"maxclass" : "o.expr.codebox",
									"numinlets" : 1,
									"numoutlets" : 2,
									"outlettype" : [ "FullPacket", "FullPacket" ],
									"patching_rect" : [ 494.0, 180.0, 197.0, 56.0 ],
									"text" : "/item ??= 4,\n/num = 5,\n/filled = nfill(/num, /item)",
									"textcolor" : [ 0.0, 0.0, 0.0, 1.0 ]
								}

							}
, 							{
								"box" : 								{
									"fontface" : 0,
									"fontsize" : 11.0,
									"id" : "obj-20",
									"linecount" : 7,
									"maxclass" : "o.display",
									"numinlets" : 1,
									"numoutlets" : 1,
									"outlettype" : [ "" ],
									"patching_rect" : [ 494.0, 469.0, 330.0, 108.0 ],
									"text" : "/count/whole : [1, 2, 3, 4, 5, 6, 7, 8, 9, 10, 11, 12, 13, 14, 15, 16, 17, 18, 19, 20],\n/count/fractional : [0.5, 0.75, 1., 1.25, 1.5, 1.75, 2., 2.25, 2.5, 2.75, 3., 3.25, 3.5, 3.75, 4., 4.25, 4.5, 4.75, 5., 5.25, 5.5, 5.75, 6., 6.25, 6.5, 6.75, 7., 7.25, 7.5, 7.75, 8., 8.25, 8.5, 8.75, 9., 9.25, 9.5, 9.75, 10.]",
									"textcolor" : [ 1.0, 1.0, 1.0, 1.0 ]
								}

							}
, 							{
								"box" : 								{
									"fontface" : 0,
									"fontsize" : 11.0,
									"id" : "obj-19",
									"linecount" : 2,
									"maxclass" : "o.expr.codebox",
									"numinlets" : 1,
									"numoutlets" : 2,
									"outlettype" : [ "FullPacket", "FullPacket" ],
									"patching_rect" : [ 494.0, 419.0, 270.0, 43.0 ],
									"text" : "/count/whole = aseq(1, 20, 1),\n/count/fractional = aseq(0.5, 10, 0.25)",
									"textcolor" : [ 0.0, 0.0, 0.0, 1.0 ]
								}

							}
, 							{
								"box" : 								{
									"fontface" : 0,
									"fontsize" : 11.0,
									"id" : "obj-28",
									"linecount" : 5,
									"maxclass" : "o.display",
									"numinlets" : 1,
									"numoutlets" : 1,
									"outlettype" : [ "" ],
									"patching_rect" : [ 131.0, 288.0, 171.0, 83.0 ],
									"text" : "/one : -21,\n/two : 44,\n/three : 300,\n/list : [-21, 44, 300],\n/second/element : 44",
									"textcolor" : [ 1.0, 1.0, 1.0, 1.0 ]
								}

							}
, 							{
								"box" : 								{
									"fontface" : 0,
									"fontsize" : 11.0,
									"id" : "obj-29",
									"linecount" : 5,
									"maxclass" : "o.expr.codebox",
									"numinlets" : 1,
									"numoutlets" : 2,
									"outlettype" : [ "FullPacket", "FullPacket" ],
									"patching_rect" : [ 131.0, 180.0, 211.0, 81.0 ],
									"text" : "/one = -21, \n/two = 44, \n/three = 300,\n/list = [/one, /two, /three],\n/second/element = /list[[1]]",
									"textcolor" : [ 0.0, 0.0, 0.0, 1.0 ]
								}

							}
, 							{
								"box" : 								{
									"fontsize" : 11.0,
									"id" : "obj-30",
									"maxclass" : "newobj",
									"numinlets" : 1,
									"numoutlets" : 1,
									"outlettype" : [ "bang" ],
									"patching_rect" : [ 131.0, 84.0, 56.0, 21.0 ],
									"style" : "",
									"text" : "loadbang"
								}

							}
 ],
						"lines" : [ 							{
								"patchline" : 								{
									"destination" : [ "obj-20", 0 ],
									"disabled" : 0,
									"hidden" : 0,
									"source" : [ "obj-19", 0 ]
								}

							}
, 							{
								"patchline" : 								{
									"destination" : [ "obj-21", 0 ],
									"disabled" : 0,
									"hidden" : 0,
									"source" : [ "obj-22", 0 ]
								}

							}
, 							{
								"patchline" : 								{
									"destination" : [ "obj-22", 0 ],
									"disabled" : 0,
									"hidden" : 0,
									"source" : [ "obj-24", 0 ]
								}

							}
, 							{
								"patchline" : 								{
									"destination" : [ "obj-22", 0 ],
									"disabled" : 0,
									"hidden" : 0,
									"source" : [ "obj-25", 0 ]
								}

							}
, 							{
								"patchline" : 								{
									"destination" : [ "obj-28", 0 ],
									"disabled" : 0,
									"hidden" : 0,
									"source" : [ "obj-29", 0 ]
								}

							}
, 							{
								"patchline" : 								{
									"destination" : [ "obj-19", 0 ],
									"disabled" : 0,
									"hidden" : 0,
									"source" : [ "obj-30", 0 ]
								}

							}
, 							{
								"patchline" : 								{
									"destination" : [ "obj-22", 0 ],
									"disabled" : 0,
									"hidden" : 0,
									"source" : [ "obj-30", 0 ]
								}

							}
, 							{
								"patchline" : 								{
									"destination" : [ "obj-29", 0 ],
									"disabled" : 0,
									"hidden" : 0,
									"source" : [ "obj-30", 0 ]
								}

							}
, 							{
								"patchline" : 								{
									"destination" : [ "obj-8", 0 ],
									"disabled" : 0,
									"hidden" : 0,
									"source" : [ "obj-30", 0 ]
								}

							}
, 							{
								"patchline" : 								{
									"destination" : [ "obj-4", 0 ],
									"disabled" : 0,
									"hidden" : 0,
									"source" : [ "obj-5", 0 ]
								}

							}
, 							{
								"patchline" : 								{
									"destination" : [ "obj-5", 0 ],
									"disabled" : 0,
									"hidden" : 0,
									"source" : [ "obj-8", 0 ]
								}

							}
 ]
					}
,
					"patching_rect" : [ 781.885742, 330.0, 41.0, 22.0 ],
					"saved_object_attributes" : 					{
						"description" : "",
						"digest" : "",
						"globalpatchername" : "",
						"style" : "",
						"tags" : ""
					}
,
					"style" : "",
					"text" : "p lists"
				}

			}
 ],
		"lines" : [  ],
		"dependency_cache" : [ 			{
				"name" : "o.expr.codebox.mxo",
				"type" : "iLaX"
			}
, 			{
				"name" : "o.display.mxo",
				"type" : "iLaX"
			}
, 			{
				"name" : "o.compose.mxo",
				"type" : "iLaX"
			}
, 			{
				"name" : "o.union.mxo",
				"type" : "iLaX"
			}
, 			{
				"name" : "o.pack.mxo",
				"type" : "iLaX"
			}
, 			{
				"name" : "o.route.mxo",
				"type" : "iLaX"
			}
 ],
		"autosave" : 0,
		"bgfillcolor_type" : "gradient",
		"bgfillcolor_color1" : [ 0.376471, 0.384314, 0.4, 1.0 ],
		"bgfillcolor_color2" : [ 0.290196, 0.309804, 0.301961, 1.0 ],
		"bgfillcolor_color" : [ 0.290196, 0.309804, 0.301961, 1.0 ],
		"bgfillcolor_angle" : 270.0,
		"bgfillcolor_proportion" : 0.39
	}

}
